<svg xmlns="http://www.w3.org/2000/svg" viewBox="0 0 500 500"><g id="freepik--background-simple--inject-2"><path d="M465.33,157.13c-.13-.44-.25-.88-.37-1.31-9.14-32-18.09-64.64-43.6-88C379.5,29.48,299.27,10.58,251.86,49.55c-21.05,17.31-32.54,37.1-58.53,49A136.58,136.58,0,0,1,139.21,111c-19.9.31-40.38-4-59.54,3.48C34.47,132,15.66,198.71,42,238.25c16.59,24.9,32.5,54,33,84.74.47,26.61-19.28,46.42-25,71.31-3.06,13.31-1.93,28.23,6.18,39.23,12.19,16.53,35.13,19.9,54.08,22.23,23.77,2.91,47.68,5.47,71.55,7.26,49.32,3.71,100.46,1.53,146.72-17.55,32.9-13.57,54.67-45.08,72.92-74,22.2-35.21,50.78-63.86,63.19-104.62C475.64,230.77,475.39,193.24,465.33,157.13Z" style="fill:#FF725E"></path><path d="M465.33,157.13c-.13-.44-.25-.88-.37-1.31-9.14-32-18.09-64.64-43.6-88C379.5,29.48,299.27,10.58,251.86,49.55c-21.05,17.31-32.54,37.1-58.53,49A136.58,136.58,0,0,1,139.21,111c-19.9.31-40.38-4-59.54,3.48C34.47,132,15.66,198.71,42,238.25c16.59,24.9,32.5,54,33,84.74.47,26.61-19.28,46.42-25,71.31-3.06,13.31-1.93,28.23,6.18,39.23,12.19,16.53,35.13,19.9,54.08,22.23,23.77,2.91,47.68,5.47,71.55,7.26,49.32,3.71,100.46,1.53,146.72-17.55,32.9-13.57,54.67-45.08,72.92-74,22.2-35.21,50.78-63.86,63.19-104.62C475.64,230.77,475.39,193.24,465.33,157.13Z" style="fill:#fff;opacity:0.7000000000000001"></path></g><g id="freepik--Wall--inject-2"><rect x="370.12" y="330.4" width="42" height="17" style="opacity:0.2"></rect><rect x="101.16" y="409.84" width="42" height="17" style="opacity:0.2"></rect><rect x="38.16" y="290.34" width="42" height="17" style="opacity:0.2"></rect><rect x="354.12" y="269.9" width="42" height="17" style="opacity:0.2"></rect><rect x="387.16" y="171.84" width="42" height="17" style="opacity:0.2"></rect><rect x="231.16" y="192.84" width="42" height="17" style="opacity:0.2"></rect><rect x="234.16" y="336.84" width="42" height="17" style="opacity:0.2"></rect><rect x="186.16" y="336.84" width="42" height="17" style="opacity:0.2"></rect><rect x="66.16" y="196.84" width="42" height="17" style="opacity:0.2"></rect><rect x="113.16" y="196.84" width="42" height="17" style="opacity:0.2"></rect><rect x="284.16" y="192.84" width="42" height="17" style="opacity:0.2"></rect><rect x="387.12" y="293.4" width="42" height="17" style="opacity:0.1"></rect><rect x="420.16" y="405.84" width="42" height="17" style="opacity:0.1"></rect><rect x="435.12" y="293.4" width="42" height="17" style="opacity:0.1"></rect><rect x="96.16" y="174.34" width="42" height="17" style="opacity:0.1"></rect><rect x="27.16" y="156.34" width="42" height="17" style="opacity:0.1"></rect><rect x="441.16" y="172.34" width="42" height="17" style="opacity:0.1"></rect><rect x="413.16" y="201.34" width="42" height="17" style="opacity:0.1"></rect><rect x="51.16" y="73.84" width="42" height="17" style="opacity:0.2"></rect><rect x="105.16" y="74.34" width="42" height="17" style="opacity:0.1"></rect><rect x="77.16" y="103.34" width="42" height="17" style="opacity:0.1"></rect><rect x="318.16" y="402.84" width="42" height="17" style="opacity:0.2"></rect><rect x="372.16" y="403.34" width="42" height="17" style="opacity:0.1"></rect><rect x="344.16" y="432.34" width="42" height="17" style="opacity:0.1"></rect><rect x="257.16" y="172.34" width="42" height="17" style="opacity:0.1"></rect><rect x="217.16" y="316.84" width="42" height="17" style="opacity:0.1"></rect><rect x="191.16" y="365.84" width="42" height="17" style="opacity:0.1"></rect><rect x="232.16" y="407.84" width="42" height="17" style="opacity:0.1"></rect><rect x="234.16" y="114.84" width="42" height="17" style="opacity:0.2"></rect><rect x="186.16" y="114.84" width="42" height="17" style="opacity:0.2"></rect><rect x="217.16" y="94.84" width="42" height="17" style="opacity:0.1"></rect><rect x="191.16" y="143.84" width="42" height="17" style="opacity:0.1"></rect><rect x="58.16" y="316.84" width="42" height="17" style="opacity:0.1"></rect><rect x="365.72" y="82.31" width="42" height="17" style="opacity:0.2"></rect><rect x="385.72" y="108.81" width="42" height="17" style="opacity:0.1"></rect><rect x="39.16" y="365.84" width="42" height="17" style="opacity:0.1"></rect><rect x="287.12" y="330.4" width="42" height="17" style="opacity:0.2"></rect></g><g id="freepik--Photos--inject-2"><path d="M416.41,158.55l-121.57,16L279.17,55.35l121.57-16Zm.69,5.24-121.57,16L311.2,299l121.57-16Zm16.36,124.43-121.57,16,15.67,119.19,121.57-16Z" style="fill:#adadad"></path><path d="M319.21,129s-4.56,3.62-13.93,14.09-10.61,18.85-11.22,23.13a62.94,62.94,0,0,0-.06,11.08l86.63-11.39s-7.08-32.13-17.89-37.76-25.51-5-25.51-5S327.3,122.89,319.21,129Z" style="fill:#263238;stroke:#263238;stroke-linecap:round;stroke-linejoin:round"></path><path d="M367.63,118.1a146.22,146.22,0,0,0-17.26-3.61c-8.72-1.2-17.28,6.47-18.3,7.61S344,123.39,349,124.41l5,1s-2.45,13.25-.35,22.87a132.61,132.61,0,0,1,2.43,21l48.67-6.4s4.44-13.51,3.7-25.5-5.3-16.08-11.48-19.64S367.63,118.1,367.63,118.1Z" style="fill:#FF725E;stroke:#263238;stroke-linecap:round;stroke-linejoin:round"></path><polygon points="350.24 130.12 357.15 137.94 348.12 136.94 350.24 130.12" style="fill:#fff;stroke:#263238;stroke-linecap:round;stroke-linejoin:round"></polygon><path d="M341.79,122l8.45,8.12L348,143.34s-4.58-6.78-5.68-11.33A33.34,33.34,0,0,1,341.79,122Z" style="fill:#fff;stroke:#263238;stroke-linecap:round;stroke-linejoin:round"></path><path d="M317,110.82s3.82,9.91,4.4,14.36,1,6.58,1,6.58,12.75,6.38,17.31,9.14,8.19,4.8,8.21,2.44-3.34-10.13-4.12-16.07.21-18.83.21-18.83-6.05,6.33-11,7S317,110.82,317,110.82Z" style="fill:#fff;stroke:#263238;stroke-linecap:round;stroke-linejoin:round"></path><path d="M328.89,115.08a66.73,66.73,0,0,1-11.9-4.26s3.82,9.91,4.4,14.36c.05.39.1.73.15,1.08a2.5,2.5,0,0,0,1.52.39l1.64-.22.15,0c.67-.08,14.63-6.24,14.63-6.24Z" style="fill:#263238;stroke:#263238;stroke-linecap:round;stroke-linejoin:round"></path><polygon points="319.68 124.9 337.72 134.45 345.33 143.85 335.63 140.26 332.34 148.42 315.69 130.3 319.68 124.9" style="fill:#fff;stroke:#263238;stroke-linecap:round;stroke-linejoin:round"></polygon><line x1="335.63" y1="140.26" x2="337.72" y2="134.45" style="fill:#fff;stroke:#263238;stroke-linecap:round;stroke-linejoin:round"></line><path d="M309.53,97.53s-1.64-2.3-3,.39,2.5,6.22,4.58,8a11.83,11.83,0,0,0,2.77,2Z" style="fill:#fff;stroke:#263238;stroke-linecap:round;stroke-linejoin:round"></path><path d="M344.52,88.06s.34-2.81,2.8-1.08.8,6.65-.18,9.17a12.08,12.08,0,0,1-1.49,3.08Z" style="fill:none;stroke:#263238;stroke-linecap:round;stroke-linejoin:round"></path><path d="M307,93.32s6.28,13.53,8.23,16.92,11.14,11.39,14.55,12.87,10.64-.54,12-4.58,4.65-12,3.91-19.16-1.22-19.12-3.4-25.91-9.82-11.13-16-11.17S307,67.39,303.52,73.21s-4.72,11.33-3,12.61S307,93.32,307,93.32Z" style="fill:#fff;stroke:#263238;stroke-linecap:round;stroke-linejoin:round"></path><path d="M326.3,62.29c-6.22,0-19.26,5.1-22.78,10.92s-4.72,11.33-3,12.61,6.55,7.5,6.55,7.5l1.51,3.22a33,33,0,0,1,2.6-2.9c1.71-1.73,2.29-5.45,2.29-5.45s8.76,1.42,15.95-2.52A22.24,22.24,0,0,0,339,74.33s1.7,6.42,4.14,8.67c.44.4.84.79,1.19,1.14a60.8,60.8,0,0,0-2-10.68C340.16,66.68,332.52,62.33,326.3,62.29Z" style="fill:#263238;stroke:#263238;stroke-linecap:round;stroke-linejoin:round"></path><path d="M314,95.44a8.21,8.21,0,0,1,8.68-4.16" style="fill:none;stroke:#263238;stroke-linecap:round;stroke-linejoin:round;stroke-width:2px"></path><path d="M331.16,89.65a8.56,8.56,0,0,1,8.48-.61" style="fill:none;stroke:#263238;stroke-linecap:round;stroke-linejoin:round;stroke-width:2px"></path><path d="M327,101.12s.1,5.86,1,6.41,3.39.23,4.83-.3a3.41,3.41,0,0,0,1.9-2.1" style="fill:none;stroke:#263238;stroke-linecap:round;stroke-linejoin:round"></path><path d="M321.18,96.76c.1.77-.18,1.45-.64,1.51s-.91-.52-1-1.3.19-1.45.64-1.51S321.08,96,321.18,96.76Z" style="fill:#263238"></path><path d="M336.38,93.58c.1.78-.19,1.46-.65,1.52s-.9-.52-1-1.3.18-1.45.64-1.51S336.27,92.81,336.38,93.58Z" style="fill:#263238"></path><path d="M328.29,112.52s5.09,1.69,8.26-2.26" style="fill:none;stroke:#263238;stroke-linecap:round;stroke-linejoin:round"></path><path d="M365.52,114.59s-1,6.94-2,9.26-.12,7.36,12.87,6.75,11.93-14.91,11.93-14.91l-9.63-13.17S370.63,112,365.52,114.59Z" style="fill:#fff;stroke:#263238;stroke-linecap:round;stroke-linejoin:round"></path><path d="M365.11,117.64a13.71,13.71,0,0,1,2.84,5.07" style="fill:#fff;stroke:#263238;stroke-linecap:round;stroke-linejoin:round"></path><path d="M317.5,130.06s19.29,7.53,20.72,8.18a38.45,38.45,0,0,0,5.56,1.46,13.25,13.25,0,0,1,3.05-1.08l1.15-.15.46.95,3.37.06,2.1,1.91s3.29-1.78,4.36-1.25a14.63,14.63,0,0,1,2.85,2.48l1.65-.22a6.94,6.94,0,0,1,2.07.4s20.37-20,22.55-21.26,8.46-3.29,13.35-.58,6.49,13.58,5.69,15.2-34.34,27.34-37,29-6.33,1.67-8.73,1.32-8.36-3.61-8.36-3.61-3.09.75-3.63.48a2.94,2.94,0,0,1-1-1l-1-2.23a7.54,7.54,0,0,0-2.58-.5c-1.34,0-2.66-2.33-2.66-2.33a7,7,0,0,1-2.5.16c-1.86-.09-3.29-2.09-3.29-2.09l-23-19.46-3.81-2.19s1.86-6.28,2.35-6.35S317.5,130.06,317.5,130.06Z" style="fill:#fff;stroke:#263238;stroke-linecap:round;stroke-linejoin:round"></path><path d="M400.74,121c-4.89-2.71-11.17-.71-13.35.58s-22.55,21.26-22.55,21.26a6.94,6.94,0,0,0-2.07-.4l-1.65.22a14.63,14.63,0,0,0-2.85-2.48c-1.07-.53-4.36,1.25-4.36,1.25l-2.1-1.91-3.37-.06-.46-.95-1.15.15a13.25,13.25,0,0,0-3.05,1.08,38.45,38.45,0,0,1-5.56-1.46c-.24-.11-1-.42-2.1-.85-6.47,3.46-8.66,7.64-9.38,10.34l9,7.62s1.43,2,3.29,2.09a7,7,0,0,0,2.5-.16s1.32,2.34,2.66,2.33a7.54,7.54,0,0,1,2.58.5l1,2.23a2.94,2.94,0,0,0,1,1c.54.27,3.63-.48,3.63-.48s6,3.25,8.36,3.61,6.1.37,8.73-1.32,36.18-27.42,37-29S405.63,123.67,400.74,121Z" style="fill:#FF725E;stroke:#263238;stroke-linecap:round;stroke-linejoin:round"></path><path d="M299.12,134.49s-4,7.58-4.55,8.82,1.79,2.12,1.79,2.12l3.79,2s2.47-1.67,2.94-1.9a5.19,5.19,0,0,0,1.61-3.07l-.22-1.65s1.5-1.37,2.69-2.53-.34-5.16-1.11-5.9S300.87,131.24,299.12,134.49Z" style="fill:#fff;stroke:#263238;stroke-linecap:round;stroke-linejoin:round"></path><path d="M303.76,137.91s-1.53,2.38-2.08,3.29a18.56,18.56,0,0,1-2.67,2.7" style="fill:none;stroke:#263238;stroke-linecap:round;stroke-linejoin:round"></path><path d="M301.13,142.11s1.84,1.27,1.93,1.93-.9,2.13-.9,2.13" style="fill:none;stroke:#263238;stroke-linecap:round;stroke-linejoin:round"></path><path d="M302.21,140.13s2.65,1,2.49,2.35" style="fill:none;stroke:#263238;stroke-linecap:round;stroke-linejoin:round"></path><path d="M300.57,128.93s-3,2.74-2.85,3.9,3.29,4.6,5.54,6.32,3.05.27,3.83-.17,0-1.18-1.77-3.29S300.57,128.93,300.57,128.93Z" style="fill:#fff;stroke:#263238;stroke-linecap:round;stroke-linejoin:round"></path><path d="M303.09,126.41a2.59,2.59,0,0,0-2.52,2.52c-.34,2.56,2.57,5.53,4.09,6.84a9.53,9.53,0,0,0,4.16,2.31c.85.06.82-1.45.82-1.45s-4-6-4.63-7.11S303.09,126.41,303.09,126.41Z" style="fill:#fff;stroke:#263238;stroke-linecap:round;stroke-linejoin:round"></path><path d="M310.69,122.9A25.9,25.9,0,0,1,315,124c1.08.53,5.08,4.2,5,6.23s-1.86-.09-2.54-.17-2.91-3-2.91-3l-2,.1Z" style="fill:#fff;stroke:#263238;stroke-linecap:round;stroke-linejoin:round"></path><path d="M307.12,123.87s-2.83.2-3.95,1.86,4.9,10.44,6.47,10.9a1.59,1.59,0,0,0,2.06-.94Z" style="fill:#fff;stroke:#263238;stroke-linecap:round;stroke-linejoin:round"></path><path d="M311.75,124.6s2.84,8.86,2.79,9.71-2.84,1.38-2.84,1.38-4.79-9.61-4.58-11.82S310.63,121.22,311.75,124.6Z" style="fill:#fff;stroke:#263238;stroke-linecap:round;stroke-linejoin:round"></path><path d="M362.86,62.66s-7.07,1.1-13.74,7.85-6.18,15.58-3.78,22.32S348.13,100,349,108s-.76,17.23,7.69,21.49,12.51-3.16,12.51-3.16-.56-.43-2.64-2.17-.86-6.6-.92-8.27-5.25-5.52-8.47-10.81-6-16-5.27-18.44,10.84-1.76,11.83-1.89,12.53,2,13.92,7.57.83,12.65.47,18.9,3.1,15.88,12.2,16.19,14.31.3,13.82,4.23-5.39,2.39-4.66,4.14,3.35,3.75,10.14,3,8.91-7.55,8.54-12.87-3.93-8.22-5.2-12.75,1.3-10.58-2.75-17.09-14.35-4.5-17.12-10.18S389.54,70.23,380,64.94,362.86,62.66,362.86,62.66Z" style="fill:#263238;stroke:#263238;stroke-linecap:round;stroke-linejoin:round"></path><path d="M348.2,85.23s2.9,14.39,4.13,18.6,7.58,10.41,10.31,12.07,4.4,2.78,7.49,2,7.45-5.84,9-8.39,3.06-10,2.67-12.94a68.7,68.7,0,0,0-2.12-8.45s-8.1-4.14-11.83-7A19.39,19.39,0,0,1,362.46,75s-5,3.69-8.59,6.17S348.2,85.23,348.2,85.23Z" style="fill:#fff;stroke:#263238;stroke-linecap:round;stroke-linejoin:round"></path><path d="M361.94,102.9a4.73,4.73,0,0,0,3.52,1.21" style="fill:none;stroke:#263238;stroke-linecap:round;stroke-linejoin:round"></path><path d="M362,108.26s4.77,3.07,9.71-2.78" style="fill:none;stroke:#263238;stroke-linecap:round;stroke-linejoin:round"></path><path d="M370.9,91.9a1,1,0,1,1-1.15-1.11A1.15,1.15,0,0,1,370.9,91.9Z" style="fill:#263238"></path><path d="M358.79,94.25a1,1,0,1,1-1.16-1.11A1.15,1.15,0,0,1,358.79,94.25Z" style="fill:#263238"></path><path d="M352.51,91.21s.81-2.79,5.07-2.34" style="fill:none;stroke:#263238;stroke-linecap:round;stroke-linejoin:round"></path><path d="M366.38,86.87s4.85-2.65,6.92,1.61" style="fill:none;stroke:#263238;stroke-linecap:round;stroke-linejoin:round"></path><path d="M336.09,251.4s-4.56,3.62-13.93,14.09-10.61,18.85-11.23,23.13a63.61,63.61,0,0,0-.05,11.08l86.63-11.39s-7.08-32.14-17.89-37.76-25.51-5-25.51-5S344.18,245.3,336.09,251.4Z" style="fill:#263238;stroke:#263238;stroke-linecap:round;stroke-linejoin:round"></path><path d="M384.51,240.5a147.35,147.35,0,0,0-17.26-3.6c-8.72-1.21-17.28,6.47-18.3,7.61s11.91,1.28,16.92,2.3l5,1s-2.46,13.24-.35,22.87a133.32,133.32,0,0,1,2.42,21l48.68-6.4s4.44-13.51,3.7-25.5-5.31-16.09-11.48-19.64S384.51,240.5,384.51,240.5Z" style="fill:#FF725E;stroke:#263238;stroke-linecap:round;stroke-linejoin:round"></path><polygon points="367.12 252.53 374.02 260.35 365 259.35 367.12 252.53" style="fill:#fff;stroke:#263238;stroke-linecap:round;stroke-linejoin:round"></polygon><path d="M358.67,244.4l8.45,8.13-2.29,13.22s-4.58-6.78-5.69-11.34A33.54,33.54,0,0,1,358.67,244.4Z" style="fill:#fff;stroke:#263238;stroke-linecap:round;stroke-linejoin:round"></path><path d="M333.87,233.23s3.82,9.9,4.4,14.36,1,6.58,1,6.58,12.75,6.38,17.31,9.14,8.19,4.79,8.21,2.44-3.35-10.13-4.13-16.07.21-18.83.21-18.83-6.05,6.33-11,7S333.87,233.23,333.87,233.23Z" style="fill:#fff;stroke:#263238;stroke-linecap:round;stroke-linejoin:round"></path><path d="M355.76,245.33l-20.83-9.21c1.18,3.27,3,8.55,3.34,11.47.59,4.45,1,6.58,1,6.58l3,1.5Z" style="fill:#263238;stroke:#263238;stroke-linecap:round;stroke-linejoin:round"></path><polygon points="336.56 247.31 354.6 256.86 362.21 266.26 352.51 262.67 349.22 270.83 332.57 252.7 336.56 247.31" style="fill:#fff;stroke:#263238;stroke-linecap:round;stroke-linejoin:round"></polygon><line x1="352.51" y1="262.67" x2="354.6" y2="256.86" style="fill:#fff;stroke:#263238;stroke-linecap:round;stroke-linejoin:round"></line><path d="M382.4,237s-1,6.94-2,9.26-.12,7.36,12.87,6.74,11.92-14.91,11.92-14.91l-9.62-13.16S387.51,234.42,382.4,237Z" style="fill:#fff;stroke:#263238;stroke-linecap:round;stroke-linejoin:round"></path><path d="M382,240.05a13.59,13.59,0,0,1,2.84,5.07" style="fill:#fff;stroke:#263238;stroke-linecap:round;stroke-linejoin:round"></path><path d="M334.38,252.47s19.29,7.53,20.72,8.18a39.43,39.43,0,0,0,5.56,1.45,13.4,13.4,0,0,1,3-1.07l1.15-.15.46.95,3.37.06,2.09,1.9s3.3-1.77,4.37-1.24A14.63,14.63,0,0,1,378,265l1.65-.22a6.55,6.55,0,0,1,2.06.4s20.38-20,22.56-21.26,8.46-3.3,13.35-.58,6.48,13.58,5.69,15.2-34.34,27.34-37,29-6.33,1.67-8.73,1.31-8.36-3.6-8.36-3.6-3.09.75-3.63.48a2.94,2.94,0,0,1-1-1.05l-1-2.22a7.54,7.54,0,0,0-2.58-.5c-1.35,0-2.66-2.34-2.66-2.34a6.8,6.8,0,0,1-2.5.17c-1.86-.1-3.29-2.09-3.29-2.09l-23-19.46-3.81-2.19s1.86-6.29,2.35-6.35S334.38,252.47,334.38,252.47Z" style="fill:#fff;stroke:#263238;stroke-linecap:round;stroke-linejoin:round"></path><path d="M417.62,243.37c-4.89-2.72-11.17-.72-13.35.58s-22.56,21.26-22.56,21.26a6.55,6.55,0,0,0-2.06-.4L378,265a14.63,14.63,0,0,0-2.85-2.48c-1.07-.53-4.37,1.24-4.37,1.24l-2.09-1.9-3.37-.06-.46-.95-1.15.15a13.4,13.4,0,0,0-3,1.07,39.43,39.43,0,0,1-5.56-1.45l-2.1-.86c-6.47,3.47-8.66,7.65-9.38,10.35l9,7.62s1.43,2,3.29,2.09a6.8,6.8,0,0,0,2.5-.17s1.31,2.35,2.66,2.34a7.54,7.54,0,0,1,2.58.5l1,2.22a2.94,2.94,0,0,0,1,1.05c.54.27,3.63-.48,3.63-.48s6,3.25,8.36,3.6,6.09.38,8.73-1.31,36.17-27.42,37-29S422.51,246.08,417.62,243.37Z" style="fill:#FF725E;stroke:#263238;stroke-linecap:round;stroke-linejoin:round"></path><path d="M316,256.9s-4,7.58-4.55,8.82,1.79,2.11,1.79,2.11l3.79,2s2.46-1.66,2.94-1.89a5.19,5.19,0,0,0,1.61-3.07l-.22-1.65s1.5-1.37,2.69-2.53-.34-5.16-1.11-5.9S317.75,253.65,316,256.9Z" style="fill:#fff;stroke:#263238;stroke-linecap:round;stroke-linejoin:round"></path><path d="M320.64,260.32s-1.53,2.38-2.08,3.29a18.56,18.56,0,0,1-2.67,2.7" style="fill:none;stroke:#263238;stroke-linecap:round;stroke-linejoin:round"></path><path d="M318,264.52s1.84,1.27,1.93,1.93-.9,2.13-.9,2.13" style="fill:none;stroke:#263238;stroke-linecap:round;stroke-linejoin:round"></path><path d="M319.09,262.53s2.65,1,2.49,2.36" style="fill:none;stroke:#263238;stroke-linecap:round;stroke-linejoin:round"></path><path d="M317.45,251.33s-3,2.75-2.85,3.9,3.29,4.61,5.53,6.33,3.06.27,3.84-.17,0-1.18-1.77-3.29S317.45,251.33,317.45,251.33Z" style="fill:#fff;stroke:#263238;stroke-linecap:round;stroke-linejoin:round"></path><path d="M320,248.82a2.59,2.59,0,0,0-2.52,2.51c-.34,2.57,2.57,5.54,4.09,6.85a9.59,9.59,0,0,0,4.16,2.31c.85.06.82-1.45.82-1.45s-4-6-4.63-7.11S320,248.82,320,248.82Z" style="fill:#fff;stroke:#263238;stroke-linecap:round;stroke-linejoin:round"></path><path d="M327.56,245.3a26.25,26.25,0,0,1,4.35,1.11c1.07.53,5.08,4.2,5,6.23s-1.86-.1-2.54-.17-2.91-3-2.91-3l-2,.1Z" style="fill:#fff;stroke:#263238;stroke-linecap:round;stroke-linejoin:round"></path><path d="M324,246.28s-2.83.2-3.95,1.86,4.89,10.43,6.47,10.9a1.6,1.6,0,0,0,2.06-.94Z" style="fill:#fff;stroke:#263238;stroke-linecap:round;stroke-linejoin:round"></path><path d="M328.63,247s2.84,8.86,2.79,9.71-2.84,1.38-2.84,1.38-4.79-9.61-4.58-11.82S327.51,243.63,328.63,247Z" style="fill:#fff;stroke:#263238;stroke-linecap:round;stroke-linejoin:round"></path><path d="M370.25,187.36s-6.94,1.76-12.95,9.1-4.7,16.09-1.69,22.57,3.45,6.9,5.07,14.72.85,17.22,9.66,20.68,12.16-4.31,12.16-4.31-.6-.38-2.83-1.92-1.48-6.49-1.69-8.15-5.74-5-9.44-10-7.43-15.37-7-17.87,10.64-2.76,11.61-3,7.36,1.57,9.27,6.94S389.74,228,390,234.25s4.56,15.51,13.65,15,14.27-1,14.15,2.92-5.15,2.88-4.25,4.55,3.68,3.43,10.37,2.08,8.17-8.35,7.31-13.62-4.68-7.81-6.37-12.2.31-10.65-4.33-16.77-14.71-3.13-18-8.53-5-15.24-15-19.61S370.25,187.36,370.25,187.36Z" style="fill:#263238;stroke:#263238;stroke-linecap:round;stroke-linejoin:round"></path><path d="M326.36,231.73s-4.05-1.73-2.4,1.53,8.42,5.85,8.42,5.85Z" style="fill:#fff;stroke:#263238;stroke-linecap:round;stroke-linejoin:round"></path><path d="M321.18,226.67S332.32,240,335.1,242.58s12.4,5.68,15.57,6,7.06-3.19,7.93-4.52,3.3-9.31,2.87-12.56-3.12-9.16-3.12-9.16,1-5.35-.37-8.13a10.9,10.9,0,0,0-3.13-3.93s-3.94-11.49-6.93-14.4-9.54-6.4-11.81-6.45-15,2.15-19.71,8.85-8.86,17.35-6.42,21.37,5.15,4.72,7.38,5.82A12,12,0,0,0,321.18,226.67Z" style="fill:#fff;stroke:#263238;stroke-linecap:round;stroke-linejoin:round"></path><path d="M356,216.52c-.35-1.35-1.92-5.32-1.92-5.32l.6-1.38c-.73-2.06-4.14-11.4-6.79-14-3-2.91-9.54-6.4-11.81-6.45s-15,2.15-19.71,8.85-8.86,17.35-6.42,21.37,5.15,4.72,7.38,5.82a12,12,0,0,0,3.82,1.24s2.67,3.19,5.73,6.76l.36-.08-4.33-9.18A128.66,128.66,0,0,0,335.69,214c7-6.31,7.95-11,7.95-11s4.8,7.37,6.69,8.52,2.64,1.56,2.64,1.56l2.55,4.89S356.38,217.86,356,216.52Z" style="fill:#263238;stroke:#263238;stroke-linecap:round;stroke-linejoin:round"></path><path d="M330.27,229.65s.09-1.93,3.88-2.25" style="fill:none;stroke:#263238;stroke-linecap:round;stroke-linejoin:round"></path><path d="M332,221.93s-5.16.51-4.48,5.64" style="fill:none;stroke:#263238;stroke-linecap:round;stroke-linejoin:round;stroke-width:2px"></path><path d="M338.4,217.44s-.11-4.85,7.23-4.6" style="fill:none;stroke:#263238;stroke-linecap:round;stroke-linejoin:round;stroke-width:2px"></path><path d="M345.94,220.59c.47.62.55,1.35.19,1.63s-1.05,0-1.52-.63-.55-1.35-.19-1.63S345.47,220,345.94,220.59Z" style="fill:#263238"></path><path d="M338.31,230s2.45,4,3.93,4.7,4.79-.63,5.45-3.5" style="fill:none;stroke:#263238;stroke-linecap:round;stroke-linejoin:round"></path><path d="M344.43,239.44s6.19-1.86,7.72-7.45" style="fill:none;stroke:#263238;stroke-linecap:round;stroke-linejoin:round"></path><path d="M368.78,201.22s-4.23.91-6.55,3.13a49.91,49.91,0,0,0-5.09,6.23l-.59.78s2.85,17.72,4.17,21.19,7.81,9.07,9.85,10,4.46,2.2,6.68,1.9,7.9-6.08,10.47-9a11.93,11.93,0,0,0,2.95-8,70,70,0,0,0-3.22-11.23,18.07,18.07,0,0,0-9.17-8.89A42.63,42.63,0,0,1,368.78,201.22Z" style="fill:#fff;stroke:#263238;stroke-linecap:round;stroke-linejoin:round"></path><path d="M367.39,227.68s1.68,2.21,3.94.87" style="fill:none;stroke:#263238;stroke-linecap:round;stroke-linejoin:round"></path><path d="M367.05,231.72a5.25,5.25,0,0,0,4.61.62c2.66-.88,7.28-5.49,7.28-5.49" style="fill:none;stroke:#263238;stroke-linecap:round;stroke-linejoin:round"></path><path d="M376.94,228.86s-1,5.52-2.49,6.24-4.46-2.2-4.46-2.2S372.79,233.06,376.94,228.86Z" style="fill:#fff;stroke:#263238;stroke-linecap:round;stroke-linejoin:round"></path><path d="M373.86,218.65a4.92,4.92,0,0,1,5.42-1.06" style="fill:none;stroke:#263238;stroke-linecap:round;stroke-linejoin:round"></path><path d="M360.48,221.45s1.32-1.91,4.43-.75" style="fill:none;stroke:#263238;stroke-linecap:round;stroke-linejoin:round"></path><path d="M372,212.63s2.57-2.95,7.27-.26" style="fill:none;stroke:#263238;stroke-linecap:round;stroke-linejoin:round"></path><path d="M364.69,213.77a4.09,4.09,0,0,0-5.48,3.33" style="fill:none;stroke:#263238;stroke-linecap:round;stroke-linejoin:round"></path><path d="M351.42,375.13s-4.56,3.62-13.93,14.08-10.61,18.86-11.22,23.13a63.06,63.06,0,0,0-.06,11.09L412.84,412S405.76,379.9,395,374.27s-25.5-5-25.5-5S359.52,369,351.42,375.13Z" style="fill:#263238;stroke:#263238;stroke-linecap:round;stroke-linejoin:round"></path><path d="M399.84,364.23a148.58,148.58,0,0,0-17.26-3.61c-8.72-1.2-17.28,6.47-18.3,7.61s5.48,1.43,10.48,2.45a69.71,69.71,0,0,1,9,2.47,118.34,118.34,0,0,0,2.11,21.29,132.5,132.5,0,0,1,2.43,21L437,409s4.44-13.51,3.7-25.5-5.3-16.09-11.48-19.64S399.84,364.23,399.84,364.23Z" style="fill:#FF725E;stroke:#263238;stroke-linecap:round;stroke-linejoin:round"></path><polygon points="382.45 376.25 389.36 384.07 380.33 383.08 382.45 376.25" style="fill:#fff;stroke:#263238;stroke-linecap:round;stroke-linejoin:round"></polygon><path d="M374,368.13l8.45,8.12-2.28,13.23s-4.59-6.79-5.69-11.34A33.72,33.72,0,0,1,374,368.13Z" style="fill:#fff;stroke:#263238;stroke-linecap:round;stroke-linejoin:round"></path><path d="M349.2,357s3.82,9.9,4.41,14.36,1,6.57,1,6.57S367.4,384.27,372,387s8.19,4.8,8.22,2.45-3.35-10.14-4.13-16.08.21-18.83.21-18.83-6.05,6.34-11,7S349.2,357,349.2,357Z" style="fill:#fff;stroke:#263238;stroke-linecap:round;stroke-linejoin:round"></path><path d="M365.25,361.56c-1.81.24-4.45-.32-7.06-1.11l-7.48.65a64,64,0,0,1,2.9,10.22c.05.4.1.76.15,1.12a43.61,43.61,0,0,0,7.83-1.1c5.45-1.32,12.33-3.52,14.15-4.11v-.5l-7.94-5.93A9.85,9.85,0,0,1,365.25,361.56Z" style="fill:#263238;stroke:#263238;stroke-linecap:round;stroke-linejoin:round"></path><polygon points="351.89 371.04 369.93 380.58 377.55 389.99 367.84 386.4 364.55 394.55 347.9 376.43 351.89 371.04" style="fill:#fff;stroke:#263238;stroke-linecap:round;stroke-linejoin:round"></polygon><line x1="367.84" y1="386.4" x2="369.93" y2="380.58" style="fill:#fff;stroke:#263238;stroke-linecap:round;stroke-linejoin:round"></line><path d="M397.73,360.73s-1,6.93-2.05,9.25-.12,7.37,12.87,6.75,11.93-14.91,11.93-14.91l-9.63-13.16S402.84,358.15,397.73,360.73Z" style="fill:#fff;stroke:#263238;stroke-linecap:round;stroke-linejoin:round"></path><path d="M397.32,363.78a13.43,13.43,0,0,1,2.84,5.07" style="fill:#fff;stroke:#263238;stroke-linecap:round;stroke-linejoin:round"></path><path d="M434.93,390.25c-9,6.64-33,23-35.22,24.23-2.73,1.53-6.42,1.31-8.79.82s-8.15-4.06-8.15-4.06-3.12.56-3.65.27a3,3,0,0,1-.91-1.1l-.84-2.27a7.6,7.6,0,0,0-2.55-.65c-1.34-.07-2.52-2.48-2.52-2.48a6.87,6.87,0,0,1-2.51,0c-1.85-.2-3.17-2.27-3.17-2.27L344.71,382l-3.68-2.4s2.21-6.17,2.7-6.21,6.07,3.05,6.07,3.05,18.84,8.61,20.23,9.34a39.28,39.28,0,0,0,5.47,1.76,13.68,13.68,0,0,1,3.1-.9l1.16-.09.41,1,3.36.24,2,2s3.39-1.59,4.44-1a14.86,14.86,0,0,1,2.7,2.63l1.66-.12a6.75,6.75,0,0,1,2,.51s19-16.65,23.12-19.58" style="fill:#fff;stroke:#263238;stroke-linecap:round;stroke-linejoin:round"></path><path d="M417.59,373.73c-6.23,5-21.24,18.13-21.24,18.13a6.75,6.75,0,0,0-2-.51l-1.66.12a14.86,14.86,0,0,0-2.7-2.63c-1.05-.59-4.44,1-4.44,1l-2-2-3.36-.24-.41-1-1.16.09a13.68,13.68,0,0,0-3.1.9,39.28,39.28,0,0,1-5.47-1.76c-.24-.12-1-.48-2-1-6.66,3.09-9.07,7.14-9.94,9.79l8.58,8.12s1.32,2.07,3.17,2.27a6.87,6.87,0,0,0,2.51,0s1.18,2.41,2.52,2.48a7.6,7.6,0,0,1,2.55.65l.84,2.27a3,3,0,0,0,.91,1.1c.53.29,3.65-.27,3.65-.27s5.78,3.57,8.15,4.06,6.06.71,8.79-.82c2.29-1.3,27.56-18.48,35.9-24.73" style="fill:#FF725E;stroke:#263238;stroke-linecap:round;stroke-linejoin:round"></path><path d="M331.33,380.62s-4,7.58-4.55,8.83,1.79,2.11,1.79,2.11l3.79,2s2.47-1.67,2.94-1.9a5.19,5.19,0,0,0,1.61-3.06c-.11-.83-.21-1.65-.21-1.65s1.49-1.37,2.68-2.54-.34-5.16-1.11-5.89S333.08,377.37,331.33,380.62Z" style="fill:#fff;stroke:#263238;stroke-linecap:round;stroke-linejoin:round"></path><path d="M336,384s-1.54,2.39-2.09,3.3a18.56,18.56,0,0,1-2.67,2.7" style="fill:none;stroke:#263238;stroke-linecap:round;stroke-linejoin:round"></path><path d="M333.34,388.25s1.84,1.27,1.93,1.93-.89,2.13-.89,2.13" style="fill:none;stroke:#263238;stroke-linecap:round;stroke-linejoin:round"></path><path d="M334.42,386.26s2.65,1,2.49,2.36" style="fill:none;stroke:#263238;stroke-linecap:round;stroke-linejoin:round"></path><path d="M332.78,375.06s-3,2.75-2.84,3.9,3.29,4.6,5.53,6.32,3,.27,3.84-.17,0-1.17-1.78-3.29S332.78,375.06,332.78,375.06Z" style="fill:#fff;stroke:#263238;stroke-linecap:round;stroke-linejoin:round"></path><path d="M335.3,372.55a2.59,2.59,0,0,0-2.52,2.51c-.33,2.56,2.57,5.54,4.09,6.85a9.69,9.69,0,0,0,4.16,2.31c.85,0,.82-1.45.82-1.45s-4-6-4.63-7.12S335.3,372.55,335.3,372.55Z" style="fill:#fff;stroke:#263238;stroke-linecap:round;stroke-linejoin:round"></path><path d="M342.9,369a26.2,26.2,0,0,1,4.34,1.11c1.08.53,5.08,4.2,5,6.22s-1.85-.09-2.54-.17-2.9-3-2.9-3l-2,.09Z" style="fill:#fff;stroke:#263238;stroke-linecap:round;stroke-linejoin:round"></path><path d="M339.33,370s-2.82.21-3.95,1.87,4.9,10.43,6.47,10.9a1.6,1.6,0,0,0,2.06-.95Z" style="fill:#fff;stroke:#263238;stroke-linecap:round;stroke-linejoin:round"></path><path d="M344,370.74s2.84,8.86,2.79,9.7-2.84,1.38-2.84,1.38-4.79-9.61-4.58-11.82S342.85,367.36,344,370.74Z" style="fill:#fff;stroke:#263238;stroke-linecap:round;stroke-linejoin:round"></path><path d="M388.86,322.93s-5.18,6.9-4.87,9.24a34.9,34.9,0,0,1,.25,7.91,71.07,71.07,0,0,1-3,7.54s-.63,1.27,0,1.85l1.21,1.17s.14,2.1.31,3.4.76,3.74.83,4.26,1.92,2.52,2.3,3.4.64,3.89,2.32,4.59,6.1-.93,8.08-2,8.21-6,8.21-6,3.55-3.25,3.15-7.3-1.48-14.23-5.41-19-8.91-10.34-9.09-10.72S389.91,320.8,388.86,322.93Z" style="fill:#fff;stroke:#263238;stroke-linecap:round;stroke-linejoin:round"></path><path d="M387.42,341.32l-.52,1.32s1.22.81,4.39-.3" style="fill:none;stroke:#263238;stroke-linecap:round;stroke-linejoin:round"></path><path d="M386.73,336s1.76-1.34,5.28,1.24" style="fill:none;stroke:#263238;stroke-linecap:round;stroke-linejoin:round"></path><path d="M376.22,329.27l0,0c.22-.43,3.33-6.3,3.47-7.31s-7-7-15.15-7-21.24,4-26.68,10.26-5.5,18.77-3.42,21.58a17.73,17.73,0,0,0,5.58,4.55s5.82,6.43,6.36,7.24,3.33,5.87,5.56,6.61,4.49.58,5.53-.14a4.34,4.34,0,0,0,1.41-2.24l-.95-3s4.85-.93,5.67-3.39-1.51-7.14-.1-9.38,8.62-8,11.19-10.13Z" style="fill:#263238;stroke:#263238;stroke-linecap:round;stroke-linejoin:round"></path><path d="M376.22,329.27s3.33,5.39,3.58,7.23l.72,5.52s4.52,5.36,5.22,6.1-.24,2.74-.24,2.74l-1,1.26a3.75,3.75,0,0,0-.3,2.32l.34,1,.24,1.84a3.49,3.49,0,0,1,1,1.45c.34,2.56,2,4.2-.45,6.2a16.15,16.15,0,0,1-7.8,3.09,42.69,42.69,0,0,1-14.68-1.19c-3.36-1-6-4.41-6-4.41s-5.74-.71-8.59-2.41-1.16-8.8,2.67-8.88,7,4.07,7,4.07l2.31.74-1.91-5.37a22,22,0,0,0,5-9.19S372.26,337.49,376.22,329.27Z" style="fill:#fff;stroke:#263238;stroke-linecap:round;stroke-linejoin:round"></path><path d="M369.06,343.74a6.06,6.06,0,0,1,5.38-4.52" style="fill:none;stroke:#263238;stroke-linecap:round;stroke-linejoin:round;stroke-width:2px"></path><path d="M374.55,343.31l1.11,1.91s0,1.91-3.45,1.92" style="fill:none;stroke:#263238;stroke-linecap:round;stroke-linejoin:round"></path><path d="M443.59,357.66a11.14,11.14,0,0,0-.79-1.53,23.2,23.2,0,0,0-3.41-4.24,18.45,18.45,0,0,0-2.85-2.61c-1.64-1.35-3-2.27-3.87-3.1a10.09,10.09,0,0,1-1-3.83c-.74-6.66-1.17-16.69-6.11-21.07s-17.56-8.68-25.08-6.5-15.45,5.34-11.64,8.15c0,0,2.78,1,3.58,5.08a13.93,13.93,0,0,0,5.73,9.31c3.06,2.11,4.87,8.89,2.72,13.67s-2.12,12.06.45,14.5a14.11,14.11,0,0,0,2.68,1.87l-.08.06s5.7,3.86,6.15,7.26-4.71,3.7-4.3,8.26,4.71,8,7.91,9a21.45,21.45,0,0,0,6.62.66s-3.16-2.08-1.78-4.76,10.31-3.47,16.45-5.05,10.32-9.24,10.16-16.33A22.2,22.2,0,0,0,443.59,357.66Z" style="fill:#263238;stroke:#263238;stroke-linecap:round;stroke-linejoin:round"></path><path d="M270.7,46.27,321.29,431l135.87-17.86L406.57,28.41ZM449.13,407.4l-121.57,16L311.89,304.2l121.57-16ZM432.77,283,311.2,299,295.53,179.77l121.57-16ZM416.41,158.55l-121.57,16L279.17,55.35l121.57-16Z" style="fill:#fff;stroke:#263238;stroke-linecap:round;stroke-linejoin:round"></path></g><g id="freepik--photo-booth--inject-2"><rect x="185.99" y="219.89" width="109.66" height="248.36" style="fill:#8f8f8f;stroke:#263238;stroke-linecap:round;stroke-linejoin:round"></rect><rect x="275.33" y="383.67" width="12.33" height="82.33" style="fill:#696969;stroke:#263238;stroke-linecap:round;stroke-linejoin:round"></rect><polygon points="253.92 380.78 244.96 444.17 252.45 445.6 268.04 390.1 277.57 382.24 253.92 380.78" style="fill:#263238;stroke:#263238;stroke-linecap:round;stroke-linejoin:round"></polygon><path d="M244.61,443.23s-5.83,5.82-8.53,7.43a29.88,29.88,0,0,1-3.6,1.95s-10.68,1.79-11.14,3.22,0,3,.8,3.44,7.6,1.36,12.54,1.61,11.2-.69,14.75.17,4.65-1.7,4.85-3.54-1.8-12.42-1.8-12.42Z" style="fill:#fff;stroke:#263238;stroke-linecap:round;stroke-linejoin:round"></path><path d="M249.43,461.05c3.55.86,4.65-1.7,4.85-3.54v-.07c-.43.05-.88.11-1.37.2a79.87,79.87,0,0,1-16.27,1.11,142,142,0,0,1-15.45-2.11,2.85,2.85,0,0,0,.95,2.63c.75.43,7.6,1.36,12.54,1.61S245.88,460.19,249.43,461.05Z" style="fill:#fff;stroke:#263238;stroke-linecap:round;stroke-linejoin:round"></path><path d="M269.57,380.53l-33.23,64,6.89,3s31.26-40.63,33.24-43.65,13.88-16.76,13.88-16.76Z" style="fill:#263238;stroke:#263238;stroke-linecap:round;stroke-linejoin:round"></path><path d="M236.34,444.52a64,64,0,0,1-7.49,3.78c-3.45,1.39-13.75,4-14.18,7.36s6.2,6,12.18,6.36S239.31,458,239.31,458l3.92-10.49Z" style="fill:#fff;stroke:#263238;stroke-linecap:round;stroke-linejoin:round"></path><path d="M215.14,454.59a2.25,2.25,0,0,0-.47,1.07c-.44,3.37,6.2,6,12.18,6.36S239.31,458,239.31,458l1.39-3.71c-2.16,1.17-9.47,4.9-14.74,4.85C221.22,459.06,216.94,456.05,215.14,454.59Z" style="fill:#fff;stroke:#263238;stroke-linecap:round;stroke-linejoin:round"></path><path d="M242.56,379.55S227.39,396,228,398.62,242.26,452,242.26,452l8.09-.37L247,399.85l16.25-17.16Z" style="fill:#fff;stroke:#263238;stroke-linecap:round;stroke-linejoin:round"></path><path d="M242.31,451s-5.84,7.26-7.44,8-7.73,3.26-8.56,4.26.67,2.12.67,2.12,25.26.5,26.31.29-2.94-14-2.94-14Z" style="fill:#FF725E;stroke:#263238;stroke-linecap:round;stroke-linejoin:round"></path><path d="M226.31,463.17c-.83,1,.67,2.12.67,2.12s25.26.5,26.31.29c.31-.06.18-1.33-.16-3.07l-26.68.53A.89.89,0,0,0,226.31,463.17Z" style="fill:#fff;stroke:#263238;stroke-linecap:round;stroke-linejoin:round"></path><path d="M252.13,381.54s-15,11.7-15.28,16.29-16.25,48.4-17,51,7.62,5,7.62,5,11.58-21.07,17.18-28,13.22-27.55,13.22-27.55l35.63-16.57Z" style="fill:#fff;stroke:#263238;stroke-linecap:round;stroke-linejoin:round"></path><path d="M219.82,448.82l-20.32-.67s-4.22-.21-1.93,2.32,24,15.71,24,15.71l5.91-12.38Z" style="fill:#FF725E;stroke:#263238;stroke-linecap:round;stroke-linejoin:round"></path><path d="M222.81,463.51,199,448.15c-1.05,0-3.2.35-1.42,2.32,2.29,2.53,24,15.71,24,15.71Z" style="fill:#fff;stroke:#263238;stroke-linecap:round;stroke-linejoin:round"></path><path d="M192.91,228.69V391.06a49.83,49.83,0,0,1,22,.5c15.56,3.69,19.44,4.92,36.3.62s20.09-3.07,35.65,0a55.92,55.92,0,0,0,9.72,1.08V228.69Z" style="fill:#263238;stroke:#263238;stroke-miterlimit:10"></path><line x1="208.09" y1="248.07" x2="208" y2="251.72" style="fill:none;stroke:#a3a3a3;stroke-linecap:round;stroke-linejoin:round"></line><line x1="208.45" y1="232.87" x2="208.16" y2="244.96" style="fill:none;stroke:#a3a3a3;stroke-linecap:round;stroke-linejoin:round"></line><line x1="211.49" y1="334.95" x2="211.59" y2="338.16" style="fill:none;stroke:#a3a3a3;stroke-linecap:round;stroke-linejoin:round"></line><line x1="210.25" y1="235.56" x2="211.43" y2="330.23" style="fill:none;stroke:#a3a3a3;stroke-linecap:round;stroke-linejoin:round"></line><line x1="227.75" y1="245.84" x2="227.75" y2="249.48" style="fill:none;stroke:#a3a3a3;stroke-linecap:round;stroke-linejoin:round"></line><line x1="227.75" y1="233.32" x2="227.75" y2="241.39" style="fill:none;stroke:#a3a3a3;stroke-linecap:round;stroke-linejoin:round"></line><line x1="244.81" y1="341.32" x2="244.81" y2="357.12" style="fill:none;stroke:#a3a3a3;stroke-linecap:round;stroke-linejoin:round"></line><line x1="244.81" y1="277.77" x2="244.81" y2="330.56" style="fill:none;stroke:#a3a3a3;stroke-linecap:round;stroke-linejoin:round"></line><line x1="244.81" y1="234.22" x2="244.81" y2="273.74" style="fill:none;stroke:#a3a3a3;stroke-linecap:round;stroke-linejoin:round"></line><line x1="249.81" y1="248.98" x2="250.19" y2="251.27" style="fill:none;stroke:#a3a3a3;stroke-linecap:round;stroke-linejoin:round"></line><line x1="247.5" y1="235.11" x2="249.44" y2="246.74" style="fill:none;stroke:#a3a3a3;stroke-linecap:round;stroke-linejoin:round"></line><line x1="259.84" y1="261.17" x2="259.62" y2="265.19" style="fill:none;stroke:#a3a3a3;stroke-linecap:round;stroke-linejoin:round"></line><line x1="261.41" y1="232.87" x2="260.05" y2="257.39" style="fill:none;stroke:#a3a3a3;stroke-linecap:round;stroke-linejoin:round"></line><line x1="267.24" y1="240.68" x2="269.04" y2="248.13" style="fill:none;stroke:#a3a3a3;stroke-linecap:round;stroke-linejoin:round"></line><line x1="265.45" y1="233.32" x2="266.8" y2="238.85" style="fill:none;stroke:#a3a3a3;stroke-linecap:round;stroke-linejoin:round"></line><line x1="278.75" y1="262.74" x2="275.36" y2="313.41" style="fill:none;stroke:#a3a3a3;stroke-linecap:round;stroke-linejoin:round"></line><line x1="280.27" y1="235.11" x2="278.96" y2="258.97" style="fill:none;stroke:#a3a3a3;stroke-linecap:round;stroke-linejoin:round"></line><line x1="284.63" y1="247.65" x2="285.2" y2="253.97" style="fill:none;stroke:#a3a3a3;stroke-linecap:round;stroke-linejoin:round"></line><line x1="283.86" y1="239.15" x2="284.45" y2="245.68" style="fill:none;stroke:#a3a3a3;stroke-linecap:round;stroke-linejoin:round"></line><rect x="207.36" y="222.15" width="3.51" height="7.73" style="fill:#fff;stroke:#263238;stroke-linecap:round;stroke-linejoin:round"></rect><rect x="225.28" y="222.15" width="3.51" height="7.73" style="fill:#fff;stroke:#263238;stroke-linecap:round;stroke-linejoin:round"></rect><rect x="243.2" y="222.15" width="3.51" height="7.73" style="fill:#fff;stroke:#263238;stroke-linecap:round;stroke-linejoin:round"></rect><rect x="261.12" y="222.15" width="3.51" height="7.73" style="fill:#fff;stroke:#263238;stroke-linecap:round;stroke-linejoin:round"></rect><rect x="279.04" y="222.15" width="3.51" height="7.73" style="fill:#fff;stroke:#263238;stroke-linecap:round;stroke-linejoin:round"></rect><rect x="79" y="179" width="74" height="292" style="fill:#263238;stroke:#263238;stroke-linecap:round;stroke-linejoin:round"></rect><path d="M109,179V471H300V179ZM293,466H197V224h96Z" style="fill:#fff;stroke:#263238;stroke-linecap:round;stroke-linejoin:round"></path><rect x="115" y="184" width="179" height="33" style="fill:#fff;stroke:#263238;stroke-linecap:round;stroke-linejoin:round"></rect><rect x="115" y="225.08" width="73.95" height="146.31" style="fill:#fff;stroke:#263238;stroke-linecap:round;stroke-linejoin:round"></rect><line x1="123.69" y1="306.63" x2="139.74" y2="306.63" style="fill:none;stroke:#263238;stroke-linecap:round;stroke-linejoin:round"></line><line x1="123.69" y1="312.08" x2="139.74" y2="312.08" style="fill:none;stroke:#263238;stroke-linecap:round;stroke-linejoin:round"></line><line x1="123.69" y1="317.53" x2="139.74" y2="317.53" style="fill:none;stroke:#263238;stroke-linecap:round;stroke-linejoin:round"></line><line x1="123.69" y1="322.98" x2="139.74" y2="322.98" style="fill:none;stroke:#263238;stroke-linecap:round;stroke-linejoin:round"></line><line x1="123.69" y1="328.44" x2="139.74" y2="328.44" style="fill:none;stroke:#263238;stroke-linecap:round;stroke-linejoin:round"></line><line x1="123.69" y1="333.89" x2="139.74" y2="333.89" style="fill:none;stroke:#263238;stroke-linecap:round;stroke-linejoin:round"></line><line x1="123.69" y1="339.34" x2="139.74" y2="339.34" style="fill:none;stroke:#263238;stroke-linecap:round;stroke-linejoin:round"></line><line x1="123.69" y1="344.79" x2="139.74" y2="344.79" style="fill:none;stroke:#263238;stroke-linecap:round;stroke-linejoin:round"></line><line x1="123.69" y1="350.24" x2="139.74" y2="350.24" style="fill:none;stroke:#263238;stroke-linecap:round;stroke-linejoin:round"></line><line x1="123.69" y1="355.69" x2="139.74" y2="355.69" style="fill:none;stroke:#263238;stroke-linecap:round;stroke-linejoin:round"></line><line x1="143.75" y1="306.63" x2="159.81" y2="306.63" style="fill:none;stroke:#263238;stroke-linecap:round;stroke-linejoin:round"></line><line x1="143.75" y1="312.08" x2="159.81" y2="312.08" style="fill:none;stroke:#263238;stroke-linecap:round;stroke-linejoin:round"></line><line x1="143.75" y1="317.53" x2="159.81" y2="317.53" style="fill:none;stroke:#263238;stroke-linecap:round;stroke-linejoin:round"></line><line x1="143.75" y1="322.98" x2="159.81" y2="322.98" style="fill:none;stroke:#263238;stroke-linecap:round;stroke-linejoin:round"></line><line x1="143.75" y1="328.44" x2="159.81" y2="328.44" style="fill:none;stroke:#263238;stroke-linecap:round;stroke-linejoin:round"></line><line x1="143.75" y1="333.89" x2="159.81" y2="333.89" style="fill:none;stroke:#263238;stroke-linecap:round;stroke-linejoin:round"></line><line x1="143.75" y1="339.34" x2="159.81" y2="339.34" style="fill:none;stroke:#263238;stroke-linecap:round;stroke-linejoin:round"></line><line x1="143.75" y1="344.79" x2="159.81" y2="344.79" style="fill:none;stroke:#263238;stroke-linecap:round;stroke-linejoin:round"></line><line x1="143.75" y1="350.24" x2="159.81" y2="350.24" style="fill:none;stroke:#263238;stroke-linecap:round;stroke-linejoin:round"></line><line x1="143.75" y1="355.69" x2="159.81" y2="355.69" style="fill:none;stroke:#263238;stroke-linecap:round;stroke-linejoin:round"></line><line x1="163.82" y1="306.63" x2="179.87" y2="306.63" style="fill:none;stroke:#263238;stroke-linecap:round;stroke-linejoin:round"></line><line x1="163.82" y1="312.08" x2="179.87" y2="312.08" style="fill:none;stroke:#263238;stroke-linecap:round;stroke-linejoin:round"></line><line x1="163.82" y1="317.53" x2="179.87" y2="317.53" style="fill:none;stroke:#263238;stroke-linecap:round;stroke-linejoin:round"></line><line x1="163.82" y1="322.98" x2="179.87" y2="322.98" style="fill:none;stroke:#263238;stroke-linecap:round;stroke-linejoin:round"></line><line x1="163.82" y1="328.44" x2="179.87" y2="328.44" style="fill:none;stroke:#263238;stroke-linecap:round;stroke-linejoin:round"></line><line x1="163.82" y1="333.89" x2="179.87" y2="333.89" style="fill:none;stroke:#263238;stroke-linecap:round;stroke-linejoin:round"></line><line x1="163.82" y1="339.34" x2="179.87" y2="339.34" style="fill:none;stroke:#263238;stroke-linecap:round;stroke-linejoin:round"></line><line x1="163.82" y1="344.79" x2="179.87" y2="344.79" style="fill:none;stroke:#263238;stroke-linecap:round;stroke-linejoin:round"></line><line x1="163.82" y1="350.24" x2="179.87" y2="350.24" style="fill:none;stroke:#263238;stroke-linecap:round;stroke-linejoin:round"></line><line x1="163.82" y1="355.69" x2="179.87" y2="355.69" style="fill:none;stroke:#263238;stroke-linecap:round;stroke-linejoin:round"></line><rect x="115" y="225.08" width="73.95" height="67.94" style="fill:#FF725E;stroke:#263238;stroke-linecap:round;stroke-linejoin:round"></rect><rect x="124.36" y="233.68" width="55.23" height="50.74" style="fill:#fff;stroke:#263238;stroke-linecap:round;stroke-linejoin:round"></rect><path d="M169.27,186.89c4,0,5.76,2.39,5.76,6.27v3.08c0,4.08-1.91,6.2-6,6.2h-2.53v10.13h-2.86V186.89Zm-.22,13c2.13,0,3.15-1,3.15-3.45V193c0-2.35-.84-3.52-2.93-3.52h-2.75v10.38Z" style="fill:#263238"></path><path d="M180.24,201v11.56h-2.87V186.89h2.87v11.56h6.3V186.89h2.87v25.68h-2.87V201Z" style="fill:#263238"></path><path d="M192.12,193.09c0-3.93,1.94-6.46,5.87-6.46s5.91,2.53,5.91,6.46v13.28c0,3.89-2,6.46-5.91,6.46s-5.87-2.57-5.87-6.46Zm2.82,13.43c0,2.34,1,3.7,3.05,3.7s3-1.36,3-3.7V192.94c0-2.31-.95-3.7-3-3.7s-3.05,1.39-3.05,3.7Z" style="fill:#263238"></path><path d="M210.35,212.57V189.5h-4.73v-2.61h12.32v2.61h-4.73v23.07Z" style="fill:#263238"></path><path d="M219.7,193.09c0-3.93,2-6.46,5.87-6.46s5.91,2.53,5.91,6.46v13.28c0,3.89-1.94,6.46-5.91,6.46s-5.87-2.57-5.87-6.46Zm2.83,13.43c0,2.34,1,3.7,3,3.7s3.05-1.36,3.05-3.7V192.94c0-2.31-1-3.7-3.05-3.7s-3,1.39-3,3.7Z" style="fill:#263238"></path><path d="M245.31,193.05v.7h-2.72v-.84c0-2.31-.88-3.67-2.93-3.67s-2.94,1.36-2.94,3.63c0,5.76,8.62,6.31,8.62,13.54,0,3.88-1.87,6.42-5.79,6.42s-5.76-2.54-5.76-6.42v-1.47h2.68v1.61c0,2.31.95,3.67,3,3.67s3-1.36,3-3.67c0-5.72-8.58-6.27-8.58-13.5,0-4,1.83-6.42,5.69-6.42S245.31,189.16,245.31,193.05Z" style="fill:#263238"></path><rect x="131.24" y="238.63" width="8.9" height="10.02" style="fill:#263238"></rect><rect x="131.24" y="253.66" width="8.9" height="10.02" style="fill:#263238"></rect><rect x="131.24" y="268.69" width="8.9" height="10.02" style="fill:#263238"></rect><rect x="147.14" y="238.63" width="8.9" height="10.02" style="fill:#263238"></rect><rect x="147.14" y="253.66" width="8.9" height="10.02" style="fill:#263238"></rect><rect x="147.14" y="268.69" width="8.9" height="10.02" style="fill:#263238"></rect><rect x="163.04" y="238.63" width="8.9" height="10.02" style="fill:#263238"></rect><rect x="163.04" y="253.66" width="8.9" height="10.02" style="fill:#263238"></rect><rect x="163.04" y="268.69" width="8.9" height="10.02" style="fill:#263238"></rect><rect x="124.78" y="419.27" width="30.53" height="23.53" style="fill:#263238"></rect><path d="M293,296.79V466H197V372.16c-10.07,8.93-19.37,16.66-27.06,21.67C149,407.5,123.51,412,109,413.46V471H300V294.53Q296.81,295.52,293,296.79Z" style="fill:#FF725E;stroke:#263238;stroke-linecap:round;stroke-linejoin:round"></path></g><g id="freepik--Plant--inject-2"><line x1="37.49" y1="292.24" x2="51.59" y2="427.34" style="fill:none;stroke:#263238;stroke-miterlimit:10;stroke-width:2px"></line><line x1="49.31" y1="401.49" x2="42.92" y2="394.74" style="fill:none;stroke:#263238;stroke-miterlimit:10;stroke-width:2px"></line><path d="M44.86,396.76a7.2,7.2,0,0,0-2.54-5.42c-1.64-1.47-10.27-5.1-11.09-2.06C30.33,392.59,39.17,399.09,44.86,396.76Z" style="fill:#FF725E;stroke:#263238;stroke-miterlimit:10"></path><line x1="44.86" y1="396.76" x2="36.64" y2="391.64" style="fill:none;stroke:#263238;stroke-miterlimit:10;stroke-width:0.5px"></line><line x1="50.92" y1="416.85" x2="44.53" y2="410.1" style="fill:none;stroke:#263238;stroke-miterlimit:10;stroke-width:2px"></line><path d="M46.47,412.13a7.26,7.26,0,0,0-2.55-5.43c-1.64-1.46-10.27-5.09-11.09-2.05C31.94,408,40.78,414.45,46.47,412.13Z" style="fill:#FF725E;stroke:#263238;stroke-miterlimit:10"></path><line x1="46.47" y1="412.13" x2="38.25" y2="407" style="fill:none;stroke:#263238;stroke-miterlimit:10;stroke-width:0.5px"></line><line x1="45.4" y1="364" x2="39.01" y2="357.24" style="fill:none;stroke:#263238;stroke-miterlimit:10;stroke-width:2px"></line><path d="M41,359.27a7.25,7.25,0,0,0-2.54-5.42c-1.64-1.47-10.28-5.1-11.1-2.06C26.42,355.1,35.26,361.59,41,359.27Z" style="fill:#FF725E;stroke:#263238;stroke-miterlimit:10"></path><line x1="40.95" y1="359.27" x2="32.73" y2="354.15" style="fill:none;stroke:#263238;stroke-miterlimit:10;stroke-width:0.5px"></line><line x1="47" y1="379.36" x2="40.61" y2="372.61" style="fill:none;stroke:#263238;stroke-miterlimit:10;stroke-width:2px"></line><path d="M42.56,374.63A7.25,7.25,0,0,0,40,369.21c-1.64-1.46-10.27-5.1-11.09-2.06C28,370.46,36.86,377,42.56,374.63Z" style="fill:#FF725E;stroke:#263238;stroke-miterlimit:10"></path><line x1="42.56" y1="374.63" x2="34.33" y2="369.51" style="fill:none;stroke:#263238;stroke-miterlimit:10;stroke-width:0.5px"></line><line x1="42.8" y1="339.04" x2="36.4" y2="332.29" style="fill:none;stroke:#263238;stroke-miterlimit:10;stroke-width:2px"></line><path d="M38.35,334.31a7.23,7.23,0,0,0-2.55-5.42c-1.64-1.47-10.27-5.1-11.09-2.06C23.82,330.14,32.65,336.63,38.35,334.31Z" style="fill:#FF725E;stroke:#263238;stroke-miterlimit:10"></path><line x1="38.35" y1="334.31" x2="30.13" y2="329.19" style="fill:none;stroke:#263238;stroke-miterlimit:10;stroke-width:0.5px"></line><line x1="40.18" y1="313.97" x2="33.79" y2="307.22" style="fill:none;stroke:#263238;stroke-miterlimit:10;stroke-width:2px"></line><path d="M35.73,309.24a7.25,7.25,0,0,0-2.54-5.42c-1.64-1.47-10.28-5.1-11.1-2.06C21.2,305.07,30,311.56,35.73,309.24Z" style="fill:#FF725E;stroke:#263238;stroke-miterlimit:10"></path><line x1="35.73" y1="309.24" x2="27.51" y2="304.12" style="fill:none;stroke:#263238;stroke-miterlimit:10;stroke-width:0.5px"></line><line x1="48.24" y1="392.4" x2="53.1" y2="384.47" style="fill:none;stroke:#263238;stroke-miterlimit:10;stroke-width:2px"></line><path d="M51.62,386.85A7.22,7.22,0,0,1,53,381c1.3-1.77,9-7.11,10.43-4.3C65,379.77,57.67,388,51.62,386.85Z" style="fill:#FF725E;stroke:#263238;stroke-miterlimit:10"></path><line x1="51.62" y1="386.85" x2="59.02" y2="379.78" style="fill:none;stroke:#263238;stroke-miterlimit:10;stroke-width:0.5px"></line><line x1="44.02" y1="351.97" x2="48.88" y2="344.04" style="fill:none;stroke:#263238;stroke-miterlimit:10;stroke-width:2px"></line><path d="M47.4,346.42a7.22,7.22,0,0,1,1.37-5.83c1.3-1.77,9-7.11,10.43-4.3C60.75,339.34,53.45,347.52,47.4,346.42Z" style="fill:#FF725E;stroke:#263238;stroke-miterlimit:10"></path><line x1="47.4" y1="346.42" x2="54.8" y2="339.34" style="fill:none;stroke:#263238;stroke-miterlimit:10;stroke-width:0.5px"></line><line x1="42.17" y1="334.2" x2="47.03" y2="326.27" style="fill:none;stroke:#263238;stroke-miterlimit:10;stroke-width:2px"></line><path d="M45.54,328.65a7.26,7.26,0,0,1,1.37-5.83c1.31-1.77,9-7.11,10.43-4.3C58.9,321.57,51.59,329.75,45.54,328.65Z" style="fill:#FF725E;stroke:#263238;stroke-miterlimit:10"></path><line x1="45.54" y1="328.65" x2="52.95" y2="321.58" style="fill:none;stroke:#263238;stroke-miterlimit:10;stroke-width:0.5px"></line><line x1="39.45" y1="308.15" x2="44.31" y2="300.22" style="fill:none;stroke:#263238;stroke-miterlimit:10;stroke-width:2px"></line><path d="M42.82,302.6a7.26,7.26,0,0,1,1.37-5.83c1.31-1.77,9-7.11,10.44-4.3C56.18,295.52,48.87,303.7,42.82,302.6Z" style="fill:#FF725E;stroke:#263238;stroke-miterlimit:10"></path><line x1="42.82" y1="302.6" x2="50.23" y2="295.53" style="fill:none;stroke:#263238;stroke-miterlimit:10;stroke-width:0.5px"></line><path d="M37.37,291.49a7.22,7.22,0,0,1,1.37-5.83c1.3-1.77,9-7.11,10.43-4.3C50.72,284.41,43.42,292.59,37.37,291.49Z" style="fill:#FF725E;stroke:#263238;stroke-miterlimit:10"></path><line x1="37.37" y1="291.49" x2="44.77" y2="284.42" style="fill:none;stroke:#263238;stroke-miterlimit:10;stroke-width:0.5px"></line><path d="M37.8,291.8a7.24,7.24,0,0,1-5.66-2C30.52,288.34,26,280.13,29,279,32.16,277.77,39.53,285.9,37.8,291.8Z" style="fill:#FF725E;stroke:#263238;stroke-miterlimit:10"></path><line x1="37.8" y1="291.8" x2="31.54" y2="283.69" style="fill:none;stroke:#263238;stroke-miterlimit:10;stroke-width:0.5px"></line><line x1="74.68" y1="310.85" x2="60.66" y2="445.96" style="fill:none;stroke:#263238;stroke-miterlimit:10;stroke-width:2px"></line><line x1="63.75" y1="420.19" x2="58.89" y2="412.27" style="fill:none;stroke:#263238;stroke-miterlimit:10;stroke-width:2px"></line><path d="M60.37,414.65A7.21,7.21,0,0,0,59,408.82c-1.3-1.77-9-7.11-10.43-4.3C47,407.57,54.33,415.75,60.37,414.65Z" style="fill:#FF725E;stroke:#263238;stroke-miterlimit:10"></path><line x1="60.37" y1="414.65" x2="53.38" y2="407.94" style="fill:none;stroke:#263238;stroke-miterlimit:10;stroke-width:0.5px"></line><line x1="67.65" y1="382.69" x2="62.78" y2="374.77" style="fill:none;stroke:#263238;stroke-miterlimit:10;stroke-width:2px"></line><path d="M64.26,377.15a7.22,7.22,0,0,0-1.37-5.83c-1.3-1.77-9-7.1-10.43-4.3C50.9,370.08,58.22,378.25,64.26,377.15Z" style="fill:#FF725E;stroke:#263238;stroke-miterlimit:10"></path><line x1="64.26" y1="377.15" x2="57.28" y2="370.45" style="fill:none;stroke:#263238;stroke-miterlimit:10;stroke-width:0.5px"></line><line x1="66.05" y1="398.06" x2="61.19" y2="390.14" style="fill:none;stroke:#263238;stroke-miterlimit:10;stroke-width:2px"></line><path d="M62.67,392.52a7.26,7.26,0,0,0-1.37-5.83c-1.31-1.77-9-7.11-10.44-4.3C49.31,385.44,56.62,393.62,62.67,392.52Z" style="fill:#FF725E;stroke:#263238;stroke-miterlimit:10"></path><line x1="62.67" y1="392.52" x2="55.68" y2="385.81" style="fill:none;stroke:#263238;stroke-miterlimit:10;stroke-width:0.5px"></line><line x1="70.24" y1="357.73" x2="65.37" y2="349.81" style="fill:none;stroke:#263238;stroke-miterlimit:10;stroke-width:2px"></line><path d="M66.85,352.19a7.21,7.21,0,0,0-1.37-5.83c-1.3-1.77-9-7.1-10.43-4.3C53.5,345.12,60.81,353.29,66.85,352.19Z" style="fill:#FF725E;stroke:#263238;stroke-miterlimit:10"></path><line x1="66.85" y1="352.19" x2="59.87" y2="345.48" style="fill:none;stroke:#263238;stroke-miterlimit:10;stroke-width:0.5px"></line><line x1="72.84" y1="332.66" x2="67.97" y2="324.74" style="fill:none;stroke:#263238;stroke-miterlimit:10;stroke-width:2px"></line><path d="M69.46,327.12a7.25,7.25,0,0,0-1.38-5.83c-1.3-1.77-9-7.1-10.43-4.3C56.1,320.05,63.41,328.22,69.46,327.12Z" style="fill:#FF725E;stroke:#263238;stroke-miterlimit:10"></path><line x1="69.46" y1="327.12" x2="62.47" y2="320.41" style="fill:none;stroke:#263238;stroke-miterlimit:10;stroke-width:0.5px"></line><line x1="64.58" y1="411.07" x2="70.96" y2="404.32" style="fill:none;stroke:#263238;stroke-miterlimit:10;stroke-width:2px"></line><path d="M69,406.34a7.25,7.25,0,0,1,2.54-5.42c1.64-1.47,10.28-5.11,11.1-2.07C83.55,402.16,74.72,408.66,69,406.34Z" style="fill:#FF725E;stroke:#263238;stroke-miterlimit:10"></path><line x1="69.02" y1="406.34" x2="77.72" y2="400.94" style="fill:none;stroke:#263238;stroke-miterlimit:10;stroke-width:0.5px"></line><line x1="68.77" y1="370.64" x2="75.16" y2="363.88" style="fill:none;stroke:#263238;stroke-miterlimit:10;stroke-width:2px"></line><path d="M73.22,365.91a7.23,7.23,0,0,1,2.54-5.43c1.64-1.46,10.27-5.1,11.09-2.06C87.75,361.73,78.91,368.23,73.22,365.91Z" style="fill:#FF725E;stroke:#263238;stroke-miterlimit:10"></path><line x1="73.22" y1="365.91" x2="81.92" y2="360.51" style="fill:none;stroke:#263238;stroke-miterlimit:10;stroke-width:0.5px"></line><line x1="70.62" y1="352.87" x2="77" y2="346.11" style="fill:none;stroke:#263238;stroke-miterlimit:10;stroke-width:2px"></line><path d="M75.06,348.14a7.27,7.27,0,0,1,2.54-5.43c1.64-1.46,10.28-5.1,11.1-2.06C89.59,344,80.76,350.46,75.06,348.14Z" style="fill:#FF725E;stroke:#263238;stroke-miterlimit:10"></path><line x1="75.06" y1="348.14" x2="83.76" y2="342.74" style="fill:none;stroke:#263238;stroke-miterlimit:10;stroke-width:0.5px"></line><line x1="73.32" y1="326.82" x2="79.71" y2="320.06" style="fill:none;stroke:#263238;stroke-miterlimit:10;stroke-width:2px"></line><path d="M77.77,322.08a7.21,7.21,0,0,1,2.54-5.42c1.64-1.47,10.27-5.1,11.09-2.06C92.29,317.91,83.46,324.41,77.77,322.08Z" style="fill:#FF725E;stroke:#263238;stroke-miterlimit:10"></path><line x1="77.77" y1="322.08" x2="86.47" y2="316.69" style="fill:none;stroke:#263238;stroke-miterlimit:10;stroke-width:0.5px"></line><path d="M74.71,310.09a7.25,7.25,0,0,1,2.54-5.42c1.64-1.47,10.28-5.11,11.1-2.07C89.24,305.91,80.41,312.41,74.71,310.09Z" style="fill:#FF725E;stroke:#263238;stroke-miterlimit:10"></path><line x1="74.71" y1="310.09" x2="83.41" y2="304.69" style="fill:none;stroke:#263238;stroke-miterlimit:10;stroke-width:0.5px"></line><path d="M75.07,310.48a7.24,7.24,0,0,1-5.13-3.1c-1.28-1.78-4-10.75-.89-11.25C72.44,295.59,78,305.06,75.07,310.48Z" style="fill:#FF725E;stroke:#263238;stroke-miterlimit:10"></path><line x1="75.07" y1="310.48" x2="70.61" y2="301.26" style="fill:none;stroke:#263238;stroke-miterlimit:10;stroke-width:0.5px"></line><line x1="58.61" y1="255.83" x2="58.61" y2="426.69" style="fill:none;stroke:#263238;stroke-miterlimit:10;stroke-width:2px"></line><line x1="58.74" y1="401" x2="53.09" y2="393.62" style="fill:none;stroke:#263238;stroke-miterlimit:10;stroke-width:2px"></line><path d="M54.81,395.83a7.23,7.23,0,0,0-2-5.65C51.36,388.55,43.15,384,42,387,40.79,390.18,48.91,397.55,54.81,395.83Z" style="fill:#FF725E;stroke:#263238;stroke-miterlimit:10"></path><line x1="54.81" y1="395.83" x2="47.17" y2="389.88" style="fill:none;stroke:#263238;stroke-miterlimit:10;stroke-width:0.5px"></line><line x1="58.74" y1="368.89" x2="53.09" y2="361.51" style="fill:none;stroke:#263238;stroke-miterlimit:10;stroke-width:2px"></line><path d="M54.81,363.72a7.23,7.23,0,0,0-2-5.65c-1.48-1.63-9.69-6.14-10.82-3.2C40.79,358.07,48.91,365.45,54.81,363.72Z" style="fill:#FF725E;stroke:#263238;stroke-miterlimit:10"></path><line x1="54.81" y1="363.72" x2="47.17" y2="357.78" style="fill:none;stroke:#263238;stroke-miterlimit:10;stroke-width:0.5px"></line><line x1="58.74" y1="331.19" x2="53.09" y2="323.81" style="fill:none;stroke:#263238;stroke-miterlimit:10;stroke-width:2px"></line><path d="M54.81,326a7.25,7.25,0,0,0-2-5.66c-1.48-1.63-9.69-6.14-10.82-3.2C40.79,320.37,48.91,327.75,54.81,326Z" style="fill:#FF725E;stroke:#263238;stroke-miterlimit:10"></path><line x1="54.81" y1="326.03" x2="47.17" y2="320.08" style="fill:none;stroke:#263238;stroke-miterlimit:10;stroke-width:0.5px"></line><line x1="58.74" y1="306.1" x2="53.09" y2="298.72" style="fill:none;stroke:#263238;stroke-miterlimit:10;stroke-width:2px"></line><path d="M54.81,300.93a7.23,7.23,0,0,0-2-5.65c-1.48-1.63-9.69-6.14-10.82-3.2C40.79,295.28,48.91,302.65,54.81,300.93Z" style="fill:#FF725E;stroke:#263238;stroke-miterlimit:10"></path><line x1="54.81" y1="300.93" x2="47.17" y2="294.98" style="fill:none;stroke:#263238;stroke-miterlimit:10;stroke-width:0.5px"></line><line x1="58.74" y1="280.89" x2="53.09" y2="273.51" style="fill:none;stroke:#263238;stroke-miterlimit:10;stroke-width:2px"></line><path d="M54.81,275.73a7.25,7.25,0,0,0-2-5.66c-1.48-1.63-9.69-6.14-10.82-3.2C40.79,270.07,48.91,277.45,54.81,275.73Z" style="fill:#FF725E;stroke:#263238;stroke-miterlimit:10"></path><line x1="54.81" y1="275.73" x2="47.17" y2="269.78" style="fill:none;stroke:#263238;stroke-miterlimit:10;stroke-width:0.5px"></line><line x1="58.62" y1="410.8" x2="64.28" y2="403.42" style="fill:none;stroke:#263238;stroke-miterlimit:10;stroke-width:2px"></line><path d="M62.55,405.64a7.25,7.25,0,0,1,2-5.66c1.48-1.63,9.69-6.14,10.82-3.2C76.57,400,68.46,407.36,62.55,405.64Z" style="fill:#FF725E;stroke:#263238;stroke-miterlimit:10"></path><line x1="62.55" y1="405.64" x2="70.65" y2="399.37" style="fill:none;stroke:#263238;stroke-miterlimit:10;stroke-width:0.5px"></line><line x1="58.62" y1="359.74" x2="64.28" y2="352.36" style="fill:none;stroke:#263238;stroke-miterlimit:10;stroke-width:2px"></line><path d="M62.55,354.57a7.25,7.25,0,0,1,2-5.66c1.48-1.62,9.69-6.13,10.82-3.19C76.57,348.91,68.46,356.29,62.55,354.57Z" style="fill:#FF725E;stroke:#263238;stroke-miterlimit:10"></path><line x1="62.55" y1="354.57" x2="70.65" y2="348.3" style="fill:none;stroke:#263238;stroke-miterlimit:10;stroke-width:0.5px"></line><line x1="58.62" y1="334.53" x2="64.28" y2="327.15" style="fill:none;stroke:#263238;stroke-miterlimit:10;stroke-width:2px"></line><path d="M62.55,329.37a7.24,7.24,0,0,1,2-5.66c1.48-1.63,9.69-6.14,10.82-3.2C76.57,323.71,68.46,331.09,62.55,329.37Z" style="fill:#FF725E;stroke:#263238;stroke-miterlimit:10"></path><line x1="62.55" y1="329.37" x2="70.65" y2="323.1" style="fill:none;stroke:#263238;stroke-miterlimit:10;stroke-width:0.5px"></line><line x1="58.62" y1="301.22" x2="64.28" y2="293.84" style="fill:none;stroke:#263238;stroke-miterlimit:10;stroke-width:2px"></line><path d="M62.55,296.05a7.23,7.23,0,0,1,2-5.65c1.48-1.63,9.69-6.14,10.82-3.2C76.57,290.4,68.46,297.77,62.55,296.05Z" style="fill:#FF725E;stroke:#263238;stroke-miterlimit:10"></path><line x1="62.55" y1="296.05" x2="70.65" y2="289.78" style="fill:none;stroke:#263238;stroke-miterlimit:10;stroke-width:0.5px"></line><line x1="58.62" y1="275.03" x2="64.28" y2="267.65" style="fill:none;stroke:#263238;stroke-miterlimit:10;stroke-width:2px"></line><path d="M62.55,269.86a7.25,7.25,0,0,1,2-5.66c1.48-1.62,9.69-6.13,10.82-3.19C76.57,264.2,68.46,271.58,62.55,269.86Z" style="fill:#FF725E;stroke:#263238;stroke-miterlimit:10"></path><line x1="62.55" y1="269.86" x2="70.65" y2="263.59" style="fill:none;stroke:#263238;stroke-miterlimit:10;stroke-width:0.5px"></line><path d="M58.28,258.25a7.24,7.24,0,0,1,2-5.66c1.48-1.63,9.69-6.14,10.82-3.2C72.3,252.59,64.18,260,58.28,258.25Z" style="fill:#FF725E;stroke:#263238;stroke-miterlimit:10"></path><line x1="58.28" y1="258.25" x2="66.38" y2="251.98" style="fill:none;stroke:#263238;stroke-miterlimit:10;stroke-width:0.5px"></line><path d="M58.68,258.59A7.23,7.23,0,0,1,53.26,256c-1.47-1.64-5.09-10.28-2-11.09C54.52,244.06,61,252.9,58.68,258.59Z" style="fill:#FF725E;stroke:#263238;stroke-miterlimit:10"></path><line x1="58.68" y1="258.59" x2="53.29" y2="249.88" style="fill:none;stroke:#263238;stroke-miterlimit:10;stroke-width:0.5px"></line><polygon points="65.64 471 47.54 471 45.28 425.3 67.9 425.3 65.64 471" style="fill:#263238;stroke:#263238;stroke-miterlimit:10"></polygon></g><g id="freepik--Floor--inject-2"><line x1="468" y1="471" x2="480" y2="471" style="fill:none;stroke:#263238;stroke-miterlimit:10"></line><line x1="333" y1="471" x2="457" y2="471" style="fill:none;stroke:#263238;stroke-miterlimit:10"></line><line x1="14" y1="471" x2="323" y2="471" style="fill:none;stroke:#263238;stroke-miterlimit:10"></line></g></svg>