<svg xmlns="http://www.w3.org/2000/svg" viewBox="0 0 750 500"><g id="freepik--background-complete--inject-42"><path d="M668.47,90.52H555.29s11.22-30.65,28.49-30.65S606.46,81,606.46,81s11.65-11.5,21.22-11.5,17.9,15.19,17.9,15.19S659.1,76.56,668.47,90.52Z" style="fill:#ebebeb"></path><path d="M526.28,119.23H473.39s11.82-17.12,21.13-17.12,12.06,11.41,12.06,11.41,6.58-5.32,12.66-4.37S526.28,119.23,526.28,119.23Z" style="fill:#ebebeb"></path><path d="M702.25,165.59h-52.9s11.82-17.12,21.13-17.12,12.07,11.42,12.07,11.42,6.57-5.33,12.66-4.38S702.25,165.59,702.25,165.59Z" style="fill:#ebebeb"></path><path d="M252.16,165.59H199.27s11.82-17.12,21.13-17.12,12.06,11.42,12.06,11.42,6.58-5.33,12.66-4.38S252.16,165.59,252.16,165.59Z" style="fill:#ebebeb"></path><path d="M221.28,77H168.39s11.82-17.13,21.13-17.13,12.06,11.42,12.06,11.42,6.57-5.33,12.66-4.38S221.28,77,221.28,77Z" style="fill:#ebebeb"></path><path d="M150.78,107.31h-103S61.86,75.81,77,73.84,99.27,97.25,99.27,97.25s9.73-9,17.39-9,13.56,11.81,13.56,11.81S145.53,92,150.78,107.31Z" style="fill:#ebebeb"></path><path d="M710.68,252.06S583.09,178.65,489.9,178.65c-91.22,0-214.94,37.08-248.57,45.39-88.32,21.81-202,28-202,28Z" style="fill:#dbdbdb"></path><path d="M39.32,252.06s69.55-49.22,148.12-49.22c54.84,0,133.56,19.82,207.7,31,28.22,4.24,175.17,18.26,175.17,18.26Z" style="fill:#c7c7c7"></path></g><g id="freepik--Shadow--inject-42"><ellipse cx="257.1" cy="439.79" rx="201.78" ry="18.98" style="fill:#ebebeb"></ellipse><ellipse cx="533.97" cy="419.5" rx="170.66" ry="17.61" style="fill:#ebebeb"></ellipse></g><g id="freepik--Floor--inject-42"><polygon points="39.47 252.06 123.35 251.81 207.23 251.73 375 251.56 542.77 251.72 626.65 251.81 710.53 252.06 626.65 252.3 542.77 252.39 375 252.56 207.23 252.39 123.35 252.3 39.47 252.06" style="fill:#263238"></polygon></g><g id="freepik--Trees--inject-42"><path d="M312.52,243.29c-.64.64-8.06.92-10.75.92s-10.12-.28-10.75-.92,8.34-49.93,10.75-49.93S313.15,242.65,312.52,243.29Z" style="fill:#455a64"></path><path d="M312.67,230.73c-1.84.7-8.62,3.46-10.09,4.27v-.93l4.92-2.87a60.11,60.11,0,0,0,5.3-3.15c.08-.06,0-.22-.08-.18a45.12,45.12,0,0,0-5.18,2.87c-1.67,1-3.32,2-5,3q0-3.54,0-7.09a55.14,55.14,0,0,0,7.74-3.93c.08-.05,0-.2-.07-.16a56.25,56.25,0,0,0-7.67,3.78c0-1.23,0-2.46,0-3.69-.07-6.32-.08-12.66-.25-19,1.61-.81,3.27-1.53,4.88-2.35.11,0,0-.23-.08-.19-1.63.64-3.21,1.39-4.81,2.1-.08-3.27-.21-6.53-.41-9.79a.09.09,0,0,0-.17,0c-.22,6.06-.2,12.13-.13,18.19-1.66-1.33-3.44-2.51-5.14-3.8-.06-.05-.13.06-.06.11,1.77,1.35,3.43,2.85,5.21,4.19,0,.35,0,.69,0,1-1.81-.83-3.64-1.59-5.47-2.38-.14-.06-.27.15-.12.22,1.86.89,3.71,1.8,5.6,2.64,0,3,.09,6,.13,9,.07,5.25.19,10.49.3,15.73-3.42-1.72-6.86-3.41-10.32-5a.11.11,0,1,0-.11.19A106.1,106.1,0,0,0,302,238.79c.09,4.35.18,8.71.23,13.07a.21.21,0,0,0,.42,0c-.07-5.56-.07-11.12-.09-16.67A102.43,102.43,0,0,0,312.79,231C313,231,312.84,230.66,312.67,230.73Z" style="fill:#37474f"></path><path d="M79.58,243.29c-.64.64-8,.92-10.75.92s-10.11-.28-10.75-.92,8.35-49.93,10.75-49.93S80.22,242.65,79.58,243.29Z" style="fill:#455a64"></path><path d="M79.73,230.73c-1.83.7-8.62,3.46-10.09,4.27v-.93l4.92-2.87a58.69,58.69,0,0,0,5.3-3.15c.08-.06,0-.22-.07-.18a44.43,44.43,0,0,0-5.19,2.87q-2.5,1.47-5,3l0-7.09a55.57,55.57,0,0,0,7.73-3.93c.09-.05,0-.2-.07-.16a55.57,55.57,0,0,0-7.66,3.78l0-3.69c-.07-6.32-.08-12.66-.24-19,1.61-.81,3.27-1.53,4.87-2.35a.1.1,0,0,0-.08-.19c-1.63.64-3.2,1.39-4.8,2.1-.09-3.27-.22-6.53-.41-9.79a.09.09,0,0,0-.17,0c-.23,6.06-.21,12.13-.13,18.19-1.67-1.33-3.45-2.51-5.15-3.8-.06-.05-.12.06-.06.11,1.77,1.35,3.43,2.85,5.21,4.19,0,.35,0,.69,0,1-1.81-.83-3.65-1.59-5.47-2.38-.15-.06-.27.15-.13.22,1.86.89,3.72,1.8,5.6,2.64q.08,4.52.14,9c.06,5.25.18,10.49.29,15.73-3.41-1.72-6.85-3.41-10.31-5-.13-.07-.25.12-.12.19a107.22,107.22,0,0,0,10.44,5.25c.09,4.35.18,8.71.24,13.07a.21.21,0,0,0,.41,0c-.06-5.56-.07-11.12-.09-16.67A103.6,103.6,0,0,0,79.86,231C80,231,79.91,230.66,79.73,230.73Z" style="fill:#37474f"></path><path d="M691.59,243.29c-.63.64-8.05.92-10.75.92s-10.11-.28-10.75-.92,8.35-49.93,10.75-49.93S692.23,242.65,691.59,243.29Z" style="fill:#455a64"></path><path d="M691.74,230.73c-1.83.7-8.62,3.46-10.08,4.27,0-.31,0-.62,0-.93l4.93-2.87a58.52,58.52,0,0,0,5.29-3.15c.08-.06,0-.22-.07-.18a45.12,45.12,0,0,0-5.18,2.87c-1.67,1-3.32,2-5,3q0-3.54,0-7.09a55.69,55.69,0,0,0,7.74-3.93c.08-.05,0-.2-.07-.16a55.68,55.68,0,0,0-7.67,3.78c0-1.23,0-2.46,0-3.69-.06-6.32-.08-12.66-.24-19,1.61-.81,3.27-1.53,4.88-2.35.1,0,0-.23-.08-.19-1.64.64-3.21,1.39-4.81,2.1-.09-3.27-.21-6.53-.41-9.79a.09.09,0,0,0-.17,0c-.22,6.06-.21,12.13-.13,18.19-1.67-1.33-3.44-2.51-5.14-3.8-.07-.05-.13.06-.07.11,1.78,1.35,3.44,2.85,5.22,4.19,0,.35,0,.69,0,1-1.81-.83-3.64-1.59-5.47-2.38-.14-.06-.27.15-.12.22,1.86.89,3.71,1.8,5.6,2.64,0,3,.09,6,.13,9,.07,5.25.18,10.49.29,15.73-3.41-1.72-6.85-3.41-10.31-5a.11.11,0,1,0-.11.19,107.06,107.06,0,0,0,10.43,5.25c.1,4.35.19,8.71.24,13.07,0,.26.42.26.41,0-.06-5.56-.07-11.12-.08-16.67A102.43,102.43,0,0,0,691.87,231C692,231,691.92,230.66,691.74,230.73Z" style="fill:#37474f"></path><path d="M135.07,244.53c-.54.55-6.91.79-9.22.79s-8.68-.24-9.23-.79,7.17-42.84,9.23-42.84S135.62,244,135.07,244.53Z" style="fill:#455a64"></path><path d="M135.2,233.76c-1.57.6-7.39,3-8.65,3.66,0-.27,0-.53,0-.8l4.23-2.46a51.69,51.69,0,0,0,4.54-2.7c.07-.05,0-.2-.06-.16a38.62,38.62,0,0,0-4.45,2.46c-1.43.84-2.85,1.71-4.26,2.58q0-3,0-6.08a48.18,48.18,0,0,0,6.64-3.38c.07,0,0-.17-.06-.14a49,49,0,0,0-6.58,3.24l0-3.16c-.06-5.43-.07-10.86-.2-16.29,1.38-.69,2.8-1.31,4.18-2a.09.09,0,0,0-.07-.17c-1.4.55-2.75,1.2-4.13,1.8-.07-2.8-.18-5.6-.35-8.39a.07.07,0,1,0-.14,0c-.2,5.2-.18,10.4-.11,15.61-1.43-1.15-3-2.16-4.42-3.27,0,0-.11.06,0,.1,1.52,1.16,2.94,2.44,4.47,3.6,0,.29,0,.58,0,.88-1.55-.71-3.12-1.37-4.69-2-.12,0-.23.12-.11.18,1.6.77,3.19,1.55,4.81,2.27q.06,3.87.11,7.73c.06,4.5.16,9,.26,13.5-2.93-1.48-5.89-2.92-8.85-4.32-.12-.05-.22.11-.1.17a92.41,92.41,0,0,0,9,4.5c.08,3.74.16,7.48.21,11.22a.18.18,0,0,0,.35,0c-.05-4.77-.06-9.54-.07-14.31a88.2,88.2,0,0,0,8.76-3.56C135.45,234,135.35,233.7,135.2,233.76Z" style="fill:#37474f"></path><path d="M410.93,245.72c.46.46,5.81.67,7.76.67s7.31-.21,7.77-.67-6-36.08-7.77-36.08S410.47,245.26,410.93,245.72Z" style="fill:#37474f"></path><path d="M410.82,236.65c1.32.5,6.23,2.5,7.29,3.08v-.67c-1.18-.7-2.37-1.38-3.56-2.08a43.32,43.32,0,0,1-3.83-2.27c-.05,0,0-.16.06-.13a31.71,31.71,0,0,1,3.74,2.07c1.21.71,2.4,1.44,3.59,2.17,0-1.71,0-3.41,0-5.12a41.32,41.32,0,0,1-5.59-2.84c-.06,0,0-.15,0-.12a40.68,40.68,0,0,1,5.54,2.73c0-.89,0-1.78,0-2.66.05-4.57.06-9.15.18-13.72-1.17-.59-2.36-1.11-3.53-1.7-.07,0,0-.17.06-.14,1.18.46,2.32,1,3.48,1.52.06-2.36.15-4.72.29-7.07a.06.06,0,1,1,.12,0c.17,4.38.15,8.76.1,13.14,1.2-1,2.49-1.81,3.71-2.74.05,0,.1,0,.05.08-1.28,1-2.48,2-3.77,3,0,.24,0,.49,0,.74,1.31-.6,2.64-1.15,4-1.72.1,0,.19.1.09.15-1.35.65-2.69,1.31-4.05,1.92,0,2.17-.07,4.34-.1,6.51-.05,3.79-.13,7.58-.21,11.37,2.47-1.25,5-2.47,7.45-3.64.1,0,.18.09.09.14a78.28,78.28,0,0,1-7.55,3.79c-.06,3.15-.13,6.3-.17,9.44a.15.15,0,0,1-.3,0c0-4,.06-8,.07-12a74.52,74.52,0,0,1-7.38-3A.11.11,0,0,1,410.82,236.65Z" style="fill:#455a64"></path><path d="M255.68,244c-.59.59-7.44.85-9.92.85s-9.34-.26-9.93-.85,7.71-46.08,9.93-46.08S256.26,243.38,255.68,244Z" style="fill:#37474f"></path><path d="M255.81,232.38c-1.69.64-7.95,3.19-9.3,3.94,0-.29,0-.57,0-.86l4.54-2.65a52.07,52.07,0,0,0,4.89-2.91c.08-.05,0-.2-.07-.16a42,42,0,0,0-4.78,2.64c-1.54.91-3.06,1.84-4.58,2.77,0-2.18,0-4.36,0-6.54a50.94,50.94,0,0,0,7.14-3.63c.08,0,0-.19-.06-.15a54.06,54.06,0,0,0-7.08,3.49c0-1.13,0-2.27,0-3.4-.07-5.84-.08-11.68-.23-17.52,1.49-.75,3-1.41,4.5-2.16.1-.05,0-.22-.07-.18-1.51.59-3,1.28-4.44,1.93-.08-3-.19-6-.38-9,0-.09-.15-.1-.15,0-.21,5.6-.19,11.19-.12,16.79-1.54-1.23-3.18-2.31-4.75-3.51-.06,0-.12.06-.06.11,1.64,1.24,3.17,2.62,4.81,3.86,0,.32,0,.64,0,.95-1.67-.76-3.37-1.47-5.05-2.19-.13-.06-.25.13-.12.19,1.72.83,3.43,1.67,5.17,2.45,0,2.77.09,5.54.12,8.31q.11,7.26.28,14.52c-3.15-1.59-6.33-3.15-9.52-4.65-.12-.06-.23.11-.11.18a97.36,97.36,0,0,0,9.63,4.84q.14,6,.22,12.06c0,.25.39.25.38,0-.05-5.12-.06-10.25-.07-15.38a95.69,95.69,0,0,0,9.42-3.83C256.08,232.58,256,232.31,255.81,232.38Z" style="fill:#455a64"></path><path d="M558.64,244c-.58.59-7.43.85-9.92.85s-9.33-.26-9.92-.85,7.7-46.08,9.92-46.08S559.23,243.38,558.64,244Z" style="fill:#37474f"></path><path d="M558.78,232.38c-1.69.64-7.95,3.19-9.31,3.94v-.86l4.54-2.65a52.07,52.07,0,0,0,4.89-2.91c.08-.05,0-.2-.07-.16a42,42,0,0,0-4.78,2.64c-1.54.91-3.06,1.84-4.58,2.77,0-2.18,0-4.36,0-6.54a51.49,51.49,0,0,0,7.14-3.63c.08,0,0-.19-.06-.15a53.45,53.45,0,0,0-7.08,3.49c0-1.13,0-2.27,0-3.4-.06-5.84-.07-11.68-.22-17.52,1.49-.75,3-1.41,4.5-2.16.1-.05,0-.22-.07-.18-1.51.59-3,1.28-4.44,1.93-.08-3-.19-6-.38-9,0-.09-.15-.1-.15,0-.21,5.6-.19,11.19-.12,16.79-1.54-1.23-3.18-2.31-4.75-3.51-.06,0-.12.06-.06.11,1.64,1.24,3.17,2.62,4.81,3.86,0,.32,0,.64,0,.95-1.66-.76-3.36-1.47-5-2.19-.14-.06-.25.13-.12.19,1.72.83,3.43,1.67,5.17,2.45,0,2.77.09,5.54.12,8.31q.11,7.26.28,14.52c-3.15-1.59-6.33-3.15-9.52-4.65-.12-.06-.23.11-.11.18a97.36,97.36,0,0,0,9.63,4.84q.13,6,.22,12.06c0,.25.39.25.38,0,0-5.12-.06-10.25-.08-15.38a94.88,94.88,0,0,0,9.43-3.83C559.05,232.58,558.94,232.31,558.78,232.38Z" style="fill:#455a64"></path><path d="M223.72,246.4c.41.41,5.19.6,6.93.6s6.52-.19,6.93-.6-5.38-32.2-6.93-32.2S223.31,246,223.72,246.4Z" style="fill:#455a64"></path><path d="M223.62,238.3c1.18.45,5.56,2.24,6.51,2.76v-.6L227,238.61c-1.13-.67-2.35-1.26-3.41-2a.06.06,0,0,1,.05-.11,29.46,29.46,0,0,1,3.34,1.85c1.07.63,2.14,1.28,3.2,1.93,0-1.52,0-3,0-4.57a36.5,36.5,0,0,1-5-2.53s0-.14,0-.11a36.66,36.66,0,0,1,5,2.44c0-.79,0-1.59,0-2.38,0-4.08.05-8.16.15-12.24-1-.53-2.1-1-3.14-1.51-.07,0,0-.16,0-.13,1.05.41,2.07.9,3.1,1.35.06-2.1.14-4.21.27-6.31a.05.05,0,1,1,.1,0c.15,3.91.14,7.82.09,11.73,1.07-.85,2.22-1.61,3.31-2.45a0,0,0,0,1,.05.07c-1.15.88-2.22,1.84-3.37,2.71V227c1.16-.53,2.35-1,3.52-1.53.1,0,.18.09.08.13-1.2.58-2.39,1.17-3.61,1.71,0,1.94-.06,3.88-.08,5.81-.05,3.38-.12,6.77-.19,10.15q3.3-1.68,6.65-3.25c.08,0,.16.08.07.13a71.69,71.69,0,0,1-6.73,3.38c-.06,2.81-.12,5.62-.15,8.43a.14.14,0,0,1-.27,0c0-3.58.05-7.17.06-10.75a66.79,66.79,0,0,1-6.59-2.68C223.43,238.44,223.51,238.26,223.62,238.3Z" style="fill:#37474f"></path><path d="M520.1,246.4c.41.41,5.2.6,6.94.6s6.52-.19,6.93-.6-5.38-32.2-6.93-32.2S519.69,246,520.1,246.4Z" style="fill:#455a64"></path><path d="M520,238.3c1.18.45,5.56,2.24,6.5,2.76,0-.2,0-.4,0-.6l-3.18-1.85a39,39,0,0,1-3.42-2s0-.14.05-.11a28.75,28.75,0,0,1,3.35,1.85c1.07.63,2.14,1.28,3.2,1.93,0-1.52,0-3,0-4.57a36.5,36.5,0,0,1-5-2.53c-.06,0,0-.14,0-.11a36.66,36.66,0,0,1,4.95,2.44c0-.79,0-1.59,0-2.38.05-4.08.06-8.16.16-12.24-1-.53-2.11-1-3.14-1.51-.07,0,0-.16,0-.13,1,.41,2.06.9,3.1,1.35,0-2.1.13-4.21.26-6.31,0-.07.11-.07.11,0,.15,3.91.13,7.82.09,11.73,1.07-.85,2.22-1.61,3.31-2.45,0,0,.09,0,0,.07-1.14.88-2.21,1.84-3.36,2.71,0,.22,0,.44,0,.66,1.17-.53,2.35-1,3.53-1.53.09,0,.18.09.08.13-1.2.58-2.4,1.17-3.61,1.71l-.09,5.81c0,3.38-.12,6.77-.19,10.15q3.3-1.68,6.65-3.25c.09,0,.16.08.08.13a72.93,72.93,0,0,1-6.73,3.38c-.06,2.81-.12,5.62-.16,8.43a.13.13,0,0,1-.26,0c0-3.58,0-7.17,0-10.75a67.62,67.62,0,0,1-6.58-2.68A.11.11,0,0,1,520,238.3Z" style="fill:#37474f"></path></g><g id="freepik--Tent--inject-42"><rect x="308.5" y="183.6" width="2" height="274.31" transform="translate(-51.71 581.91) rotate(-81.89)" style="fill:#263238"></rect><rect x="488.76" y="172.46" width="2" height="225.65" transform="translate(141.29 732.3) rotate(-82.28)" style="fill:#263238"></rect><rect x="352.58" y="210.08" width="165.34" height="2" transform="translate(3.73 429.69) rotate(-52.74)" style="fill:#263238"></rect><rect x="529.76" y="125.84" width="2" height="205.59" transform="translate(-33.46 353.66) rotate(-35.8)" style="fill:#263238"></rect><path d="M299.66,160.37S341,297.8,397.73,338.47L580.38,297.6S524.66,246,489.9,160.37C489.9,160.37,436.43,186.61,299.66,160.37Z" style="fill:#407BFF"></path><path d="M299.66,160.37S341,297.8,397.73,338.47L580.38,297.6S524.66,246,489.9,160.37C489.9,160.37,436.43,186.61,299.66,160.37Z" style="opacity:0.1"></path><path d="M397.73,338.47c-27.88-9.52-207-31.49-207-31.49,64.61-30.5,108.89-146.61,108.89-146.61a0,0,0,0,0,0,0C300.31,162.52,341.44,298.11,397.73,338.47Z" style="fill:#407BFF"></path><path d="M397.73,338.47c-27.88-9.52-207-31.49-207-31.49,64.61-30.5,108.89-146.61,108.89-146.61a0,0,0,0,0,0,0C300.31,162.52,341.44,298.11,397.73,338.47Z" style="opacity:0.1"></path><path d="M397.73,338.47c-22.91-7.82-148-24.06-191.78-29.59-9.5-1.2-15.18-1.9-15.18-1.9,64.61-30.5,108.89-146.61,108.89-146.61a0,0,0,0,0,0,0c.1.35,1.3,4.31,3.49,10.84C314.23,204.5,350.69,304.73,397.73,338.47Z" style="opacity:0.1"></path><path d="M557.74,292.17,402,319.78c-38.18-41.76-70.4-128.43-79.84-155.44,82.43,13.3,130.71,6.49,152.88.9C501.3,233,557.74,292.17,557.74,292.17Z" style="opacity:0.1"></path><path d="M417.41,257.46S402.65,234.17,400,217.12c0,0,39.36-.33,56.41-5.58,0,0,12.46,26.9,18.7,34.44C475.14,246,454.14,255.49,417.41,257.46Z" style="fill:#ebebeb"></path><path d="M303.17,171.24c-7.87,26.59-39.26,100-97.22,137.64-9.5-1.2-15.18-1.9-15.18-1.9,64.61-30.5,108.89-146.61,108.89-146.61a0,0,0,0,0,0,0C299.78,160.75,301,164.71,303.17,171.24Z" style="fill:#407BFF"></path><path d="M303.17,171.24c-7.87,26.59-39.26,100-97.22,137.64-9.5-1.2-15.18-1.9-15.18-1.9,64.61-30.5,108.89-146.61,108.89-146.61a0,0,0,0,0,0,0C299.78,160.75,301,164.71,303.17,171.24Z" style="opacity:0.1"></path><path d="M306.2,322.31c-8.06-1.15-16.18-2.29-24.2-3.4,19-44.12,21.17-147.67,21.17-147.67C309.66,240.33,308.2,292.74,306.2,322.31Z" style="opacity:0.4"></path><rect x="140.52" y="223.17" width="216.28" height="2" transform="translate(-80.28 286.45) rotate(-52.76)" style="fill:#263238"></rect><rect x="358.62" y="120.31" width="2" height="253.3" transform="translate(-75.69 218.28) rotate(-30.71)" style="fill:#263238"></rect></g><g id="freepik--Plants--inject-42"><path d="M76.53,265.93h41.7s-.09-6.21-4.19-7.86a5.6,5.6,0,0,0-6.54,1.57s-1.67-11.41-9.31-11.41-11.3,9.84-11.3,9.84a5.86,5.86,0,0,0-6-2.42C76.7,256.21,76.53,265.93,76.53,265.93Z" style="fill:#37474f"></path><path d="M57.3,265.93H87.67s-1-4.28-3-4.59a3,3,0,0,0-3,1.68s.09-6-3.67-7-6.91,4.25-6.91,4.25-2.36-3-5.58-2.81-4,5.16-4,5.16S58.59,260.92,57.3,265.93Z" style="fill:#455a64"></path><path d="M388.25,354.38h64.18s-.15-9.56-6.46-12.09a8.6,8.6,0,0,0-10.06,2.41s-2.57-17.56-14.33-17.56-17.38,15.15-17.38,15.15-2.64-4.58-9.16-3.73S388.25,354.38,388.25,354.38Z" style="fill:#455a64"></path><path d="M419.71,357.87h67.18s-2.21-9.47-6.66-10.14-6.53,3.72-6.53,3.72.2-13.21-8.12-15.46-15.3,9.43-15.3,9.43-5.21-6.66-12.32-6.23-8.91,11.42-8.91,11.42S422.57,346.79,419.71,357.87Z" style="fill:#37474f"></path><path d="M692.7,308.13H647s.1-6.81,4.6-8.62a6.13,6.13,0,0,1,7.17,1.72s1.83-12.52,10.21-12.52,12.4,10.8,12.4,10.8a6.41,6.41,0,0,1,6.53-2.65C692.52,297.47,692.7,308.13,692.7,308.13Z" style="fill:#455a64"></path><path d="M674.05,317.84s-2.48-11.55-7.42-13.33-8,3.4-8,3.4-1.17-11-8.18-14.34S638.23,297,638.23,297s-5.38-14-15-14-14.45,20.49-14.45,20.49-5.67-6.11-11.49-2.66-5.81,17-5.81,17Z" style="fill:#37474f"></path></g><g id="freepik--Trunk--inject-42"><path d="M693.88,366.31V415L514,405.47c-4.87-.26-8.82-9.13-8.82-19.82s3.95-19.34,8.82-19.34Z" style="fill:#407BFF"></path><path d="M693.88,366.31V415L514,405.47c-4.87-.26-8.82-9.13-8.82-19.82s3.95-19.34,8.82-19.34Z" style="opacity:0.2"></path><path d="M684.6,390.39c0,13.3,3.95,24.29,8.83,24.54s8.82-10.52,8.82-24.08-4-24.54-8.82-24.54S684.6,377.09,684.6,390.39Z" style="fill:#407BFF"></path><path d="M684.6,390.39c0,13.3,3.95,24.29,8.83,24.54s8.82-10.52,8.82-24.08-4-24.54-8.82-24.54S684.6,377.09,684.6,390.39Z" style="fill:#fff;opacity:0.6000000000000001"></path><g style="opacity:0.1"><polygon points="512.59 370.49 533.41 370.26 554.23 370.14 595.87 370.03 637.5 370.13 658.32 370.26 679.14 370.49 658.32 370.71 637.5 370.84 595.87 370.94 554.23 370.84 533.41 370.71 512.59 370.49"></polygon><path d="M620,381.94c4.93-.19,9.86-.28,14.79-.35s9.86-.07,14.79-.11,9.86,0,14.79.11l7.4.12c2.46.08,4.93.12,7.39.23-2.46.1-4.93.15-7.39.22l-7.4.13c-4.93.07-9.86.07-14.79.1s-9.86,0-14.79-.1S624.91,382.13,620,381.94Z"></path><path d="M529.64,376.59c6.72-.19,13.44-.28,20.16-.35l20.15-.11,20.16.1,10.08.13,10.08.23-10.08.22-10.08.13L570,377l-20.15-.1C543.08,376.86,536.36,376.78,529.64,376.59Z"></path><path d="M525,390.62c7.51,0,15,.13,22.52.25l22.51.49,22.5.71,11.25.42L615,393l-11.26-.08-11.26-.17L570,392.28l-22.5-.71C540,391.3,532.45,391,525,390.62Z"></path><path d="M565.17,402.79c9,.25,18,.6,27,1l27,1.22,27,1.44,13.48.79,13.47.89-13.49-.44-13.5-.54-27-1.22-27-1.44C583.14,404,574.15,403.42,565.17,402.79Z"></path><path d="M602.29,398.48c6.47,0,12.93,0,19.39.09l19.38.35,19.38.55,9.68.35c3.23.15,6.46.27,9.69.45-3.24,0-6.47,0-9.7,0l-9.69-.1L641,399.83l-19.38-.56C615.21,399.05,608.75,398.82,602.29,398.48Z"></path><path d="M513.94,385.68c5.68-.19,11.36-.28,17-.35s11.36-.07,17-.11,11.36,0,17,.11l8.52.13c2.84.07,5.68.12,8.52.22-2.84.1-5.68.15-8.52.23L565,386c-5.67.08-11.35.07-17,.11s-11.36,0-17-.11S519.62,385.87,513.94,385.68Z"></path><path d="M628.24,393a70.58,70.58,0,0,1,16.09,0,70.58,70.58,0,0,1-16.09,0Z"></path><path d="M531,400.56a72,72,0,0,1,16.08,0,60.21,60.21,0,0,1-8,.46A61.93,61.93,0,0,1,531,400.56Z"></path></g></g><g id="freepik--character-2--inject-42"><path d="M398.77,421.11c2.26.86,67.76,2.05,70.32.59.28-.16.21-3.06,1.17-10.53.05-.36,1.54-1.75,3.87-3.7,8.76-7.35,29.35-22.82,29.35-22.82l-32.69-28.4-31.68,31.13-8.24,8.1s-26.76,14.45-29.41,16.36S396.52,420.24,398.77,421.11Z" style="fill:#f7a9a0"></path><path d="M398.77,421.1c2.26.88,67.76,2.06,70.32.6.28-.16.2-3.05,1.17-10.54.05-.35,1.54-1.73,3.88-3.7,3-2.55,4.49-3.72,9-7.24L441.6,384.94l-2.49,2.44-8.23,8.1s-26.77,14.45-29.41,16.36S396.52,420.24,398.77,421.1Z" style="fill:#ebebeb"></path><path d="M394.26,422c2.28.79,72.07,1.55,74.58,0,.59-.37,1.13-4.42,1.56-10,.06-.7,7.13-6.35,8.09-7.39l-42.76-14.41-5.4,5.08S398.85,410,396.28,412,392,421.22,394.26,422Z" style="fill:#407BFF"></path><path d="M395.23,419.4c11-.14,59.6.33,70.45,1,.09,0,.09.07,0,.07-10.87.38-59.5-.44-70.45-.91C395,419.57,395,419.41,395.23,419.4Z" style="fill:#263238"></path><path d="M426.84,395.79c4.32-.75,9.59,0,12.85,3.09.13.12-.05.29-.19.25a60.7,60.7,0,0,0-12.65-2.79A.28.28,0,0,1,426.84,395.79Z" style="fill:#263238"></path><path d="M423.7,397.63c4.33-.75,9.59,0,12.85,3.09.13.12,0,.29-.18.25a60.79,60.79,0,0,0-12.66-2.79A.28.28,0,0,1,423.7,397.63Z" style="fill:#263238"></path><path d="M420.57,399.47c4.32-.75,9.59,0,12.85,3.09.13.12-.05.29-.19.25A60.7,60.7,0,0,0,420.58,400,.28.28,0,0,1,420.57,399.47Z" style="fill:#263238"></path><path d="M417.43,401.31c4.33-.75,9.59,0,12.85,3.09.13.12,0,.29-.18.25a60.79,60.79,0,0,0-12.66-2.79A.28.28,0,0,1,417.43,401.31Z" style="fill:#263238"></path><path d="M420.85,391.89c3,2.41,7,3.43,10.53,4.79a.53.53,0,0,0,.68-.53.13.13,0,0,0,.11-.16,23.09,23.09,0,0,0-6.53-10c-1.78-1.53-4.93-2.62-6.65-.3S419.09,390.49,420.85,391.89Zm-1.06-3.48c-.7-4.74,4.35-2.2,5.62-1a26.83,26.83,0,0,1,2.26,2.5c1.47,1.81,2.66,3.79,3.94,5.73-1.7-.77-3.46-1.39-5.19-2.11C424.37,392.67,420.18,391,419.79,388.41Z" style="fill:#263238"></path><path d="M446.64,389.59c-1-2.71-4.33-2.53-6.47-1.56a23.17,23.17,0,0,0-9,7.76.11.11,0,0,0,.06.17.53.53,0,0,0,.51.7c3.78-.32,7.87-.19,11.44-1.67C445.23,394.13,447.6,392.14,446.64,389.59Zm-9.3,5.41c-1.86.21-3.72.32-5.57.59a68.89,68.89,0,0,1,5.38-4.41,24.22,24.22,0,0,1,2.86-1.77c1.55-.79,7.11-1.83,5.12,2.53C444,394.34,439.55,394.76,437.34,395Z" style="fill:#263238"></path><path d="M438.66,385.65l40.41,20.93s42.09-38.1,45.95-38.38,60.48,38.14,89,38.26c29.53.12,31-30.81,31-30.81L602,365.75c-31.05-15.3-63.39-42.78-84.54-40.22C494.44,328.31,438.66,385.65,438.66,385.65Z" style="fill:#455a64"></path><path d="M448.53,380.31c6.82,3.37,4.91,2.32,11.7,5.76,3.32,1.68,20,10.11,22.86,12.2.06.05,0,.16-.07.13-3.34-1.12-19.86-9.9-23.15-11.65-6.72-3.57-4.75-2.61-11.43-6.25A.11.11,0,1,1,448.53,380.31Z" style="fill:#263238"></path><path d="M486.22,396.93c7.9-7,33.79-29.64,34.84-30.48a14.28,14.28,0,0,1,2.69-2,2.85,2.85,0,0,1,2.49.21c1.2.55,2.37,1.17,3.56,1.75l7,3.42c9.05,4.41,18.05,8.95,27.18,13.22,8.77,4.11,15,8,24.19,11.14a138,138,0,0,0,28.11,6.7c1.18.14,2.36.27,3.55.38.08,0,.08.14,0,.13a113.28,113.28,0,0,1-27.66-5.14c-9.07-2.79-15.23-6.42-23.85-10.38-8.94-4.11-17.74-8.51-26.55-12.89-4.65-2.31-9.29-4.64-14-6.93-1.06-.51-2.56-1.64-3.77-1.08a6.34,6.34,0,0,0-1.39,1l-1.55,1.29c-2,1.66-33.73,29-34.77,29.77C486.25,397.1,486.15,397,486.22,396.93Z" style="fill:#263238"></path><path d="M645.12,375.65S650,403.58,636,414.56s-116.3,9.65-131.83,4.63-16-30.08,1-35.88c16.15-5.52,84.83-8.21,86.53-8.88.42-.17-6.09-4.08-6.07-4.32l15.63-4.77Z" style="fill:#455a64"></path><path d="M623.92,374.94c0-.12.2-.08.2,0a13.86,13.86,0,0,0,3.23,8.88c2.38,2.74,5.88,4.28,9.06,5.89.31.15.08.63-.24.53a27.84,27.84,0,0,1-5.61-2.41,13.76,13.76,0,0,1-4.22-3.51A12,12,0,0,1,623.92,374.94Z" style="fill:#263238"></path><path d="M592.76,371.48c.71-.91,1.48-1.77,2.22-2.65,1.75-2.08,3.51-4.17,5.34-6.18.18-.19.52.08.36.29-1.24,1.61-2.54,3.18-3.83,4.75-.66.81-1.32,1.61-2,2.41a15.42,15.42,0,0,0-1.85,2.35c-.48.9.15,1.66,1.08,1.76a3.2,3.2,0,0,0,2.23-.82,29.09,29.09,0,0,0,3.79-4.05c.74-.83,1.47-1.66,2.22-2.47s1.64-1.7,2.44-2.57c.05-.06.15,0,.1.09-.69.94-1.33,1.94-2,2.89s-1.39,1.9-2.11,2.83-1.38,1.75-2.1,2.6a8.66,8.66,0,0,1-2.14,1.91c-1.32.78-3.63.95-4.34-.77A2.42,2.42,0,0,1,592.76,371.48Z" style="fill:#263238"></path><path d="M506.28,419.28c5.34.1,10.68.41,16,.53s10.61.14,15.91.09q16-.15,31.93-1.24c10.74-.74,22.33-1.81,33-3.29,5.1-.71,10.28-1.3,15.32-2.38a24.18,24.18,0,0,0,12.09-6.18c6.91-6.7,9.59-16.55,10.7-26,.15-1.26.27-2.52.37-3.79,0-.09.14-.09.13,0-.62,9.65-2.12,19.72-8.2,27.48a24.19,24.19,0,0,1-9.88,7.68c-4.78,1.91-10.09,2.36-15.13,3-10.71,1.46-22.34,2.58-33.11,3.41s-21.71,1.37-32.58,1.53-21.76,0-32.62-.53c-1.32-.06-2.64-.14-4-.26C506.2,419.4,506.2,419.28,506.28,419.28Z" style="fill:#263238"></path><path d="M540,378.22c3.37-.5,6.73-1,10.11-1.33s6.84-.66,10.26-.95c6.77-.58,13.56-1.09,20.35-1.41,3.85-.18,7.71-.2,11.57-.15.12,0,.11.18,0,.19-6.78.61-13.57,1-20.37,1.49s-13.56,1.05-20.33,1.69c-3.84.37-7.68.65-11.52,1C539.76,378.74,539.7,378.26,540,378.22Z" style="fill:#263238"></path><path d="M584.78,369.77a52.51,52.51,0,0,1,7.79,4.17,63,63,0,0,1,7.21,5.05c.06.05,0,.13-.09.1-2.64-1.22-5.18-2.75-7.7-4.22a72.28,72.28,0,0,1-7.38-4.74C584.45,370,584.55,369.68,584.78,369.77Z" style="fill:#263238"></path><path d="M610.94,317.72c-15.42,10-36.48,19.42-41.52,19.38-6.36,0-34.2-16.65-35.4-17.59-3-2.35,10.91-25.76,14.18-23.39,5,3.61,21.68,18.18,23.58,18.13s16.89-2,33.05-4.84C616,307.44,620.52,311.54,610.94,317.72Z" style="fill:#f7a9a0"></path><path d="M539,322.35c3,1.14,16.19-17.42,14.75-20.41-.28-.56-2.07-3.69-2.65-5a36.24,36.24,0,0,1-4.47-11.71c-1.13-5.38-2.22-11.91-5.18-11.84-4.3.09-2.81,6.5-3.25,12.48-2.71-1.81-5.22-3.11-6.95-3.33-5.77-.73-14.94,19.43-11.46,24.21C525.67,314.89,533,320.11,539,322.35Z" style="fill:#f7a9a0"></path><path d="M510.21,318.56c4.87-4.95,9.92-9.69,15.05-14.34l3.84-3.47.44-.42a3.76,3.76,0,0,1,.69-.53c.43-.26.81-.45,1.2-.66l2.35-1.17c3.14-1.5,6.29-2.93,9.45-4.35s6.35-2.78,9.56-4.12l2.41-1,1.22-.48.62-.23.32-.12.4-.12a10.68,10.68,0,0,1,1.44-.05h1.31l2.6.07c3.47.09,6.93.21,10.39.38s6.92.3,10.38.51c-6.93.17-13.86.28-20.78.37l-2.59.05-1.29,0a11.43,11.43,0,0,0-1.15.06l-.5.2-.58.24-1.18.52L553.45,291q-4.73,2.13-9.42,4.33c-3.14,1.44-6.28,2.9-9.38,4.41l-2.31,1.13c-.37.19-.76.39-1.08.58s-.07,0-.34.25l-.51.46c-1.31,1.16-2.61,2.3-3.94,3.41C521.19,310.09,515.79,314.43,510.21,318.56Z" style="fill:#263238"></path><path d="M565.38,284.17c.94-.77,4.91.4,6.11.31s4.86-.28,6.28.26,1.77,6.77.51,8.36-5.61.16-7.1.15-4.74,1-5.95-.3S563.65,285.59,565.38,284.17Z" style="fill:#ebebeb"></path><path d="M543.73,294c-.58,3-3.74.58-3.74.58s3.71,4.53,1.93,7.35-5.44-.3-5.71-.51c.2.24,3.5,4.49,1.42,7.14s-5.38-.92-5.58-1.16c.11.29,1.52,4.09-.52,5.74-3.51,2.84-7.4-6.78-10.82-8.06a23.7,23.7,0,0,1-.38,2.44s-5-7.28-4.48-10.34c.45-2.56,3.48-1.87,3.48-1.87s-1.58-2.79,0-4.93c.82-1.09,3.29-.77,3.29-.77a4,4,0,0,1,.35-4.1c1.21-1.45,3.5-.9,3.5-.9s-.1-2.71,1.62-3.79C531.53,278.62,545,287.65,543.73,294Z" style="fill:#f7a9a0"></path><path d="M526.84,284.63c-.05,0,0-.09,0-.08a28.1,28.1,0,0,1,13.3,10.13c.1.15-.1.38-.24.24A57.47,57.47,0,0,0,526.84,284.63Z" style="fill:#263238"></path><path d="M522.56,289.53s0-.12.06-.1a26.3,26.3,0,0,1,13.82,11.95c.1.19,0,.47-.14.25C534.07,298,527.14,292.07,522.56,289.53Z" style="fill:#263238"></path><path d="M532.11,307.86c-3-5.35-7.44-9.2-12.56-12.5-.07,0,0-.13.07-.11,2.94.93,6,3.38,8.19,5.48a16.26,16.26,0,0,1,4.49,7C532.33,307.86,532.18,308,532.11,307.86Z" style="fill:#263238"></path><path d="M540.09,294.57c.12.18-.27.16-.16.35.49.77,3,5.68,1.6,7.06-1.13,1.1-3.4.35-4.15-.28l-1.9-1.59,1.23,2.15a10.38,10.38,0,0,1,1.18,3.06,3.67,3.67,0,0,1-.48,2.93,2.07,2.07,0,0,1-2.49.76,6.35,6.35,0,0,1-2.49-1.91l-1.87-2.26,1,2.73a9.52,9.52,0,0,1,.56,2.37,3.89,3.89,0,0,1-.33,2.24,1.85,1.85,0,0,1-1.69,1,4,4,0,0,1-2.07-1,32.23,32.23,0,0,1-3.54-3.65c-.58-.64-1.15-1.28-1.75-1.9a6.19,6.19,0,0,0-2.06-1.54,6.62,6.62,0,0,1,1.88,1.7c.55.66,1.07,1.34,1.59,2a28.09,28.09,0,0,0,3.42,3.92,4.92,4.92,0,0,0,2.45,1.29,2.67,2.67,0,0,0,2.56-1.38,4.77,4.77,0,0,0,.48-2.77,10.5,10.5,0,0,0-.59-2.64l-.84.48a7,7,0,0,0,2.91,2.29,3,3,0,0,0,2,.07,3.39,3.39,0,0,0,1.6-1.2,4.61,4.61,0,0,0,.61-3.71,11.33,11.33,0,0,0-1.35-3.35l-.67.57c1,.77,3.43,1.89,5.4.4C544.46,300.44,540.82,295.44,540.09,294.57Z" style="fill:#263238"></path><path d="M540,294.57a6.42,6.42,0,0,0,1.77.55,1.41,1.41,0,0,0,1.33-.5,2.88,2.88,0,0,0,.41-1.57c0-.61,0-1.25-.07-1.91a4.6,4.6,0,0,1,.72,1.86,2.81,2.81,0,0,1-.39,2.13,2,2,0,0,1-1,.67,2.08,2.08,0,0,1-1.14,0A3.23,3.23,0,0,1,540,294.57Z" style="fill:#263238"></path><path d="M552.91,298.66,539,326.41s23.18,12.47,30,12.12,30.87-12.86,41.38-20.06,5.76-11.38-3.89-9.78-33.3,5.2-34.17,4.93S552.91,298.66,552.91,298.66Z" style="fill:#407BFF"></path><path d="M576.35,321.91a5.85,5.85,0,0,0,0,3.93,5.69,5.69,0,0,0,0-3.93Zm-20.56-.48a5.85,5.85,0,0,0,0,3.93,5.69,5.69,0,0,0,0-3.93Zm34.08.28a5.38,5.38,0,0,0-2,.35,5.82,5.82,0,0,0,3.92,0A5.41,5.41,0,0,0,589.87,321.71Zm-31.77-16.1a5.38,5.38,0,0,0-2,.35,5.82,5.82,0,0,0,3.92,0A5.41,5.41,0,0,0,558.1,305.61Zm6.45,26.54a5.38,5.38,0,0,0-2,.35,5.82,5.82,0,0,0,3.92,0A5.41,5.41,0,0,0,564.55,332.15Zm33.39-19a5.31,5.31,0,0,0-1.63-1.14,5.68,5.68,0,0,0,2.78,2.77A5.51,5.51,0,0,0,597.94,313.15Zm-31.19,2.29a5.31,5.31,0,0,0-1.63-1.14,5.68,5.68,0,0,0,2.78,2.77A5.51,5.51,0,0,0,566.75,315.44ZM544,326.08a5.31,5.31,0,0,0-1.63-1.14,5.68,5.68,0,0,0,2.78,2.77A5.51,5.51,0,0,0,544,326.08Zm62-9.24a5.17,5.17,0,0,0-1.15,1.63,5.75,5.75,0,0,0,2.78-2.78A5.33,5.33,0,0,0,606,316.84Zm-24.66-3.06a5.17,5.17,0,0,0-1.15,1.63,5.19,5.19,0,0,0,1.63-1.14,5.38,5.38,0,0,0,1.15-1.64A5.22,5.22,0,0,0,581.3,313.78Zm-34.5-.63a5.17,5.17,0,0,0-1.15,1.63,5.19,5.19,0,0,0,1.63-1.14,5.38,5.38,0,0,0,1.15-1.64A5.22,5.22,0,0,0,546.8,313.15Z" style="fill:#fff"></path><path d="M549.88,318.67c1.62-3.29,3.22-6.6,5-9.83,1-1.83,2-3.68,3-5.5,0-.07.16,0,.12.05-1.49,3.37-3,6.75-4.66,10.05s-3.26,6.58-4.94,9.84q-1.44,2.79-3,5.47s-.09,0-.07,0C546.62,325.3,548.24,322,549.88,318.67Z" style="fill:#263238"></path><path d="M616.25,311.84c-.23,1.7-2,4-5.93,6.63-10.51,7.2-34.59,19.71-41.38,20.06-2.43.13-7-1.39-11.79-3.39C571.71,329.52,597.93,318.81,616.25,311.84Z" style="opacity:0.1"></path><path d="M587,371,647,377.91c0-1.23-6.93-37.63-13-51.18-7.73-17.38-12-18.9-14.51-19.91-3.24-1.29-9.1-.91-10.51-.3-1.6.68-6.91,9.25-8.92,15.6C596.09,334.86,586.17,370.16,587,371Z" style="fill:#407BFF"></path><path d="M620.67,362.87a5.17,5.17,0,0,0-1.15,1.63,5.19,5.19,0,0,0,1.63-1.14,5.38,5.38,0,0,0,1.15-1.64A5.22,5.22,0,0,0,620.67,362.87Zm-14.71-46a5.17,5.17,0,0,0-1.15,1.63,5.75,5.75,0,0,0,2.78-2.78A5.33,5.33,0,0,0,606,316.84ZM592,357.5a5.31,5.31,0,0,0-1.14,1.63,5.71,5.71,0,0,0,2.77-2.77A5.43,5.43,0,0,0,592,357.5Zm43.45-17a5.17,5.17,0,0,0-1.63-1.15,5.64,5.64,0,0,0,2.78,2.78A5.51,5.51,0,0,0,635.47,340.51Zm-11.65-22.89a5.35,5.35,0,0,0-1.64-1.14,5.33,5.33,0,0,0,1.15,1.63,5.51,5.51,0,0,0,1.63,1.15A5.35,5.35,0,0,0,623.82,317.62ZM595.29,369.7a5.14,5.14,0,0,0-1.63-1.14,5.71,5.71,0,0,0,2.77,2.77A5.31,5.31,0,0,0,595.29,369.7ZM611,339.75a5.31,5.31,0,0,0-1.63-1.14,5.68,5.68,0,0,0,2.78,2.77A5.51,5.51,0,0,0,611,339.75Zm23.67,29.85a5.23,5.23,0,0,0-2,.34,5.45,5.45,0,0,0,2,.35,5.26,5.26,0,0,0,2-.35A5.25,5.25,0,0,0,634.66,369.6Zm-11.79-23.3a5.41,5.41,0,0,0-2,.35,5.82,5.82,0,0,0,3.92,0A5.38,5.38,0,0,0,622.87,346.3Zm-27-3.17a5.38,5.38,0,0,0-2,.35,5.82,5.82,0,0,0,3.92,0A5.41,5.41,0,0,0,595.88,343.13Zm13.48,26.12a5.41,5.41,0,0,0-2,.35,5.82,5.82,0,0,0,3.92,0A5.41,5.41,0,0,0,609.36,369.25Zm25-41.76a4,4,0,0,0-1.14.29,5,5,0,0,0,1.39.31Zm-23.09-1.94a5.21,5.21,0,0,0-2,.35,5.4,5.4,0,0,0,2,.34,5.16,5.16,0,0,0,2-.34A5,5,0,0,0,611.32,325.55Zm5.29-19.42-.54-.06a8.55,8.55,0,0,0-.07,1,5.25,5.25,0,0,0,.34,2,5.47,5.47,0,0,0,.35-2A7.61,7.61,0,0,0,616.61,306.13ZM606.2,353.82a5.82,5.82,0,0,0,0,3.92,5.66,5.66,0,0,0,0-3.92Zm28.81-.75a5.66,5.66,0,0,0,0,3.92,5.82,5.82,0,0,0,0-3.92Zm-37-24.18c-.12.42-.25.85-.38,1.28v0c0,.16,0,.33,0,.49a5.23,5.23,0,0,0,.34,2,5.45,5.45,0,0,0,.35-2A5.59,5.59,0,0,0,598.06,328.89Zm25.51,1.79a5.85,5.85,0,0,0,0,3.93,5.69,5.69,0,0,0,0-3.93Z" style="fill:#fff"></path><path d="M628.12,313.37c9.45,10.45,32.18,49.89,24.65,56.89s-48.52-3.25-60-8.95c-3.41-1.69,10-22.91,14.05-23.35,3.37-.36,20.44,7.79,21,6.81s-2-9.41-5.92-24.42C617.38,303.05,624,308.75,628.12,313.37Z" style="fill:#f7a9a0"></path><path d="M589.87,330.77c-8.34-1.3-10.68-.35-17.13-5.19-4.24-3.17-8.08-1.83-5.72,3.14,3.87,8.13,14.28,12.06,18.28,12.39Z" style="fill:#f7a9a0"></path><path d="M611.93,339.17s-9.3-5.36-18-7.63c-6-1.56-19.59-3.5-32.79,9.68-3.13,3.12-5.37,9.79,1.6,6.55,4.94-2.31,7.38-5.27,10.51-6.09,0,0-1.85,8.83,1.4,11.84a80.45,80.45,0,0,0,9.07,7.27,17.31,17.31,0,0,0,1.51-1.57s3.3,2.53,9.61,2Z" style="fill:#f7a9a0"></path><path d="M587.87,331c-2.93,1.47-9.08,4.68-13.2,9.06-4.58,4.86-12.08,15.47-8.46,18.81,2.66,2.45,5.88-1.35,5.88-1.35s-2.18,5,.71,6.72c2.63,1.54,4.94-1.55,4.94-1.55s-.79,3.29,2,4.28c3.39,1.2,4.5-5.88,9-7.63C589.75,358.91,587.87,331,587.87,331Z" style="fill:#f7a9a0"></path><path d="M580.61,344a26.55,26.55,0,0,0-8.56,13.35c0,.13.05.23.11.11a65.19,65.19,0,0,1,8.5-13.42S580.64,344,580.61,344Z" style="fill:#263238"></path><path d="M585.39,348.77c-2,1.8-6.58,7.82-7.75,13.84,0,.13.06.22.11.1a70.1,70.1,0,0,1,7.69-13.9S585.41,348.75,585.39,348.77Z" style="fill:#263238"></path><path d="M573.2,341.63c-2.74.76-4.53,2.06-6.86,3.62a37.68,37.68,0,0,1-3.54,2.17c-1.12.58-2.77,1.46-3.94.5a2.24,2.24,0,0,1-.46-2.23,11,11,0,0,1,1.55-3.08s0-.08-.06,0a14.78,14.78,0,0,0-1.69,2.73,3.69,3.69,0,0,0-.28,2.12c.38,1.51,2.15,1.73,3.41,1.34a11.74,11.74,0,0,0,2.16-1c.66-.37,1.31-.77,2-1.18,1.31-.86,2.57-1.79,3.86-2.65a34.53,34.53,0,0,1,3.94-2.21S573.25,341.61,573.2,341.63Z" style="fill:#263238"></path><path d="M567.34,351.12a85.91,85.91,0,0,1,5.91-9.43s0-.08,0-.05a44.46,44.46,0,0,0-6.48,9,15,15,0,0,0-1.78,5.72c-.05,2.84,1.83,3.41,2.52,3.56a3.72,3.72,0,0,0,2.43-.35,7.45,7.45,0,0,0,2.23-2,0,0,0,0,0-.06-.06c-1,1.11-2.66,2.19-4.2,2a2.55,2.55,0,0,1-1.74-1,3.34,3.34,0,0,1-.42-2.3A15.55,15.55,0,0,1,567.34,351.12Z" style="fill:#263238"></path><path d="M611.93,339.17l-13.62,27.49s51.32,12.41,55.91,3.51-14.84-44.31-23.69-54.67c-10.26-12-11.66-8-9.52,2.52,2.23,11,6.62,27,6.62,27Z" style="fill:#407BFF"></path><path d="M620.67,362.87a5.17,5.17,0,0,0-1.15,1.63,5.19,5.19,0,0,0,1.63-1.14,5.38,5.38,0,0,0,1.15-1.64A5.22,5.22,0,0,0,620.67,362.87Zm14.8-22.36a5.17,5.17,0,0,0-1.63-1.15,5.64,5.64,0,0,0,2.78,2.78A5.51,5.51,0,0,0,635.47,340.51Zm-11.65-22.89a5.35,5.35,0,0,0-1.64-1.14,5.33,5.33,0,0,0,1.15,1.63,5.51,5.51,0,0,0,1.63,1.15A5.35,5.35,0,0,0,623.82,317.62ZM646.17,364a5.14,5.14,0,0,0-1.63-1.14,5.71,5.71,0,0,0,2.77,2.77A5.31,5.31,0,0,0,646.17,364Zm-34.76-23.75-.28.56a4.22,4.22,0,0,0,1,.6A4.86,4.86,0,0,0,611.41,340.22Zm23.25,29.38a5.23,5.23,0,0,0-2,.34,5.45,5.45,0,0,0,2,.35,5.26,5.26,0,0,0,2-.35A5.25,5.25,0,0,0,634.66,369.6Zm13.23-19.53a5.41,5.41,0,0,0-2,.35,5.82,5.82,0,0,0,3.92,0A5.38,5.38,0,0,0,647.89,350.07Zm-25-3.77a5.41,5.41,0,0,0-2,.35,5.82,5.82,0,0,0,3.92,0A5.38,5.38,0,0,0,622.87,346.3Zm12.36-18.87a5.21,5.21,0,0,0-2,.35,5.4,5.4,0,0,0,2,.34,5.16,5.16,0,0,0,2-.34A5,5,0,0,0,635.23,327.43Zm-29,26.39a5.82,5.82,0,0,0,0,3.92,5.66,5.66,0,0,0,0-3.92Zm28.81-.75a5.66,5.66,0,0,0,0,3.92,5.82,5.82,0,0,0,0-3.92Z" style="fill:#fff"></path><path d="M643.17,352.65a61.26,61.26,0,0,0-7.44-4.53,58.75,58.75,0,0,0-7.94-3.34c-1.55-.54-3.12-1-4.69-1.47-.05,0-.07.05,0,.07a76.56,76.56,0,0,1,8,3.27q3.9,1.82,7.73,3.77c1.45.74,2.86,1.55,4.28,2.33C643.18,352.79,643.23,352.7,643.17,352.65Z" style="fill:#263238"></path><path d="M612.07,339.09c.26.08,14.27,5,14.73,5.18-.06-.21-2.47-7.75-2.83-8.85,0-.11-.06-.22-.1-.33-.25-.49-.5-1-.73-1.49l-.87-1.94s0,0,0,0c.32.63.64,1.26,1,1.89.15.3.29.59.42.89-.24-.78-.46-1.56-.69-2.34-.35-1.25-.67-2.51-1-3.77,0,0,0-.05.06,0,.72,2.2,1.5,4.37,2.22,6.57s3.48,10.28,3.46,10.27-15.43-5.72-15.72-5.85A.1.1,0,0,1,612.07,339.09Z" style="fill:#263238"></path><path d="M610.82,357.15c1.5-3.07,3-6.15,4.59-9.16.92-1.71,1.83-3.43,2.76-5.14,0-.06.15,0,.12.06-1.38,3.14-2.78,6.28-4.3,9.36s-3,6.13-4.57,9.17q-1.33,2.6-2.82,5.1a0,0,0,1,1-.06,0C607.82,363.33,609.31,360.24,610.82,357.15Z" style="fill:#263238"></path><path d="M597.64,367.08c.53-.84,1.2-2.06,1.76-2.88.15-.22.32-.17.2.06-.4.77-.74,1.63-1.14,2.42l2.16.46,2.5.57c1.63.36,3.26.71,4.9,1q5,1,10,1.79a193.68,193.68,0,0,0,20.23,2.23c1.9.1,3.79.17,5.69.17a52.32,52.32,0,0,0,5.61-.18,0,0,0,0,1,0,.09,30.9,30.9,0,0,1-4.89.56c-1.71,0-3.44.06-5.15,0-3.43-.1-6.85-.38-10.25-.74-6.75-.73-13.47-1.76-20.14-3.05-1.86-.36-3.73-.74-5.59-1.15l-2.81-.63A17.43,17.43,0,0,1,597.64,367.08Z" style="fill:#263238"></path><path d="M607.05,319c3.47.68,9.16-4.8,11.33-9.15.15-.3-.42-3.35-.93-7.1-.3-2.28-.58-4.82-.67-7.16,0-.48-14.53,4.13-14.53,4.13a37.17,37.17,0,0,1,1.76,8.92,5,5,0,0,1-.06,1,.78.78,0,0,0,0,.16C603.71,311.6,603.7,318.34,607.05,319Z" style="fill:#f7a9a0"></path><path d="M615.88,295.69c-.53,4-2.62,13.62-10.44,14.1a9.2,9.2,0,0,1-1.5,0,.42.42,0,0,1,0-.16,5.86,5.86,0,0,0,.07-1,37.63,37.63,0,0,0-1.77-8.93S612.72,296.39,615.88,295.69Z" style="fill:#263238"></path><path d="M619.77,280.06c1.16,5.31-2.78,20.08-6.74,23.12-5.74,4.41-14.53,4.17-18.13-2.59-3.48-6.55,2-25.7,6.36-28.4C607.69,268.21,618,272.21,619.77,280.06Z" style="fill:#f7a9a0"></path><path d="M604.36,288s.06.07,0,.11c-.33,1-.54,2.15.25,2.75,0,0,0,.07,0,.05C603.59,290.46,603.89,288.9,604.36,288Z" style="fill:#263238"></path><path d="M605.55,287.27c1.62.36.78,3.57-.72,3.24S604.19,287,605.55,287.27Z" style="fill:#263238"></path><path d="M598.78,286.61s-.09,0-.1.07c-.23,1-.66,2.11-1.65,2.21a0,0,0,0,0,0,.06C598.17,289.08,598.72,287.6,598.78,286.61Z" style="fill:#263238"></path><path d="M598.16,285.34c-1.57-.54-2.53,2.64-1.08,3.14S599.48,285.79,598.16,285.34Z" style="fill:#263238"></path><path d="M607.7,285.11a12.78,12.78,0,0,1-1.25-.55,2.25,2.25,0,0,1-1.17-.8.71.71,0,0,1,.18-.84,1.77,1.77,0,0,1,1.77-.05,2.58,2.58,0,0,1,1.38,1.22A.75.75,0,0,1,607.7,285.11Z" style="fill:#263238"></path><path d="M597.3,282.61c.46,0,.9,0,1.36,0a2.23,2.23,0,0,0,1.39-.27.69.69,0,0,0,.18-.83,1.74,1.74,0,0,0-1.6-.76,2.61,2.61,0,0,0-1.76.55A.75.75,0,0,0,597.3,282.61Z" style="fill:#263238"></path><path d="M603.61,297.72a1.6,1.6,0,0,1-1,.37,2.76,2.76,0,0,1-1-.53,0,0,0,0,0-.06,0,1.39,1.39,0,0,0,1.12.87,1.12,1.12,0,0,0,1-.68C603.73,297.74,603.66,297.7,603.61,297.72Z" style="fill:#263238"></path><path d="M603.34,294.47a3.52,3.52,0,0,1-2.65.92,4.44,4.44,0,0,1-1.24-.27l-.22-.08L599,295a.26.26,0,0,1-.15-.28h0a.54.54,0,0,1,0-.1h0l0-.09c.18-.77.56-1.92.56-1.92-.32.07-1.92.34-1.79-.06a52.63,52.63,0,0,1,4-9.92.09.09,0,0,1,.17.08c-.89,3.17-2.34,6.17-3.29,9.35a6.37,6.37,0,0,1,1.72-.07c.1.06-.77,2.21-.82,2.56v0a4.85,4.85,0,0,0,3.79-.18C603.36,294.31,603.42,294.4,603.34,294.47Z" style="fill:#263238"></path><path d="M600,294.85a4.22,4.22,0,0,0,1.29,1.67,1.91,1.91,0,0,0,1.08.36c.85,0,1.06-.73,1.08-1.39a4.71,4.71,0,0,0-.11-1.05A5.4,5.4,0,0,1,600,294.85Z" style="fill:#263238"></path><path d="M601.29,296.52a1.91,1.91,0,0,0,1.08.36c.85,0,1.06-.73,1.08-1.39A1.92,1.92,0,0,0,601.29,296.52Z" style="fill:#ff98b9"></path><path d="M618.05,292.94s5-9,4.33-14.11c-.31-2.3-3.52-3.73-3.52-3.73s-10.63-9.53-21.26-1.49c-1.26,1-4.33,4,1.19,6.22s16.1-.57,16.1-.57a37.64,37.64,0,0,0,.58,11.19A3.44,3.44,0,0,0,618.05,292.94Z" style="fill:#263238"></path><path d="M615.58,292s3.87-4.49,5.94-3.07-1.17,8.18-3.85,8.88a2.62,2.62,0,0,1-3.36-1.76Z" style="fill:#f7a9a0"></path><path d="M620.54,290.86a0,0,0,0,1,0,.07c-1.88.55-3,2.13-3.84,3.8a1.45,1.45,0,0,1,2.2-.18.05.05,0,0,1,0,.09A1.64,1.64,0,0,0,617,295a8.22,8.22,0,0,0-1,1.35c-.1.16-.38,0-.3-.14l0,0C615.93,293.88,618.05,290.84,620.54,290.86Z" style="fill:#263238"></path><path d="M598,271.56c1.69.09,10.36,3,13.78,5.83s8.7,10.61,9,11,6.38-13.48-4.52-19.61C604.31,262.12,598,271.56,598,271.56Z" style="fill:#407BFF"></path><path d="M620.21,287.61s-4.68-12.5-8.27-16.12-12.82-7.8-19.55-7c-5.25.66,4.28,10,4.28,10a3.36,3.36,0,0,1,2.48-1.7c3.24-.28,8.47,2.25,11.29,4.24C614,279.58,620.21,287.61,620.21,287.61Z" style="fill:#407BFF"></path><path d="M620.21,287.61s-4.68-12.5-8.27-16.12-12.82-7.8-19.55-7c-5.25.66,4.28,10,4.28,10a3.36,3.36,0,0,1,2.48-1.7c3.24-.28,8.47,2.25,11.29,4.24C614,279.58,620.21,287.61,620.21,287.61Z" style="opacity:0.2"></path></g><g id="freepik--character-1--inject-42"><path d="M218.75,318.9C239,340,268.52,393.35,272.17,401c2.48,5.19-24.69,18.89-25.84,15.11-1.48-4.84-25.14-64.57-31.42-87.11C211.44,316.58,214.56,314.54,218.75,318.9Z" style="fill:#ad6359"></path><path d="M245.05,412.55c.95,2.59,4.17,13.58,6.43,14.95s14.09,1.07,20.06,1.07,7.14-1.66,7-3.71S266,422.41,266,422.41s16.72,4.79,20.93,5.58,13.9,3.23,15.3-.26c.63-1.58-2-3.17-2-3.17s4.06,1.19,4.71-.83c.73-2.3-2.5-3.57-2.5-3.57s2.54.51,2.6-1.36c.13-4.19-15.77-6.25-15.77-6.25s12.18,5.93,12.57,2.51c.54-4.73-24.42-9.92-27-12a17.7,17.7,0,0,1-4.17-5.14Z" style="fill:#ad6359"></path><path d="M278.49,425.9a1.84,1.84,0,0,0-.56-1.6,5.3,5.3,0,0,0-1.46-.94,19.26,19.26,0,0,0-3.42-1.11c-2.35-.6-4.76-1-7.16-1.64a29.1,29.1,0,0,1,7.37.83,13.38,13.38,0,0,1,3.51,1.34,4.58,4.58,0,0,1,1.47,1.27A1.88,1.88,0,0,1,278.49,425.9Z" style="fill:#263238"></path><path d="M300.17,424.56c-1.72-.42-3.42-.9-5.11-1.39s-3.38-1-5.06-1.52l-5-1.58-5-1.55a40.19,40.19,0,0,1,5.22.93c1.73.4,3.42.89,5.11,1.4s3.37,1.08,5,1.71S298.56,423.82,300.17,424.56Z" style="fill:#263238"></path><path d="M283.94,414.34a34,34,0,0,1,4.83.67,46.07,46.07,0,0,1,4.72,1.22,40.92,40.92,0,0,1,4.56,1.7,34,34,0,0,1,4.33,2.23c-1.53-.53-3-1.12-4.56-1.63s-3.05-1-4.58-1.51-3.08-.93-4.62-1.39S285.51,414.77,283.94,414.34Z" style="fill:#263238"></path><path d="M286.4,410.35a30,30,0,0,1,7.68,1.62,29.63,29.63,0,0,1,7.07,3.43c-2.48-.89-4.88-1.82-7.34-2.63S288.9,411.16,286.4,410.35Z" style="fill:#263238"></path><path d="M238.09,341,220,357.09s-6.31-19-8.25-30.83,3.7-14.45,11.16-5.93A205,205,0,0,1,238.09,341Z" style="fill:#407BFF"></path><path d="M238.09,341,220,357.09s-6.31-19-8.25-30.83,3.7-14.45,11.16-5.93A205,205,0,0,1,238.09,341Z" style="opacity:0.2"></path><path d="M233.52,338.44c-.58.54-1.25,1-1.86,1.48s-1.23,1-1.83,1.53l-3.51,3c-2.39,2-4.81,3.94-7.09,6.08,0,0,0,.1,0,.07a73.6,73.6,0,0,0,7.35-5.65c1.19-1,2.36-2,3.53-3.07.59-.52,1.18-1.06,1.75-1.62s1.1-1.18,1.69-1.69C233.64,338.48,233.57,338.4,233.52,338.44Z" style="fill:#263238"></path><path d="M124.29,438.09c-.07,2.28,6.46,2.66,9.11,1.07a61.25,61.25,0,0,0,6-5.4c6.28-6,14.94-14.86,14.94-14.86l6.8,2.72,33.08,9.48,12.26-36.17s-16.07-6-31.33-11.36c-2.35-.82-4.66-1.62-6.91-2.38l-.42-.15c-10.23-3.45-18.7-6-19.53-5.39C146.09,377.35,124.37,435.79,124.29,438.09Z" style="fill:#ad6359"></path><path d="M124.29,438.09c-.08,2.29,6.46,2.66,9.11,1.08a62.5,62.5,0,0,0,6-5.42c6.28-6,14.94-14.85,14.94-14.85l6.8,2.72,1.1.31,13.4-38.19a4.75,4.75,0,0,0-.49-.17c-2.35-.82-4.66-1.61-6.91-2.38l-.42-.15c-10.23-3.44-18.7-6-19.54-5.39C146.09,377.35,124.37,435.8,124.29,438.09Z" style="fill:#ebebeb"></path><path d="M123.75,439c0-2.34,21.42-62.11,23.68-63.87.84-.68,9.74,1.92,20.39,5.38l.33.11-13.36,38.72-.65-.25s-18.41,19.22-21.1,20.9S123.7,441.29,123.75,439Z" style="fill:#407BFF"></path><path d="M126.31,439.1c3.85-10,18.44-50.63,21.49-60.8,0-.08,0-.1-.07,0-4,9.82-18.29,50.58-21.59,60.77C126.07,439.26,126.23,439.32,126.31,439.1Z" style="fill:#263238"></path><path d="M153.15,423.55c2.16-3.7,3.28-8.77,1.54-12.81-.07-.16-.29-.06-.3.08a58.92,58.92,0,0,1-1.74,12.53A.27.27,0,0,0,153.15,423.55Z" style="fill:#263238"></path><path d="M150.4,425.79c2.16-3.7,3.28-8.77,1.54-12.81-.07-.15-.29-.05-.29.09a59,59,0,0,1-1.75,12.53A.27.27,0,0,0,150.4,425.79Z" style="fill:#263238"></path><path d="M147.65,428c2.16-3.7,3.28-8.77,1.54-12.81-.06-.16-.29-.06-.29.08a59.57,59.57,0,0,1-1.74,12.53A.27.27,0,0,0,147.65,428Z" style="fill:#263238"></path><path d="M160,431.8c2.71-.8,2.78-4,2-6.2a22.49,22.49,0,0,0-6.9-9.35c-.07-.06-.14,0-.18,0a.52.52,0,0,0-.71.45c0,3.71-.38,7.67.8,11.26C155.63,430.09,157.4,432.54,160,431.8Zm-4.6-9.45c-.07-1.83,0-3.64-.17-5.46,1.34,1.83,2.75,3.59,3.91,5.55a23.61,23.61,0,0,1,1.51,2.91c.66,1.57,1.27,7-2.83,4.8C155.51,428.91,155.43,424.52,155.35,422.35Z" style="fill:#263238"></path><path d="M159.67,406.54c-2.56,2.77-3.84,6.55-5.42,9.91a.52.52,0,0,0,.47.7.12.12,0,0,0,.15.11A22.4,22.4,0,0,0,165,411.62c1.62-1.62,2.9-4.6.78-6.45S161.16,404.92,159.67,406.54Zm3.47-.78c4.66-.34,1.82,4.39.58,5.54a24,24,0,0,1-2.59,2,67.57,67.57,0,0,1-5.87,3.43c.88-1.6,1.61-3.27,2.43-4.9C158.66,409.91,160.56,406,163.14,405.76Z" style="fill:#263238"></path><path d="M123.75,439c0,2.34,6.61,2.65,9.29,1S154.15,419,154.15,419l.64.25,10.56-30.6L142,387.57C134.91,405.7,123.77,437.27,123.75,439Z" style="opacity:0.1"></path><path d="M167.39,428s71.6,13.29,97.49,7.49c12.39-2.78,20.73-19.22,14.21-31.28-6.09-11.24-40.81-21.45-50.77-27.8-3.13-2-3.16-10.39-3.16-10.39l-25.42.73s-8.45,14.77-4.32,21.61a2.36,2.36,0,0,0,.24.34L184,384.78Z" style="fill:#37474f"></path><path d="M182.28,408.11c2.57-6.26,5.42-12.4,8-18.63.05-.12.24-.07.19.06-2.45,6.28-4.7,12.63-7.26,18.87s-5.38,12.41-8.09,18.61c-.07.16-.32.09-.26-.08C177.38,420.67,179.73,414.35,182.28,408.11Z" style="fill:#263238"></path><path d="M195.5,389c1.79.95,3.51,2.06,5.26,3.09s3.46,2,5.22,3c3.55,1.91,7.18,3.69,10.85,5.37a180.89,180.89,0,0,0,22.79,8.7c4.34,1.32,8.73,2.6,13.17,3.51.1,0,.06.17,0,.15-3.23-.63-6.47-1.25-9.67-2,1.72,1,3.42,2,5.13,3,.09.05,0,.19-.07.14-1.88-1-3.77-2-5.63-3.06a.17.17,0,0,1-.06-.25l-1.64-.41c-4-1.05-7.9-2.24-11.77-3.62a142.86,142.86,0,0,1-22.15-10.05c-2-1.12-4-2.28-5.92-3.48a52.66,52.66,0,0,1-5.64-3.82C195.19,389.08,195.36,388.88,195.5,389Z" style="fill:#263238"></path><path d="M97.44,448c-.07,2.29,6.46,2.66,9.11,1.08a63.33,63.33,0,0,0,6-5.41c6.27-6,14.93-14.86,14.93-14.86l6.81,2.72L166.44,441l13.23-36.18s-16.07-6-31.33-11.36c-2.35-.82-4.66-1.61-6.91-2.38l-.42-.15c-10.23-3.45-18.7-6-19.53-5.39C119.24,387.22,97.52,445.66,97.44,448Z" style="fill:#ad6359"></path><path d="M97.44,448c-.07,2.28,6.46,2.66,9.11,1.07a61.25,61.25,0,0,0,6-5.4c6.27-6,14.94-14.86,14.94-14.86l6.79,2.73.91.27,14-38-.87-.3L141.43,391l-.42-.14c-10.24-3.45-18.7-6-19.53-5.38C119.24,387.21,97.52,445.65,97.44,448Z" style="fill:#ebebeb"></path><path d="M96.87,448.49c.08-2.34,22.27-61.82,24.56-63.54.85-.67,9.71,2.06,20.31,5.66l.34.12-13.9,38.53-.64-.26s-18.68,19-21.39,20.6S96.79,450.83,96.87,448.49Z" style="fill:#407BFF"></path><path d="M99.43,448.68c4-9.94,19.13-50.38,22.32-60.5,0-.09,0-.11-.06,0-4.17,9.76-19,50.33-22.43,60.47C99.19,448.83,99.34,448.89,99.43,448.68Z" style="fill:#263238"></path><path d="M126.48,433.49c2.21-3.67,3.4-8.72,1.72-12.79-.07-.15-.29-.06-.3.09a58.88,58.88,0,0,1-1.91,12.5A.27.27,0,0,0,126.48,433.49Z" style="fill:#263238"></path><path d="M123.7,435.7c2.21-3.67,3.4-8.72,1.72-12.79-.07-.16-.29-.06-.3.08a59,59,0,0,1-1.91,12.51A.27.27,0,0,0,123.7,435.7Z" style="fill:#263238"></path><path d="M120.92,437.9c2.21-3.67,3.41-8.72,1.72-12.78-.07-.16-.29-.06-.3.08a58.79,58.79,0,0,1-1.91,12.5A.27.27,0,0,0,120.92,437.9Z" style="fill:#263238"></path><path d="M133.17,441.83c2.71-.75,2.83-4,2.06-6.16a22.44,22.44,0,0,0-6.77-9.45c-.07-.06-.14,0-.18,0a.52.52,0,0,0-.72.44c0,3.7-.48,7.67.65,11.27C128.87,440.07,130.6,442.54,133.17,441.83Zm-4.47-9.51c0-1.82,0-3.64-.1-5.46a66.85,66.85,0,0,1,3.83,5.61,23,23,0,0,1,1.48,2.93c.63,1.57,1.17,7.07-2.9,4.76C128.77,438.88,128.74,434.49,128.7,432.32Z" style="fill:#263238"></path><path d="M133.23,416.58c-2.6,2.73-3.92,6.5-5.55,9.83a.54.54,0,0,0,.46.71c0,.07.05.13.14.11a22.37,22.37,0,0,0,10.24-5.5c1.65-1.6,3-4.56.87-6.44S134.75,415,133.23,416.58Zm3.48-.73c4.67-.28,1.77,4.41.51,5.54a24.08,24.08,0,0,1-2.62,2c-1.89,1.28-3.92,2.26-5.91,3.34.9-1.59,1.65-3.24,2.49-4.86C132.18,419.93,134.14,416,136.71,415.85Z" style="fill:#263238"></path><path d="M216.42,366.17l-43.71,1.19s-8.28,24-4.14,30.82,44.79,15.17,44.79,15.17l-56.2-18.7-16.62,43.16s67.87,11.82,103.39,6.67c13.32-1.93,21-19.77,12.58-32.87-8.85-13.79-39.6-31.86-39.6-31.86Z" style="fill:#37474f"></path><path d="M158.59,394.48c17.26,7,34.65,13.69,52.39,19.4q3.69,1.2,7.4,2.35c2.57.8,5.12,1.74,7.73,2.35.13,0,.07.24-.06.2-2.26-.74-4.59-1.24-6.88-1.89s-4.48-1.27-6.71-1.94l-2.89-.89.59.37c.9.55,1.79,1.09,2.68,1.66,1.82,1.17,3.52,2.57,5.43,3.6.11.07,0,.25-.11.18-1.81-1.18-3.84-2-5.7-3.14-.9-.53-1.79-1.09-2.67-1.67a16.39,16.39,0,0,1-2.35-1.66c-2.83-.88-5.65-1.77-8.45-2.71-8.84-2.95-17.59-6.14-26.23-9.63q-7.24-2.91-14.35-6.14C158.16,394.81,158.34,394.37,158.59,394.48Z" style="fill:#263238"></path><path d="M154.44,417.64c2.56-6.26,5.41-12.39,8-18.63.05-.12.24-.06.2.06-2.46,6.28-4.7,12.64-7.26,18.87s-5.38,12.41-8.09,18.61c-.07.16-.33.09-.26-.08C149.54,430.2,151.88,423.88,154.44,417.64Z" style="fill:#263238"></path><path d="M217.72,380.17a119.71,119.71,0,0,1,14.19,8.58c4.51,3.06,8.9,6.32,13.1,9.8,2.12,1.76,4.18,3.61,6.17,5.51a45.09,45.09,0,0,1,5.27,5.86,21.35,21.35,0,0,1,4.19,13.17,22.59,22.59,0,0,1-1.43,7.36,27,27,0,0,1-3.78,6.42c-.06.07-.18,0-.11-.11a17.25,17.25,0,0,0,3.16-6.12A22.59,22.59,0,0,0,256,411.48c-2.87-4.33-7-7.86-10.86-11.25s-8.23-6.75-12.59-9.83c-2.44-1.72-4.93-3.39-7.43-5s-5.06-3.21-7.51-4.93A.16.16,0,0,1,217.72,380.17Z" style="fill:#263238"></path><path d="M205.1,382.47a51.11,51.11,0,0,1,11.07-2.61c3.71-.57,7.43-.93,11.17-1.14.1,0,.1.14,0,.16-3.78.49-7.55,1.13-11.29,1.85s-7.24,1.65-10.9,2.09C204.94,382.85,204.92,382.54,205.1,382.47Z" style="fill:#263238"></path><path d="M175.42,384.24a55.7,55.7,0,0,0,6.93-.92,11.49,11.49,0,0,0,5.38-2c3-2.46,4.09-6.6,4.59-10.27,0-.09.16-.07.15,0-.36,4-.34,8.55-3.72,11.36a10.52,10.52,0,0,1-5.85,2.11,36.67,36.67,0,0,1-7.48-.15A.09.09,0,0,1,175.42,384.24Z" style="fill:#263238"></path><path d="M170.88,390.74a46.69,46.69,0,0,1,.93-6.87c.45-2.33,1-4.63,1.65-6.92.72-2.59,1.57-5.14,2.47-7.68,0-.09.18-.06.15,0-1.26,4.28-2.39,8.61-3.31,13-.45,2.17-.85,4.34-1.19,6.53a13.46,13.46,0,0,0,.23,6.34,11.21,11.21,0,0,0,3.73,5.3s0,0,0,0A11.43,11.43,0,0,1,170.88,390.74Z" style="fill:#263238"></path><path d="M164,404c3,.64,5.91,1.54,8.85,2.35s5.88,1.64,8.81,2.48c5.87,1.69,11.73,3.44,17.58,5.19,3.32,1,6.62,2.06,9.93,3.11.09,0,0,.18,0,.15q-17.72-4.68-35.23-10.05c-3.31-1-6.67-1.93-9.93-3.13A.05.05,0,0,1,164,404Z" style="fill:#263238"></path><path d="M166.37,374.78c1.7,1.18,60,2.05,60,2.05l-.64-20.53s4.95-5,5.26-11.23c.41-8.28-9.95-25.27-10.85-26.35-3.57-4.35-7.8-5.59-12.12-4.75C190,317.47,166.37,374.78,166.37,374.78Z" style="fill:#407BFF"></path><path d="M225.47,327.66c.89,2,1.9,4,2.85,6-.31-1.38-.61-2.75-1-4.12,0,0,0,0,0,0a26.53,26.53,0,0,1,1.4,5.15,36.75,36.75,0,0,1,1.8,4.68,17.53,17.53,0,0,1,.85,5.93,15,15,0,0,1-1.59,5.78,38.72,38.72,0,0,1-3.77,5.86c-.18.25-.52,0-.37-.29,2.12-3.33,4.43-6.82,4.79-10.85s-1-7.88-2.4-11.56a56.83,56.83,0,0,0-2.77-6.53C225.28,327.63,225.43,327.57,225.47,327.66Z" style="fill:#263238"></path><path d="M216.43,351.06a56,56,0,0,0-8.45,1.1c-1.38.3-2.74.67-4.1,1.06-.67.2-1.35.38-2,.55a9.59,9.59,0,0,1-2.19.33.05.05,0,0,0,0,.1,14.59,14.59,0,0,0,2.09,0,15.11,15.11,0,0,0,2-.31c1.41-.3,2.8-.66,4.2-1,2.82-.62,5.65-1.25,8.51-1.67A.12.12,0,0,0,216.43,351.06Z" style="fill:#263238"></path><path d="M223.35,353.8a63.48,63.48,0,0,0-7-.57c-1.18,0-2.35,0-3.52.09-.56,0-1.12.08-1.68.13s-1.22.2-1.83.25a.05.05,0,1,0,0,.1c.58,0,1.17,0,1.75,0l1.75,0,3.51,0c2.35,0,4.68,0,7,.11A.1.1,0,0,0,223.35,353.8Z" style="fill:#263238"></path><path d="M240.85,385.42q9.32-7.55,18.86-14.77c3.17-2.43,6.38-4.79,9.58-7.18l4.84-3.54,1.22-.88.69-.46a7,7,0,0,1,.78-.38l2.81-1.13c7.47-2.86,14.94-5.63,22.59-8,.49-.15,1-.3,1.47-.43l.38-.1a4.13,4.13,0,0,1,.44-.09,3.66,3.66,0,0,1,.57-.05h.27c.92,0,1.95-.12,2.93-.18l6-.48c4-.28,7.95-.66,11.94-.92-3.94.71-7.89,1.28-11.83,1.9l-5.94.8c-1,.13-2,.25-3,.32h-.48l-.17.07-.28.07-.34.11c-.46.13-.93.31-1.39.46-3.74,1.33-7.48,2.73-11.2,4.15s-7.46,2.81-11.16,4.27L277.59,360a5.85,5.85,0,0,0-.56.26l-.55.37-1.21.86L270.4,365l-9.77,6.91Q250.85,378.81,240.85,385.42Z" style="fill:#263238"></path><path d="M293.77,352.86c1.58.67,3.13,1.39,4.65,2.12.77.35,1.53.73,2.29,1a4.68,4.68,0,0,0,.52.18,4.18,4.18,0,0,0,.56.06l1.26.06c3.39.15,6.79.3,10.18.77a77.51,77.51,0,0,1-10.22.23l-1.29-.09a4.85,4.85,0,0,1-.7-.08,4.64,4.64,0,0,1-.68-.26c-.79-.38-1.54-.78-2.28-1.22A50.19,50.19,0,0,1,293.77,352.86Z" style="fill:#263238"></path><path d="M308.69,344.16c.79-.92,4.9-.45,6.07-.75s4.74-1.12,6.23-.83,2.91,6.36,2,8.15-5.51,1.12-7,1.37-4.5,1.77-5.91.74S307.23,345.87,308.69,344.16Z" style="fill:#ebebeb"></path><path d="M200.52,331.16c4.08,19.09,16.83,43.78,20.48,46.69,6.77,5.41,33.4,2.36,41.22,1.73,3.17-.25-1-27.55-4.31-26.72-8.17,2.07-23.29,3.95-23.68,4.06-.83.21-19.63-27.21-24.08-31.9C199.89,314.21,198.68,322.57,200.52,331.16Z" style="fill:#ad6359"></path><path d="M288.26,352.58a3.58,3.58,0,0,1-.86,4.13,6.43,6.43,0,0,1,2.26,3.24c.58,2.27-2.73,4.18-2.73,4.18a7,7,0,0,1,1.93,3.65c.33,2.23-2.73,4.62-2.73,4.62a6.11,6.11,0,0,1-.33,4.28c-1.8,3.51-7.8,4-11.62,4.39s-15-2.17-17.16-2.44l-2.55-24.47s16.64-6.5,21.19-6.3C279.49,348,287,349.87,288.26,352.58Z" style="fill:#ad6359"></path><path d="M287.13,356.49c-4-1.17-8.18-1.08-12.33-1.22a.07.07,0,1,0,0,.14c4.13.1,8.18,1,12.3,1.27A.1.1,0,0,0,287.13,356.49Z" style="fill:#263238"></path><path d="M286.82,363.81a11.32,11.32,0,0,0-2.85-.15c-1,0-2,0-3,.1-2,.1-4.05.24-6.07.44-.09,0-.09.15,0,.15q3-.15,6.06-.17h3a13,13,0,0,0,2.86-.1A.15.15,0,0,0,286.82,363.81Z" style="fill:#263238"></path><path d="M286.05,372.4a7.45,7.45,0,0,0-2.58,0l-2.77.18c-1.84.1-3.69.21-5.53.25-.1,0-.1.15,0,.15,1.88,0,3.76-.05,5.63-.1.93,0,1.85-.05,2.77-.09a7,7,0,0,0,2.5-.3S286.09,372.41,286.05,372.4Z" style="fill:#263238"></path><path d="M289,368.25a4.86,4.86,0,0,0-1.88-4.1c1.39-.83,2.79-1.84,2.95-3.6s-1.16-3.08-2.45-3.85a2.33,2.33,0,0,0,.83-1.22,3.06,3.06,0,0,0,.05-.62,3,3,0,0,1-1.24,1.77c-.11.11,2.31,1.62,2.33,3.86,0,1.64-1.49,2.75-2.71,3.59-.07.05,2,1.78,1.73,4a6.37,6.37,0,0,1-2.56,4.2s.08.28.17.39.07,0,.05-.07-.07-.22-.07-.22.6-.46.78-.62a7.26,7.26,0,0,0,.94-1A4.93,4.93,0,0,0,289,368.25Z" style="fill:#263238"></path><path d="M229.61,351.15c1,1.18,2,2.4,3.06,3.6.52.59,1,1.23,1.54,1.73l.09.08,0,0-.08,0c-.13,0,0,0,0,0h.07l.15,0,.58-.09,1.17-.18c1.56-.22,3.12-.44,4.69-.6s3.13-.33,4.72-.41c-1.54.39-3.09.69-4.64,1s-3.1.53-4.66.77l-1.17.16-.58.08-.15,0h-.25a.46.46,0,0,1-.21-.09l-.09-.07-.13-.12a17.15,17.15,0,0,1-1.5-1.88C231.29,353.82,230.41,352.52,229.61,351.15Z" style="fill:#263238"></path><path d="M237.74,381c1.89-.19,3.79-.31,5.68-.43s3.79-.21,5.68-.3l5.68-.23c1.9-.08,3.79-.16,5.68-.31a39.85,39.85,0,0,1-5.64.88c-1.89.2-3.79.32-5.68.41s-3.8.14-5.7.13S239.64,381.12,237.74,381Z" style="fill:#263238"></path><path d="M225.2,343.6l-18.38,15.79s-6-19.05-7.71-31S203,314,210.36,322.7A203.34,203.34,0,0,1,225.2,343.6Z" style="fill:#407BFF"></path><path d="M225.2,343.6l-18.38,15.79s-6-19.05-7.71-31S203,314,210.36,322.7A203.34,203.34,0,0,1,225.2,343.6Z" style="opacity:0.2"></path><path d="M220.68,341c-.59.53-1.26,1-1.89,1.45s-1.24,1-1.85,1.49c-1.19,1-2.37,1.95-3.56,2.91-2.42,2-4.88,3.85-7.19,5.95,0,0,0,.1,0,.08a74.64,74.64,0,0,0,7.44-5.53q1.82-1.47,3.58-3c.6-.52,1.2-1.05,1.78-1.6s1.12-1.16,1.72-1.66C220.8,341,220.73,340.94,220.68,341Z" style="fill:#263238"></path><path d="M208.62,315.53c-.09,1,2.51,8.77,7,10,1.46.4,4-7.47,4-7.47l.32-.53,4.42-7.54-8.69-10.45S208.66,315.09,208.62,315.53Z" style="fill:#ad6359"></path><path d="M224.3,310l-4.43,7.54a17.56,17.56,0,0,1-6.63-12.66c1.19-2.7,2.19-4.94,2.34-5.27l0-.05,1.12,1.26Z" style="fill:#263238"></path><path d="M212.57,300.75c-3.1-.73-11.14,1.37-13.89,5.48s-2.62,10.84-1.25,11.52,7.31.26,11.41-1.92S214.1,301.12,212.57,300.75Z" style="fill:#263238"></path><path d="M212.58,300.77c.1,0,.12-.19,0-.2-2.73-.11-5.66.77-8.27,1.48a15.79,15.79,0,0,0-6,2.65,7.31,7.31,0,0,0-2.74,5.48,14.92,14.92,0,0,0,1.32,7.46c0,.06.15.05.13,0-1.18-4.56-2.2-10.12,2.36-13.14C203.27,301.89,208.18,301.66,212.58,300.77Z" style="fill:#263238"></path><path d="M197.9,316.58c-2.73.3-9.89,5.38-11.15,10.54s2.82,12.88,4.14,13.45,7.42-4.3,9.44-7.91c1.35-2.41.36-5.27-.19-8.11C199.32,320.37,198.32,316.53,197.9,316.58Z" style="fill:#263238"></path><path d="M202,332c.89-5.26-2-10.53-3.74-15.32,0,0-.1,0-.09,0,.92,4.59,3.61,8.74,3.62,13.52a8.76,8.76,0,0,1-3.4,7.32c-2.05,1.47-4.61,2.12-7,2.92-.15.05-.06.28.1.23C196.2,339.26,201.06,337.47,202,332Z" style="fill:#263238"></path><path d="M197.3,317.05c.14-.06,0-.28-.09-.21-3.9,1.77-8.6,4.37-10.73,8.26-2.31,4.22-.13,8.7,1.81,12.57,0,.05.1,0,.08,0-1.91-3.92-3.92-8.78-1.31-12.88C189.31,321.22,193.62,318.79,197.3,317.05Z" style="fill:#263238"></path><path d="M191.21,340.44a11.66,11.66,0,0,1,4.27,8.18c.4,6.32,2.87,5.33,9.49,7.67,5.6,2,6.17,8.53,2.79,11.39,0,0,2.17-3.78-1.5-6.11-4.38-2.79-15.45,1-20-6.07C180.24,346.36,191.21,340.44,191.21,340.44Z" style="fill:#263238"></path><path d="M193.35,343.56c-.06-.09.09-.21.17-.12a9.5,9.5,0,0,1,1.59,2.89c.45,1.38.33,2.81.68,4.19.89,3.54,5,3.84,8,4.35,4,.69,6.95,3.46,6.77,7.7,0,.06-.1.06-.1,0a7.15,7.15,0,0,0-3.63-6.47c-2.24-1.23-4.93-1-7.3-1.81-1.62-.57-3.2-1.44-3.81-3.14a14.22,14.22,0,0,1-.46-2.92A9.88,9.88,0,0,0,193.35,343.56Z" style="fill:#263238"></path><path d="M190.08,341.09s.09,0,0,.06c-2.5,2-5.12,4-6.11,7.22-1.06,3.45.4,7.16,2.95,9.57,2.86,2.69,6.3,1.89,9.83,1.57a14.34,14.34,0,0,1,7.51.83c.07,0,0,.16-.06.13-3.87-1.32-7.61-.51-11.56-.27a7.86,7.86,0,0,1-7.41-3.84C181.32,350.46,184.72,344.53,190.08,341.09Z" style="fill:#263238"></path><path d="M210.23,297.86a1.09,1.09,0,0,0-1.71,1.34C209.37,300.32,211.08,299,210.23,297.86Z" style="fill:#407BFF"></path><path d="M211,299.71a1.09,1.09,0,0,0-1.71,1.34C210.18,302.17,211.89,300.83,211,299.71Z" style="fill:#407BFF"></path><path d="M212.17,301.41c-.84-1.11-2.55.23-1.71,1.34A1.09,1.09,0,0,0,212.17,301.41Z" style="fill:#407BFF"></path><path d="M213.48,302.9a1.09,1.09,0,0,0-1.71,1.34C212.62,305.36,214.33,304,213.48,302.9Z" style="fill:#407BFF"></path><path d="M215.06,304.18c-.85-1.12-2.56.22-1.71,1.34A1.09,1.09,0,0,0,215.06,304.18Z" style="fill:#407BFF"></path><path d="M216.78,305.11a1.09,1.09,0,0,0-1.71,1.34A1.09,1.09,0,0,0,216.78,305.11Z" style="fill:#407BFF"></path><path d="M239.42,298.21c-.73,15.32-10,16.62-13.3,16.46-3-.15-13.19-1-14.05-16.35s6.49-19.82,13.37-19.85S240.14,282.88,239.42,298.21Z" style="fill:#ad6359"></path><path d="M237.22,295.6a9,9,0,0,1-1-.33,1.74,1.74,0,0,1-1-.54.56.56,0,0,1,.08-.67,1.35,1.35,0,0,1,1.36-.15,2,2,0,0,1,1.16.84A.58.58,0,0,1,237.22,295.6Z" style="fill:#263238"></path><path d="M226.75,295.67a9.32,9.32,0,0,0,1.05-.1,1.71,1.71,0,0,0,1.06-.3.56.56,0,0,0,.08-.66,1.35,1.35,0,0,0-1.29-.47,2,2,0,0,0-1.32.55A.58.58,0,0,0,226.75,295.67Z" style="fill:#263238"></path><path d="M228.64,298.2s-.09.05-.09.09c-.07,1-.32,2.23-1.29,2.48,0,0,0,.06,0,.06C228.43,300.78,228.74,299.2,228.64,298.2Z" style="fill:#263238"></path><path d="M227.81,297c-1.66-.28-2.11,3.06-.57,3.32S229.2,297.27,227.81,297Z" style="fill:#263238"></path><path d="M227.13,297.12c-.32.15-.65.44-1,.43s-.68-.4-.9-.78c0,0-.06,0-.06,0a1.22,1.22,0,0,0,.74,1.51c.61.17,1.14-.33,1.38-1C227.34,297.25,227.26,297.06,227.13,297.12Z" style="fill:#263238"></path><path d="M234.68,298.66s.07.06.07.11c-.18,1-.22,2.24.67,2.71,0,0,0,.07,0,.06C234.28,301.22,234.34,299.61,234.68,298.66Z" style="fill:#263238"></path><path d="M235.76,297.71c1.68.11,1.33,3.47-.22,3.37S234.35,297.62,235.76,297.71Z" style="fill:#263238"></path><path d="M236.43,298c.25.2.48.55.79.6s.68-.27.95-.59c0,0,.05,0,0,0,0,.64-.32,1.29-1,1.35s-.93-.54-1-1.19C236.22,298.09,236.33,297.92,236.43,298Z" style="fill:#263238"></path><path d="M227.28,307.35c.19.29.37.68.73.78a2.63,2.63,0,0,0,1.15,0,0,0,0,0,1,0,.06,1.41,1.41,0,0,1-1.42.28,1.11,1.11,0,0,1-.61-1.07C227.16,307.32,227.25,307.31,227.28,307.35Z" style="fill:#263238"></path><path d="M232.28,304s0,1.57-.12,2.3c0,.07-.2.07-.45.05h0a3.51,3.51,0,0,1-3.17-1.8.08.08,0,0,1,.12-.09,5.37,5.37,0,0,0,3,1.39c.08-.2-.06-2.7.06-2.69a6.13,6.13,0,0,1,1.59.62c.14-3.28-.25-6.56-.07-9.82a.1.1,0,0,1,.2,0,52.85,52.85,0,0,1,.52,10.57C234,304.9,232.56,304.12,232.28,304Z" style="fill:#263238"></path><path d="M231.72,306a4.27,4.27,0,0,1-1.78,1.23,1.87,1.87,0,0,1-1.17,0c-.84-.27-.82-1-.63-1.7a5.09,5.09,0,0,1,.43-1A5.6,5.6,0,0,0,231.72,306Z" style="fill:#263238"></path><path d="M229.94,307.25a1.87,1.87,0,0,1-1.17,0c-.84-.27-.82-1-.63-1.7A2,2,0,0,1,229.94,307.25Z" style="fill:#ff99ba"></path><path d="M232.2,282.47a6.81,6.81,0,0,1-1,3.9c-2.31,3.08-6.22,1.36-7.9,2.42s-1.63,3.7-3.07,4.72c-2,1.41-4.1.28-4.61,1.4s-2,4.71-3.64,4.88-3.45-26.09,16-21.36c0,0,2.91-.56,6.66,2.38,4.13,3.25,4.6,11.22,4.6,11.22s-.07-.13-.62-.85c-.78-1-1-1.87-1.57-2.55-.92-1.07-1.58-.87-2.55-1.92A13.07,13.07,0,0,1,232.2,282.47Z" style="fill:#263238"></path><path d="M232.12,281.33a13.48,13.48,0,0,1,0,3.11,5.51,5.51,0,0,1-1,2.82,4.17,4.17,0,0,1-2.6,1.3c-1,.15-2,0-3.13.24a3.12,3.12,0,0,0-1.51.72,4.14,4.14,0,0,0-.88,1.39,5.54,5.54,0,0,1-1.63,2.49,3.47,3.47,0,0,1-2.85.57c-1-.19-2-.69-3.07-.45,1.07-.16,2,.4,3,.69a3.76,3.76,0,0,0,3.12-.5,5.58,5.58,0,0,0,1.83-2.61,3.67,3.67,0,0,1,.79-1.23,2.69,2.69,0,0,1,1.29-.59c1-.19,2-.11,3.1-.28a5.69,5.69,0,0,0,1.55-.48,3.26,3.26,0,0,0,1.28-1,6,6,0,0,0,1-3A14.21,14.21,0,0,0,232.12,281.33Z" style="fill:#263238"></path><path d="M232.31,282.29a10.51,10.51,0,0,0,.41,2.89,5.12,5.12,0,0,0,1.52,2.56,7.93,7.93,0,0,0,1.25.8,2.39,2.39,0,0,1,.92.92,7.53,7.53,0,0,0,.62,1.33,3.16,3.16,0,0,0,1.09,1,3.6,3.6,0,0,1-.89-1.1,7.38,7.38,0,0,1-.47-1.35,2.57,2.57,0,0,0-1-1.16,8.2,8.2,0,0,1-1.17-.78,5.51,5.51,0,0,1-1.48-2.31A22.62,22.62,0,0,1,232.31,282.29Z" style="fill:#263238"></path><path d="M214.45,299.62s-2.68-5.2-5-4.3-.74,8.11,1.66,9.39a2.59,2.59,0,0,0,3.63-.92Z" style="fill:#ad6359"></path><path d="M210,297.37a0,0,0,0,0,0,.07c1.68,1,2.39,2.73,2.81,4.52a1.43,1.43,0,0,0-2.07-.68s0,.11,0,.11a1.59,1.59,0,0,1,1.66.78,7.56,7.56,0,0,1,.65,1.52c.06.17.36.13.32-.06v-.05C213.68,301.33,212.35,297.93,210,297.37Z" style="fill:#263238"></path></g><g id="freepik--Fire--inject-42"><path d="M364,416.23s-35.09-5.13-37.2-3.78-4,11.59.23,14.08,36.4-2,36.4-2S367,421.41,364,416.23Z" style="fill:#407BFF"></path><path d="M364,416.23s-35.09-5.13-37.2-3.78-4,11.59.23,14.08,36.4-2,36.4-2S367,421.41,364,416.23Z" style="opacity:0.49"></path><path d="M327,412.84c1.06-.24,2.77,3.28,2.38,7.19-.38,3.72-1.78,6.2-2.35,6.13s-2.55-2.25-2.22-7.05C325.07,415.62,326.13,413,327,412.84Z" style="fill:#fff;opacity:0.2"></path><g style="opacity:0.2"><path d="M330.7,413.82a50.87,50.87,0,0,1,6.05-.07c1,0,2,.13,3,.26a13.72,13.72,0,0,1,1.53.29c.54.14.93.24,1.44.33,1.93.33,3.94.47,5.93.65s4,.32,6,.51a55.53,55.53,0,0,1-6,.24,39.06,39.06,0,0,1-6.08-.45c-.49-.08-1.07-.25-1.5-.36s-.94-.21-1.43-.3c-1-.18-2-.29-3-.42Z"></path><path d="M334.68,415.69c1.43.21,2.85.44,4.25.72s2.81.55,4.19.73a26.51,26.51,0,0,0,4.19.06c1.43-.06,2.86-.1,4.3-.11a32,32,0,0,1-4.23.86,17.33,17.33,0,0,1-4.39.15,30,30,0,0,1-4.24-1A35.2,35.2,0,0,1,334.68,415.69Z"></path><path d="M351.91,419a12.19,12.19,0,0,1,6.32-2.33,7.77,7.77,0,0,1,3.45.57,4.48,4.48,0,0,1,1.53,1,2.51,2.51,0,0,1,.56.87,1.19,1.19,0,0,1,.06.37,1.1,1.1,0,0,1-.06.26c0,.06,0,.1-.07.15a2.29,2.29,0,0,1-.32.43,5.93,5.93,0,0,1-3.17,1.69,3.85,3.85,0,0,1-1.87-.14,8.72,8.72,0,0,1-1.59-.72,2.78,2.78,0,0,1-1.31-1.35.74.74,0,0,1,.09-.64.91.91,0,0,1,.45-.35,3.24,3.24,0,0,1,.88-.22,7.52,7.52,0,0,1,1.71,0,3.06,3.06,0,0,1,1.58.6,4.85,4.85,0,0,0-3.21-.14,2.9,2.9,0,0,0-.72.24c-.21.12-.25.19-.19.32a2.27,2.27,0,0,0,1.08.87,10,10,0,0,0,1.49.57,3,3,0,0,0,1.45,0,5.09,5.09,0,0,0,2.61-1.44,1.5,1.5,0,0,0,.19-.23l0,0a.06.06,0,0,0,0,.06s0,0,0,0a1.36,1.36,0,0,0-.34-.52,3.67,3.67,0,0,0-1.21-.85,7.67,7.67,0,0,0-3.06-.66,10.36,10.36,0,0,0-3.21.43A16.27,16.27,0,0,0,351.91,419Z"></path><path d="M363.59,422.38a12.27,12.27,0,0,1-4.36,1.41,10.76,10.76,0,0,1-2.34,0,10.89,10.89,0,0,1-2.3-.56,30,30,0,0,1-4.1-2,14.28,14.28,0,0,0-4.19-1.46,9.77,9.77,0,0,1,4.51.78c1.42.58,2.73,1.29,4.11,1.77a10.57,10.57,0,0,0,4.25.67A20.53,20.53,0,0,0,363.59,422.38Z"></path><path d="M329.4,425.38q2.72,0,5.4.06a37,37,0,0,0,5.3-.2,21.39,21.39,0,0,1,5.47-.28,40.9,40.9,0,0,1,5.4.59l-5.41.16a29.91,29.91,0,0,0-5.29.49,24.66,24.66,0,0,1-5.5,0A44,44,0,0,1,329.4,425.38Z"></path><path d="M353.74,424.23c-1.5-.37-3-.76-4.48-1.07-.75-.16-1.5-.32-2.25-.42a5.57,5.57,0,0,0-2.19.05c-1.48.29-3,.62-4.52.88-.77.13-1.54.23-2.33.3a8.08,8.08,0,0,1-2.44-.1,18.93,18.93,0,0,1-2.27-.67,5.51,5.51,0,0,1-2.16-1.3,1.58,1.58,0,0,1-.35-.71,1.4,1.4,0,0,1,.1-.84,2,2,0,0,1,1.14-.9,7.78,7.78,0,0,1,2.39-.4,12.56,12.56,0,0,1,2.37.12,5.24,5.24,0,0,1,2.29.77.82.82,0,0,1,.41.62.69.69,0,0,1-.51.57,4.9,4.9,0,0,1-1.17.25,15,15,0,0,1-2.32.05,21.2,21.2,0,0,0,2.28-.31c.66-.13,1.83-.45,1-.8a4.85,4.85,0,0,0-2.08-.54,12.08,12.08,0,0,0-2.25,0,9,9,0,0,0-2.13.45,1.26,1.26,0,0,0-.64.47.52.52,0,0,0,.15.59,4.78,4.78,0,0,0,1.78,1,19.16,19.16,0,0,0,2.16.62,14,14,0,0,0,4.4-.16c1.52-.21,3-.53,4.56-.72a9.46,9.46,0,0,1,1.21-.08,7.58,7.58,0,0,1,1.19.16c.77.16,1.52.36,2.26.57C350.85,423.17,352.31,423.65,353.74,424.23Z"></path><path d="M343.83,419.89c-2.06-.35-4-.89-6-1.43l-3-.8a14.4,14.4,0,0,0-3-.53,7,7,0,0,1,3.14-.21,20.09,20.09,0,0,1,3.07.61A24.26,24.26,0,0,1,343.83,419.89Z"></path></g><path d="M359.19,416s35.15-4.75,37.24-3.37,3.88,11.62-.38,14.07-36.38-2.44-36.38-2.44S356.22,421.16,359.19,416Z" style="fill:#407BFF"></path><path d="M359.19,416s35.15-4.75,37.24-3.37,3.88,11.62-.38,14.07-36.38-2.44-36.38-2.44S356.22,421.16,359.19,416Z" style="opacity:0.49"></path><path d="M396.25,413c-1.06-.25-2.81,3.24-2.46,7.16.33,3.72,1.7,6.22,2.28,6.15s2.57-2.22,2.3-7C398.17,415.82,397.13,413.24,396.25,413Z" style="fill:#fff;opacity:0.2"></path><g style="opacity:0.2"><path d="M360.45,423.24l6,.33c1,0,2,.1,3,.09.49,0,1,0,1.46-.06s1-.11,1.54-.11a39.24,39.24,0,0,1,6.06.58,56.77,56.77,0,0,1,5.93,1.25c-2-.15-4-.32-6-.5s-4-.36-6-.35a12.63,12.63,0,0,0-1.47.08c-.53,0-1,0-1.56,0-1-.05-2-.13-3-.25A50.51,50.51,0,0,1,360.45,423.24Z"></path><path d="M364.11,423.14a35.68,35.68,0,0,1,4.17-1.13,32,32,0,0,1,4.3-.63,17.41,17.41,0,0,1,4.36.49,30.37,30.37,0,0,1,4.16,1.2c-1.44-.13-2.87-.28-4.28-.45a27.36,27.36,0,0,0-4.19-.27c-1.39.07-2.81.27-4.23.41S365.55,423.05,364.11,423.14Z"></path><path d="M381.54,421.2a17.5,17.5,0,0,0,3,1.39,11,11,0,0,0,3.17.68,8,8,0,0,0,3.1-.42,3.84,3.84,0,0,0,1.27-.76,1.64,1.64,0,0,0,.39-.49s0-.05,0,0a.07.07,0,0,0,0,.06l0,0a2.83,2.83,0,0,0-.17-.25,5.23,5.23,0,0,0-2.5-1.64,3.06,3.06,0,0,0-1.44-.07,11.23,11.23,0,0,0-1.53.45,2.33,2.33,0,0,0-1.15.78c-.07.13,0,.2.16.34a3.43,3.43,0,0,0,.7.3,4.91,4.91,0,0,0,3.21.11,3,3,0,0,1-1.61.47,7.12,7.12,0,0,1-1.72-.12,3.29,3.29,0,0,1-.85-.29.89.89,0,0,1-.42-.38.76.76,0,0,1-.05-.64,2.81,2.81,0,0,1,1.42-1.25,8.71,8.71,0,0,1,1.64-.6,3.94,3.94,0,0,1,1.87,0,5.9,5.9,0,0,1,3,1.94,1.84,1.84,0,0,1,.28.45.69.69,0,0,1,.07.15,1.24,1.24,0,0,1,0,.27,1,1,0,0,1-.09.36,2.31,2.31,0,0,1-.62.82,4.54,4.54,0,0,1-1.6.92,7.84,7.84,0,0,1-3.49.3A12.2,12.2,0,0,1,381.54,421.2Z"></path><path d="M393.45,418.72a21.17,21.17,0,0,0-4.35-1,10.51,10.51,0,0,0-4.29.34c-1.42.37-2.78,1-4.24,1.45a9.83,9.83,0,0,1-4.56.42,14.37,14.37,0,0,0,4.29-1.13,30.55,30.55,0,0,1,4.25-1.68,9.36,9.36,0,0,1,4.66-.15A12.26,12.26,0,0,1,393.45,418.72Z"></path><path d="M372.43,415.36a42.33,42.33,0,0,1,5.36-.83,24.64,24.64,0,0,1,5.5,0,30.1,30.1,0,0,0,5.3.47l5.4.14a40.6,40.6,0,0,1-5.39.61,21.84,21.84,0,0,1-5.47-.26,37.06,37.06,0,0,0-5.3-.18C376,415.32,374.24,415.35,372.43,415.36Z"></path><path d="M383.78,416.11c-1.48.47-3,.84-4.48,1.19-.75.15-1.52.29-2.3.39a7.84,7.84,0,0,1-1.2.06,8.74,8.74,0,0,1-1.19-.17c-1.53-.31-3-.74-4.49-1.07a13.73,13.73,0,0,0-4.38-.5,19.46,19.46,0,0,0-2.2.44,4.94,4.94,0,0,0-1.86.87.54.54,0,0,0-.19.58,1.33,1.33,0,0,0,.6.52,8.73,8.73,0,0,0,2.09.61,11.92,11.92,0,0,0,2.23.19,4.86,4.86,0,0,0,2.12-.38c.83-.28-.31-.69-1-.88s-1.48-.36-2.24-.49a16.16,16.16,0,0,1,2.3.24,4.44,4.44,0,0,1,1.15.34.66.66,0,0,1,.46.6.86.86,0,0,1-.45.6,5.29,5.29,0,0,1-2.35.58,12.52,12.52,0,0,1-2.37-.06,8.11,8.11,0,0,1-2.35-.59,1.94,1.94,0,0,1-1.06-1,1.33,1.33,0,0,1,0-.84,1.56,1.56,0,0,1,.41-.68,5.44,5.44,0,0,1,2.25-1.13,19,19,0,0,1,2.31-.49,8.23,8.23,0,0,1,2.44.09c.78.13,1.55.29,2.3.48,1.5.39,3,.83,4.44,1.23a5.57,5.57,0,0,0,2.18.23c.75-.05,1.51-.15,2.27-.25C380.74,416.64,382.26,416.36,383.78,416.11Z"></path><path d="M373.56,419.67a24.42,24.42,0,0,1-5.93,1.9,20.16,20.16,0,0,1-3.11.37,6.86,6.86,0,0,1-3.11-.46,14.55,14.55,0,0,0,3-.29l3-.57A60.75,60.75,0,0,1,373.56,419.67Z"></path><path d="M382.93,423.48c1.6.52,3.11,1,4.66,1.38a20.53,20.53,0,0,0,2.34.44c.79.11,1.59.13,2.43.19a6.65,6.65,0,0,1-2.46.57,9.45,9.45,0,0,1-2.54-.25,11.07,11.07,0,0,1-2.37-.88A8,8,0,0,1,382.93,423.48Z"></path></g><path d="M361.9,419.14s-41.63,9.36-43.41,11.79.48,14.74,6.31,15.71,40-18,40-18S367.4,423.71,361.9,419.14Z" style="fill:#407BFF"></path><path d="M361.9,419.14s-41.63,9.36-43.41,11.79.48,14.74,6.31,15.71,40-18,40-18S367.4,423.71,361.9,419.14Z" style="opacity:0.4"></path><path d="M318.85,431.29c1.09-.72,4.53,2.48,5.77,7,1.19,4.34.69,7.73,0,7.9s-3.82-1.43-5.52-7C317.86,435.25,317.94,431.9,318.85,431.29Z" style="fill:#fff;opacity:0.2"></path><g style="opacity:0.2"><path d="M323.41,430.81a64.87,64.87,0,0,1,6.8-2.61c1.15-.39,2.32-.72,3.52-1a15.18,15.18,0,0,1,1.83-.33c.65-.08,1.16-.12,1.76-.25,2.32-.45,4.64-1.18,6.95-1.85l7-2.09c-2.19,1.05-4.44,2-6.72,2.8a48.86,48.86,0,0,1-7,2.1c-.59.11-1.29.17-1.84.23s-1.16.18-1.74.29c-1.17.23-2.33.54-3.51.82s-2.33.62-3.49.95Z"></path><path d="M328.69,431.19q2.55-.53,5.09-.95c1.69-.31,3.4-.57,5-1a30.4,30.4,0,0,0,4.75-1.77q2.35-1,4.75-2.05a42.69,42.69,0,0,1-4.42,2.73,21.5,21.5,0,0,1-4.85,2,39.67,39.67,0,0,1-5.16.77A49.81,49.81,0,0,1,328.69,431.19Z"></path><path d="M349.47,427.47a14.87,14.87,0,0,1,6.12-5.27,9.3,9.3,0,0,1,4.09-.82,5.35,5.35,0,0,1,2.12.5,2.88,2.88,0,0,1,1,.71,1.22,1.22,0,0,1,.21.36,1.35,1.35,0,0,1,0,.29,1.24,1.24,0,0,0,0,.18,2.87,2.87,0,0,1-.17.6,7.05,7.05,0,0,1-2.79,3.22,4.45,4.45,0,0,1-2.11.64,10.37,10.37,0,0,1-2.08-.11,3.33,3.33,0,0,1-2-.92.81.81,0,0,1-.17-.71,1.16,1.16,0,0,1,.34-.56,4.49,4.49,0,0,1,.87-.62,8.62,8.62,0,0,1,1.92-.73,3.65,3.65,0,0,1,2,0,3.9,3.9,0,0,0-1.94.28,8.51,8.51,0,0,0-1.75.9c-.52.34-1.13.87-.81,1.11A2.91,2.91,0,0,0,356,427a12.43,12.43,0,0,0,1.93,0,3.6,3.6,0,0,0,1.69-.58,6.23,6.23,0,0,0,2.36-2.79,1.83,1.83,0,0,0,.11-.37v-.06a.06.06,0,0,0,0,0,.21.21,0,0,0-.05-.07,1.93,1.93,0,0,0-.64-.47,4.66,4.66,0,0,0-1.76-.44,9.6,9.6,0,0,0-3.76.6,13.37,13.37,0,0,0-3.42,1.9A19.82,19.82,0,0,0,349.47,427.47Z"></path><path d="M364,426.25a15.24,15.24,0,0,1-4.32,3.39,13.94,13.94,0,0,1-2.6,1,12.79,12.79,0,0,1-2.8.36,39,39,0,0,1-5.46-.46,16.63,16.63,0,0,0-5.35.24,12.14,12.14,0,0,1,5.4-1c1.84.06,3.62.3,5.39.25a13.18,13.18,0,0,0,2.6-.28,14.85,14.85,0,0,0,2.49-.83A23.36,23.36,0,0,0,364,426.25Z"></path><path d="M326.93,444.35l6.12-2.19a43.74,43.74,0,0,0,5.89-2.49,26.44,26.44,0,0,1,6-2.69,57.45,57.45,0,0,1,6.29-1.74l-6,2.44a36.6,36.6,0,0,0-5.76,2.82,29.88,29.88,0,0,1-6.16,2.37A57.34,57.34,0,0,1,326.93,444.35Z"></path><path d="M353.78,432.57c-1.84.21-3.68.39-5.51.68-.91.14-1.82.28-2.71.48a6.92,6.92,0,0,0-2.46,1c-1.55,1-3.11,2-4.72,2.92-.8.47-1.62.92-2.48,1.33a9.72,9.72,0,0,1-2.75.95,24,24,0,0,1-2.82.21,6.57,6.57,0,0,1-2.93-.53,1.81,1.81,0,0,1-.67-.6,1.53,1.53,0,0,1-.23-.92,2.37,2.37,0,0,1,.85-1.45,9.38,9.38,0,0,1,2.48-1.47,16,16,0,0,1,2.69-.9,6.34,6.34,0,0,1,2.88-.14,1,1,0,0,1,.71.5.81.81,0,0,1-.32.82,5.54,5.54,0,0,1-1.19.78,20,20,0,0,1-2.57,1.09,25.88,25.88,0,0,0,2.44-1.31,5.86,5.86,0,0,0,1.06-.82c.15-.15.24-.35.19-.4a.75.75,0,0,0-.44-.2,6,6,0,0,0-2.6.28,14.39,14.39,0,0,0-2.53,1,10.1,10.1,0,0,0-2.23,1.42,1.57,1.57,0,0,0-.56.86.74.74,0,0,0,.46.71,6,6,0,0,0,2.5.37A24.61,24.61,0,0,0,333,439a16.68,16.68,0,0,0,4.92-2.09c1.61-.89,3.15-1.91,4.8-2.79a8.63,8.63,0,0,1,1.3-.61,9.48,9.48,0,0,1,1.4-.34c.93-.16,1.85-.27,2.78-.35C350.07,432.65,351.92,432.56,353.78,432.57Z"></path><path d="M340.78,432c-2.47.42-4.93.64-7.38.89-1.23.12-2.45.25-3.67.4a14.87,14.87,0,0,0-3.59.78,8.59,8.59,0,0,1,3.45-1.53,27.59,27.59,0,0,1,3.71-.61A32.83,32.83,0,0,1,340.78,432Z"></path></g><path d="M360.22,419.14s41.62,9.36,43.41,11.79-.49,14.74-6.32,15.71-40-18-40-18S354.71,423.71,360.22,419.14Z" style="fill:#407BFF"></path><path d="M360.22,419.14s41.62,9.36,43.41,11.79-.49,14.74-6.32,15.71-40-18-40-18S354.71,423.71,360.22,419.14Z" style="opacity:0.4"></path><path d="M403.26,431.29c-1.09-.72-4.52,2.48-5.77,7-1.18,4.34-.68,7.73,0,7.9s3.83-1.43,5.53-7C404.26,435.25,404.17,431.9,403.26,431.29Z" style="fill:#fff;opacity:0.2"></path><g style="opacity:0.2"><path d="M358.61,427.83l3.32,1.49c1.1.51,2.2,1,3.31,1.48s2.21.95,3.33,1.36c.56.2,1.12.41,1.68.56s1.21.31,1.77.52a48.84,48.84,0,0,1,6.6,3.16c2.12,1.19,4.2,2.44,6.2,3.82l-6.54-3.16c-2.18-1-4.36-2.1-6.58-2.91-.58-.22-1.07-.34-1.7-.52a14.65,14.65,0,0,1-1.76-.62c-1.13-.47-2.24-1-3.32-1.54A67,67,0,0,1,358.61,427.83Z"></path><path d="M362.78,429.24a49.6,49.6,0,0,1,5.16.55,41.46,41.46,0,0,1,5.1,1.11,21.52,21.52,0,0,1,4.7,2.35,42.14,42.14,0,0,1,4.23,3q-2.33-1.15-4.6-2.36a31.07,31.07,0,0,0-4.62-2.08c-1.61-.5-3.29-.88-5-1.3S364.45,429.71,362.78,429.24Z"></path><path d="M383.26,434.35a19.87,19.87,0,0,0,2.78,2.87,13.11,13.11,0,0,0,3.29,2.12,9.39,9.39,0,0,0,3.71.86,4.63,4.63,0,0,0,1.79-.33,1.83,1.83,0,0,0,.67-.42l.05-.06s0,0,0,0v-.07a1.23,1.23,0,0,0-.09-.37,6.24,6.24,0,0,0-2.16-2.95,3.69,3.69,0,0,0-1.65-.69,12.38,12.38,0,0,0-1.92-.12,2.82,2.82,0,0,0-1.67.43c-.35.22.23.79.73,1.17a8.61,8.61,0,0,0,1.68,1,4,4,0,0,0,1.92.41,3.64,3.64,0,0,1-2-.17,9,9,0,0,1-1.87-.86,4.76,4.76,0,0,1-.83-.68,1.23,1.23,0,0,1-.3-.58.82.82,0,0,1,.22-.7,3.29,3.29,0,0,1,2.08-.78,9.64,9.64,0,0,1,2.08,0,4.43,4.43,0,0,1,2.06.78,7,7,0,0,1,2.57,3.4,2.41,2.41,0,0,1,.13.61,1.08,1.08,0,0,1,0,.18,1.36,1.36,0,0,1-.06.29,1.19,1.19,0,0,1-.24.34,2.86,2.86,0,0,1-1,.64,5.21,5.21,0,0,1-2.15.36,9.29,9.29,0,0,1-4-1.1A14.76,14.76,0,0,1,383.26,434.35Z"></path><path d="M397.72,436.54a23.87,23.87,0,0,0-4.46-3,15,15,0,0,0-2.43-1,12.89,12.89,0,0,0-2.58-.45c-1.76-.17-3.55,0-5.39-.12a12.05,12.05,0,0,1-5.32-1.35,16.33,16.33,0,0,0,5.32.59,39.93,39.93,0,0,1,5.48-.08,12,12,0,0,1,2.76.54,13.38,13.38,0,0,1,2.53,1.21A15.09,15.09,0,0,1,397.72,436.54Z"></path><path d="M375.42,424a57.85,57.85,0,0,1,6.37,1.39,29.23,29.23,0,0,1,6.19,2.28,37,37,0,0,0,5.8,2.73l6.07,2.35a57.54,57.54,0,0,1-6.32-1.65,25.89,25.89,0,0,1-6-2.59,43.25,43.25,0,0,0-5.93-2.41Z"></path><path d="M387.9,429.55c-1.85-.11-3.69-.33-5.53-.58-.92-.15-1.83-.31-2.75-.54a9,9,0,0,1-1.37-.43,10.77,10.77,0,0,1-1.26-.69c-1.59-1-3.06-2.11-4.6-3.12a16.75,16.75,0,0,0-4.77-2.41,24.46,24.46,0,0,0-2.68-.42,6,6,0,0,0-2.51.2.73.73,0,0,0-.51.68,1.62,1.62,0,0,0,.49.9,10.53,10.53,0,0,0,2.13,1.56,14.88,14.88,0,0,0,2.46,1.15,6.07,6.07,0,0,0,2.58.45.74.74,0,0,0,.45-.17c.05-.05,0-.25-.16-.41a5.39,5.39,0,0,0-1-.89c-.75-.53-1.54-1-2.35-1.47a19.37,19.37,0,0,1,2.49,1.26,5.51,5.51,0,0,1,1.14.86.79.79,0,0,1,.26.83,1,1,0,0,1-.74.45,6.23,6.23,0,0,1-2.86-.33,15.32,15.32,0,0,1-2.62-1.07,9.28,9.28,0,0,1-2.38-1.64,2.3,2.3,0,0,1-.75-1.5,1.51,1.51,0,0,1,.29-.9,1.88,1.88,0,0,1,.71-.56,6.47,6.47,0,0,1,2.95-.33,23.76,23.76,0,0,1,2.81.4A10.05,10.05,0,0,1,370.5,422c.82.47,1.61,1,2.38,1.5,1.54,1.05,3,2.16,4.52,3.22a6.76,6.76,0,0,0,2.38,1.16c.88.26,1.78.47,2.68.66C384.26,428.91,386.08,429.22,387.9,429.55Z"></path><path d="M374.89,429.28a33.38,33.38,0,0,1-7.47-.42,29,29,0,0,1-3.66-.87,8.54,8.54,0,0,1-3.33-1.75,15.08,15.08,0,0,0,3.52,1c1.21.22,2.42.44,3.63.64C370,428.31,372.45,428.7,374.89,429.28Z"></path><path d="M383.86,437.51a49.12,49.12,0,0,0,4.62,3.59,22.85,22.85,0,0,0,2.49,1.46,28.64,28.64,0,0,0,2.69,1.16,8.5,8.5,0,0,1-3-.46,11.51,11.51,0,0,1-2.72-1.35,14.08,14.08,0,0,1-2.32-2A10.64,10.64,0,0,1,383.86,437.51Z"></path></g><path d="M326.76,324.88a1.36,1.36,0,1,1-1.35-1.35A1.36,1.36,0,0,1,326.76,324.88Z" style="fill:#407BFF"></path><circle cx="339.95" cy="266.56" r="1.36" style="fill:#407BFF"></circle><path d="M393.23,316a1.36,1.36,0,1,1,.25-1.9A1.36,1.36,0,0,1,393.23,316Z" style="fill:#407BFF"></path><path d="M405.4,399a1.36,1.36,0,1,1-1.36-1.35A1.36,1.36,0,0,1,405.4,399Z" style="fill:#407BFF"></path><circle cx="319.15" cy="389.76" r="1.36" style="fill:#407BFF"></circle><path d="M328.6,333.76a1.84,1.84,0,1,1-1.84-1.84A1.84,1.84,0,0,1,328.6,333.76Z" style="fill:#407BFF"></path><path d="M385.85,300.8a1.84,1.84,0,1,1,.34-2.58A1.84,1.84,0,0,1,385.85,300.8Z" style="fill:#407BFF"></path><path d="M401.92,368.81a1.84,1.84,0,1,1-1.84-1.84A1.83,1.83,0,0,1,401.92,368.81Z" style="fill:#407BFF"></path><path d="M331.52,331.13a.8.8,0,0,1-.8.8.79.79,0,0,1-.79-.8.79.79,0,0,1,.79-.79A.79.79,0,0,1,331.52,331.13Z" style="fill:#407BFF"></path><path d="M324.74,356.9a.8.8,0,0,1-1.6,0,.8.8,0,1,1,1.6,0Z" style="fill:#407BFF"></path><path d="M314.34,382.46a.79.79,0,0,1-.79.8.8.8,0,0,1-.8-.8.79.79,0,0,1,.8-.79A.79.79,0,0,1,314.34,382.46Z" style="fill:#407BFF"></path><path d="M404.58,363.1a.79.79,0,0,1-.79.8.8.8,0,0,1-.8-.8.79.79,0,0,1,.8-.79A.79.79,0,0,1,404.58,363.1Z" style="fill:#407BFF"></path><path d="M320.74,305.93a.79.79,0,0,1-.79.79.79.79,0,0,1-.8-.79.8.8,0,0,1,.8-.8A.79.79,0,0,1,320.74,305.93Z" style="fill:#407BFF"></path><path d="M357.4,298.55a.79.79,0,0,1-.79.8.8.8,0,0,1,0-1.6A.79.79,0,0,1,357.4,298.55Z" style="fill:#407BFF"></path><path d="M363.39,286.55a.8.8,0,1,1-1.6,0,.8.8,0,0,1,1.6,0Z" style="fill:#407BFF"></path><path d="M399.21,409.62c-.27-2.74-2.43-7.47-2.87-9.51s2.4-8.1,1.84-10.58-5.41-8.14-5.41-8.14.42,6.26,0,7-1.8,2.22-2.13,2,2.55-12.41,2.08-16.15-9-18-7.88-15.7,3.66,11.94,3.4,13.86-4.09,9.72-5,13.31,1.41,9.33,1.28,10.1-3.71,0-5.37-1.79,1.27-11,2.16-13.44-2.42-15.09-3.66-16.75-13.35-4.1-14-5.63,4.73-7.67,4.22-9.08-5.89-4.23-7.36-6,0-9.34,0-9.34-8.5,13.69-8.89,17.66,2.3,7,2.6,8.18-3.11,10.87-4.39,12-4.22,2.55-7.11,4.34-4.29,7.42-4.29,7.42c-.27-2.43,2.44-7.93,2.66-9.59s-5.84-13.56-5.62-15.22,4.51-7,4.81-9.34-9.1-12.16-9.1-12.16,4.32,11.26,3.3,14.34-12.41,22.12-12.15,26,3.07,15.48,2.95,17.39-4.23,11.64-3.55,14.34S332.61,421,334.71,422.4s6.72-.64,8.64,0,15.26,3.84,15.26,3.84l5.34-.08s20.42-2.64,26.09-6.23C392.07,418.64,399.46,412.34,399.21,409.62Zm-64.77-18.77s2.9,4.06,2,7.21-1.83,4.56-1.79,6.14.64,5.58.64,5.58c-.26-.21-3-5.66-3.15-8.14C331.87,398.4,334.44,390.85,334.44,390.85Zm1.83,29.21c-1.79-.94-7.33-5.93-7.93-8.18s.63-9.3.63-9.3,1.38,6.95,2.25,8.4,5.69,3.58,7.31,5.07,4.9,4.31,4.9,4.31S338.06,421,336.27,420.06Zm47.88-7.76c-1,4.18-6.65,6.82-6.65,6.82a29.13,29.13,0,0,1,2.13-5.67c1-1.57,2.44-4.6,2.3-7s-2.61-7-2.8-7.3C379.46,399.6,385.1,408.25,384.15,412.3Z" style="fill:#407BFF"></path><path d="M340.77,339.5s-5.87-4.18-6-7.33,3.68-9.72,3.29-12.28a17.36,17.36,0,0,0-1.69-4.95s6.21,4.27,6.19,7.76-3.7,9-3.36,10.75S340.77,339.5,340.77,339.5Z" style="fill:#407BFF"></path><path d="M375.84,358.7s-1.37-4.15-1.17-5.8,2.15-3.81,2.15-3.81a4.55,4.55,0,0,1,.79,4.3C376.84,356.06,375.84,358.7,375.84,358.7Z" style="fill:#407BFF"></path><path d="M390.36,358a23.44,23.44,0,0,1-3.36-8.91c-.45-4,1.69-9.13,2.43-10.44s3.84-3.07,3.84-3.07-2.11,3.33-2.18,4.83,1.06,6.17,1.22,8S390.36,358,390.36,358Z" style="fill:#407BFF"></path><path d="M352.24,333.76s-4.42-6-3.58-9.91,4.25-9,5.56-10.3,4.54-4.42,5.88-6.53,1.41-9.78,0-11.7a11.66,11.66,0,0,0-3.83-3.09,12.18,12.18,0,0,1,9.85,5.07c3.83,5.38,8.76,26.23,6.46,31s-8.77,9.4-8.77,9.4,1.73-8.25,1.16-10.3-6.72,0-8.26,1.25A44.07,44.07,0,0,0,352.24,333.76Z" style="fill:#407BFF"></path><path d="M342.09,363.24s-2.71-2.81-2.13-5.24,4-6.08,4.22-7.23-.8-5.83-.8-5.83,3.48,6.6,2.72,8.65a48.55,48.55,0,0,0-1.47,5.11s1.53-1,1.85-1.85a20.88,20.88,0,0,0,.64-2.24s2.62,3.26,1.79,5.56-5.37,6.72-5.37,6.72a15,15,0,0,0,.06-2.11C343.54,364,343.05,364.45,342.09,363.24Z" style="fill:#407BFF"></path><g style="opacity:0.4"><path d="M360.86,426.16s-16-5.75-19.56-13.94c-2.23-5.13,3.8-15.63,4.31-17.29s-.16-8.06.69-10.62,12.17-9.27,13.16-11-2-8.8-2-8.8,8.6,7,9.88,10.9-3.83,11.61-3.77,13,3,5.58,3,5.58,2.27-2.89,2.35-5.58-1.24-4.08-1-5.94,3.75-5.44,3.75-5.44-1.81,3.21-.91,5.44,5.25,6.58,4.61,10-5.76,11.38-5.31,13.56a10.15,10.15,0,0,0,1.61,3.72,36.35,36.35,0,0,0,1.84-5.4c.45-2.16.92-5,.92-5s2.63,14.2-.08,18.2S360.86,426.16,360.86,426.16Z" style="fill:#fff"></path><path d="M356.61,327.22c-.13-.25-1.85-4.12-1.92-6.23s3.78-4.92,5.5-6.52,5.44-6.78,5.12-9.47-.72-4.73-.72-4.73,5.32,15.22,5,20a13.91,13.91,0,0,1-3.13,7.86s-1-4.62-3.26-4.47C360.19,323.87,356.61,327.22,356.61,327.22Z" style="fill:#fff"></path><path d="M339.38,337.41s-3.41-3.2-3.37-5.33,3.37-8.06,3.37-8.06-1.43,7-1.68,8.31S339.38,337.41,339.38,337.41Z" style="fill:#fff"></path><path d="M378.88,421.15s6.94-4.32,8.21-5.46,3.18-7.24,3.05-8.46-2.37-6.63-2.37-8.12,4.55-6.81,4.55-6.81-1.48,5-1.22,6.26,6.17,8.26,5.81,10.89-6,7.36-7.62,8.42S378.88,421.15,378.88,421.15Z" style="fill:#fff"></path><path d="M329.93,393.18s-4.61-11.94-4.19-15.1S331.52,363,331.52,363s-.39,10.19-.82,11.79.82,6.46.82,6.46a42.1,42.1,0,0,0,1.94-4.78c.3-1.27-.91-6.22-.91-6.22s3.34,8.84,2.57,12.22S329.93,393.18,329.93,393.18Z" style="fill:#fff"></path></g></g></svg>